<svg xmlns="http://www.w3.org/2000/svg" xmlns:xlink="http://www.w3.org/1999/xlink" viewBox="0 0 2000 1500"><defs><style>.cls-1{isolation:isolate;}.cls-2{fill:#57bca2;}.cls-3{fill:url(#linear-gradient);}.cls-27,.cls-28,.cls-4,.cls-5{fill:#fff;}.cls-5{opacity:0.5;}.cls-6{fill:#fd7;}.cls-7{fill:#654342;}.cls-24,.cls-32,.cls-43,.cls-53,.cls-8{mix-blend-mode:multiply;}.cls-8{fill:url(#linear-gradient-2);}.cls-9{fill:url(#linear-gradient-3);}.cls-10{fill:url(#linear-gradient-4);}.cls-11{fill:#791028;}.cls-12{fill:#181e3c;}.cls-13{fill:url(#linear-gradient-5);}.cls-14{fill:#5b513d;}.cls-15{fill:url(#linear-gradient-6);}.cls-16{fill:url(#linear-gradient-7);}.cls-17{fill:url(#linear-gradient-8);}.cls-18{fill:url(#linear-gradient-9);}.cls-19{fill:url(#linear-gradient-10);}.cls-20{fill:url(#linear-gradient-11);}.cls-21{fill:#2c325a;}.cls-22{fill:#414141;}.cls-23{opacity:0.8;fill:url(#linear-gradient-12);}.cls-24{fill:url(#linear-gradient-13);}.cls-25{fill:#fcba44;}.cls-26{fill:#5a3640;}.cls-27{stroke:#231f20;}.cls-27,.cls-28{stroke-miterlimit:10;}.cls-28{stroke:#97ccee;stroke-width:3px;}.cls-29{fill:url(#linear-gradient-14);}.cls-30{fill:url(#linear-gradient-15);}.cls-31{fill:url(#linear-gradient-16);}.cls-32,.cls-54{fill:#cbd8e7;}.cls-33{fill:url(#linear-gradient-17);}.cls-34{fill:url(#linear-gradient-18);}.cls-35{fill:url(#linear-gradient-19);}.cls-36{fill:url(#linear-gradient-20);}.cls-37{fill:url(#linear-gradient-21);}.cls-38{fill:url(#linear-gradient-22);}.cls-39{fill:url(#linear-gradient-23);}.cls-40{fill:url(#linear-gradient-24);}.cls-41{fill:url(#linear-gradient-25);}.cls-42{fill:#2861a3;}.cls-43{fill:url(#linear-gradient-26);}.cls-44{fill:url(#linear-gradient-27);}.cls-45{fill:url(#linear-gradient-28);}.cls-46{fill:url(#linear-gradient-29);}.cls-47{fill:#ffd57a;}.cls-48{fill:url(#linear-gradient-30);}.cls-49{fill:url(#linear-gradient-31);}.cls-50{fill:url(#linear-gradient-32);}.cls-51{fill:url(#linear-gradient-33);}.cls-52{fill:url(#linear-gradient-34);}.cls-55{fill:url(#linear-gradient-35);}.cls-56{fill:url(#linear-gradient-36);}.cls-57{fill:url(#linear-gradient-37);}.cls-58{fill:url(#linear-gradient-38);}.cls-59{fill:url(#linear-gradient-39);}.cls-60{fill:url(#linear-gradient-40);}.cls-61{fill:url(#linear-gradient-41);}.cls-62{fill:url(#linear-gradient-42);}</style><linearGradient id="linear-gradient" x1="1068.06" y1="1248.39" x2="1068.06" y2="404.75" gradientUnits="userSpaceOnUse"><stop offset="0" stop-color="#1b75bb"/><stop offset="1" stop-color="#63be6a"/></linearGradient><linearGradient id="linear-gradient-2" x1="704" y1="489.06" x2="805.68" y2="489.06" gradientUnits="userSpaceOnUse"><stop offset="0" stop-color="#fff"/><stop offset="0.13" stop-color="#fbfbfb"/><stop offset="0.26" stop-color="#efeeee"/><stop offset="0.4" stop-color="#dad9da"/><stop offset="0.54" stop-color="#bdbcbc"/><stop offset="0.67" stop-color="#989797"/><stop offset="0.81" stop-color="#6b6869"/><stop offset="0.95" stop-color="#373334"/><stop offset="1" stop-color="#231f20"/></linearGradient><linearGradient id="linear-gradient-3" x1="879.53" y1="217.92" x2="916.98" y2="217.92" gradientUnits="userSpaceOnUse"><stop offset="0.1" stop-color="#ffda8b"/><stop offset="0.25" stop-color="#fed589"/><stop offset="0.41" stop-color="#fdc884"/><stop offset="0.58" stop-color="#fab27c"/><stop offset="0.76" stop-color="#f79371"/><stop offset="0.94" stop-color="#f36c62"/><stop offset="1" stop-color="#f15e5d"/></linearGradient><linearGradient id="linear-gradient-4" x1="879.45" y1="220.45" x2="879.45" y2="168.21" xlink:href="#linear-gradient-3"/><linearGradient id="linear-gradient-5" x1="4086.85" y1="302.88" x2="4177" y2="302.88" gradientTransform="matrix(-1, 0, 0, 1, 5025.83, 0)" gradientUnits="userSpaceOnUse"><stop offset="0.52" stop-color="#324a79"/><stop offset="1" stop-color="#0e1329"/></linearGradient><linearGradient id="linear-gradient-6" x1="939" y1="259.57" x2="796.82" y2="401.75" xlink:href="#linear-gradient-3"/><linearGradient id="linear-gradient-7" x1="1707.8" y1="748.41" x2="1707.8" y2="691.6" gradientTransform="translate(-289.23)" xlink:href="#linear-gradient-3"/><linearGradient id="linear-gradient-8" x1="1328.43" y1="1065.5" x2="1511.54" y2="1065.5" gradientTransform="matrix(1, 0, 0, 1, 0, 0)" xlink:href="#linear-gradient-5"/><linearGradient id="linear-gradient-9" x1="1398.65" y1="689.17" x2="1450.74" y2="689.17" xlink:href="#linear-gradient-3"/><linearGradient id="linear-gradient-10" x1="1762.94" y1="714.66" x2="1792.84" y2="714.66" gradientTransform="translate(-289.23)" gradientUnits="userSpaceOnUse"><stop offset="0" stop-color="#ffd57a"/><stop offset="0.22" stop-color="#ffd178"/><stop offset="0.46" stop-color="#fdc474"/><stop offset="0.69" stop-color="#fbaf6c"/><stop offset="0.93" stop-color="#f79361"/><stop offset="1" stop-color="#f6895d"/></linearGradient><linearGradient id="linear-gradient-11" x1="1520.89" y1="709.11" x2="1550.79" y2="709.11" xlink:href="#linear-gradient-10"/><linearGradient id="linear-gradient-12" x1="5025.42" y1="643.06" x2="5188.75" y2="643.06" gradientTransform="matrix(-1, 0, 0, 1, 6640.03, 0)" gradientUnits="userSpaceOnUse"><stop offset="0" stop-color="#181e3c"/><stop offset="1" stop-color="#2393a2"/></linearGradient><linearGradient id="linear-gradient-13" x1="1570.19" y1="634.9" x2="1609.38" y2="634.9" gradientTransform="matrix(1, 0, 0, 1, 0, 0)" xlink:href="#linear-gradient-12"/><linearGradient id="linear-gradient-14" x1="874.62" y1="577.82" x2="1194.92" y2="577.82" gradientUnits="userSpaceOnUse"><stop offset="0" stop-color="#f89420"/><stop offset="1" stop-color="#f04f36"/></linearGradient><linearGradient id="linear-gradient-15" x1="874.62" y1="992.98" x2="1194.92" y2="992.98" xlink:href="#linear-gradient-14"/><linearGradient id="linear-gradient-16" x1="3560.26" y1="787.73" x2="3880.56" y2="787.73" gradientTransform="matrix(-1, 0, 0, 1, 4752.49, 0)" xlink:href="#linear-gradient-14"/><linearGradient id="linear-gradient-17" x1="400.55" y1="735.6" x2="463.57" y2="735.6" gradientTransform="translate(646.67 -90.07) rotate(45)" gradientUnits="userSpaceOnUse"><stop offset="0" stop-color="#f6895d"/><stop offset="0.95" stop-color="#fcba44"/></linearGradient><linearGradient id="linear-gradient-18" x1="349.4" y1="671.69" x2="514.72" y2="671.69" gradientTransform="matrix(1, 0, 0, 1, 0, 0)" xlink:href="#linear-gradient-17"/><linearGradient id="linear-gradient-19" x1="1353.42" y1="425.92" x2="1392.76" y2="425.92" gradientTransform="translate(703.31 -846.16) rotate(45)" xlink:href="#linear-gradient-17"/><linearGradient id="linear-gradient-20" x1="1321.49" y1="386.02" x2="1424.69" y2="386.02" gradientTransform="matrix(1, 0, 0, 1, 0, 0)" xlink:href="#linear-gradient-17"/><linearGradient id="linear-gradient-21" x1="1538.72" y1="1018.31" x2="1573.91" y2="1018.31" gradientTransform="translate(1175.85 -802.22) rotate(45)" xlink:href="#linear-gradient-17"/><linearGradient id="linear-gradient-22" x1="1510.15" y1="982.61" x2="1602.48" y2="982.61" gradientTransform="matrix(1, 0, 0, 1, 0, 0)" xlink:href="#linear-gradient-17"/><linearGradient id="linear-gradient-23" x1="601.93" y1="1062.94" x2="639.05" y2="1062.94" gradientTransform="matrix(1, 0, 0, 1, 0, 0)" xlink:href="#linear-gradient-10"/><linearGradient id="linear-gradient-24" x1="631.67" y1="1040.25" x2="773.16" y2="1040.25" xlink:href="#linear-gradient-14"/><linearGradient id="linear-gradient-25" x1="1362.53" y1="517.68" x2="1493.63" y2="517.68" gradientTransform="matrix(0.81, -0.59, 0.59, 0.81, -871.44, 1582.2)" xlink:href="#linear-gradient-10"/><linearGradient id="linear-gradient-26" x1="549.69" y1="1142.73" x2="743.28" y2="1142.73" xlink:href="#linear-gradient-2"/><linearGradient id="linear-gradient-27" x1="432.06" y1="1179.37" x2="578.99" y2="1179.37" gradientTransform="matrix(1, 0, 0, 1, 0, 0)" xlink:href="#linear-gradient-10"/><linearGradient id="linear-gradient-28" x1="590.37" y1="1071.55" x2="654.99" y2="1071.55" gradientTransform="matrix(1, 0, 0, 1, 0, 0)" xlink:href="#linear-gradient-10"/><linearGradient id="linear-gradient-29" x1="526.79" y1="759.32" x2="526.79" y2="701.58" gradientTransform="matrix(-0.98, 0.2, 0.2, 0.98, 1113.55, 168.2)" xlink:href="#linear-gradient-10"/><linearGradient id="linear-gradient-30" x1="635.16" y1="1088.21" x2="808.41" y2="1088.21" gradientTransform="matrix(1, 0, 0, 1, 0, 0)" xlink:href="#linear-gradient-5"/><linearGradient id="linear-gradient-31" x1="507" y1="336.49" x2="585.13" y2="336.49" xlink:href="#linear-gradient-14"/><linearGradient id="linear-gradient-32" x1="1586.52" y1="1131.58" x2="1651.28" y2="1131.58" gradientTransform="matrix(1, 0, 0, 1, 0, 0)" xlink:href="#linear-gradient-17"/><linearGradient id="linear-gradient-33" x1="1599.28" y1="1095.09" x2="1610.67" y2="1095.09" gradientTransform="matrix(1, 0, 0, 1, 0, 0)" xlink:href="#linear-gradient-17"/><linearGradient id="linear-gradient-34" x1="1627.12" y1="1095.09" x2="1638.52" y2="1095.09" gradientTransform="matrix(1, 0, 0, 1, 0, 0)" xlink:href="#linear-gradient-17"/><linearGradient id="linear-gradient-35" x1="167.58" y1="951.4" x2="275.35" y2="951.4" gradientTransform="matrix(1, 0, 0, 1, 0, 0)" xlink:href="#linear-gradient-17"/><linearGradient id="linear-gradient-36" x1="978.72" y1="276.54" x2="1048.05" y2="276.54" gradientTransform="matrix(1, 0, 0, 1, 0, 0)" xlink:href="#linear-gradient-17"/><linearGradient id="linear-gradient-37" x1="1705.2" y1="710.85" x2="1780.33" y2="710.85" gradientTransform="matrix(1, 0, 0, 1, 0, 0)" xlink:href="#linear-gradient-17"/><linearGradient id="linear-gradient-38" x1="1722.85" y1="710.85" x2="1762.68" y2="710.85" gradientTransform="matrix(1, 0, 0, 1, 0, 0)" xlink:href="#linear-gradient-17"/><linearGradient id="linear-gradient-39" x1="1759.49" y1="689.58" x2="1768.63" y2="689.58" gradientTransform="matrix(1, 0, 0, 1, 0, 0)" xlink:href="#linear-gradient-17"/><linearGradient id="linear-gradient-40" x1="1138.77" y1="238.38" x2="1251.08" y2="238.38" gradientTransform="matrix(1, 0, 0, 1, 0, 0)" xlink:href="#linear-gradient-17"/><linearGradient id="linear-gradient-41" x1="1165.15" y1="238.38" x2="1224.69" y2="238.38" gradientTransform="matrix(1, 0, 0, 1, 0, 0)" xlink:href="#linear-gradient-17"/><linearGradient id="linear-gradient-42" x1="1219.92" y1="206.58" x2="1233.58" y2="206.58" gradientTransform="matrix(1, 0, 0, 1, 0, 0)" xlink:href="#linear-gradient-17"/></defs><g class="cls-1"><g id="Layer_1" data-name="Layer 1"><path class="cls-2" d="M1642.24,1248.39H449.64S301.16,956.86,508.57,856.74s264-73.62,259.26-232.64,99-256.2,183.84-206.13,157.91,176.68,289.9,100.12,320.54-64.79,315.83,179.63S1621,933.3,1675.24,971.58,1797.8,1142.38,1642.24,1248.39Z"/><path class="cls-3" d="M493.87,1248.39h1192.6S1835,956.86,1627.55,856.74s-264-73.62-259.26-232.64-99-256.2-183.84-206.13-157.91,176.68-289.9,100.12S574,453.3,578.72,697.72,515.08,933.3,460.88,971.58,338.32,1142.38,493.87,1248.39Z"/><path class="cls-4" d="M770.71,775.5c-30,31.63-42.36,36.48-42.1-2.26s-48.1-123.66-103.45-93.13-16,85.17-.28,108.42,39.26,54.8,15.56,48.92-50.7-14.81-48.22,9.48,59.53,39.35,87.64,63.87,30,44.44,3.67,39.81-68.15,24.07-41.3,46c23.59,19.3,164.78,106.76,198.64,127.67,0-5.71.87-13.42-.78-18.35-1.14-3.37-2.44-6.92-4-10.61s-3-7.64-4.55-11.73c-1.79-4.85-3.9-9.87-6.07-15.08-2.5-.71-6.19-1.85-10.6-3.47-4.12-1.45-8.84-3.33-13.83-5.49s-10.26-4.57-15.45-7.16-10.26-5.32-15-8-9.08-5.34-12.73-7.74a129.72,129.72,0,0,1-11.92-8.52,138.32,138.32,0,0,1,14,4.36c4.13,1.47,8.84,3.35,13.85,5.51s10.23,4.55,15.44,7.14,10.27,5.31,15,8,9.08,5.32,12.73,7.73c3,1.93,5.52,3.7,7.47,5.13-1.17-2.83-2.36-5.71-3.53-8.65-3.74-9.31-8.19-18.94-12.39-29.08L795,997.35c-4.71-10.51-9.49-21.18-14.29-31.85q-6-13.07-11.85-26c-2-1.24-4.44-2.78-7.13-4.6-3.84-2.57-8.21-5.71-12.74-9.18s-9.34-7.29-14-11.23-9.21-8-13.39-12-8-7.7-11.14-11.05a145.13,145.13,0,0,1-10.14-11.65,150.77,150.77,0,0,1,13.15,8.11c3.83,2.55,8.19,5.69,12.73,9.17s9.37,7.26,14,11.23,9.2,8,13.39,12,8,7.7,11.12,11.06l.79.84c-14.07-30.9-27.45-60.28-38.17-83.84-7.23-16-13.23-29.41-17.45-38.76s-6.54-14.75-6.54-14.75,3,5.08,7.95,14,12.07,21.82,20.19,37.42,17.49,33.87,27.19,53.6,19.63,41,29.41,62.31c4.72,10.73,9.44,21.49,14.08,32.07q5.49,12.87,10.56,25.37c.28-3.44.67-7.77,1.28-12.85.7-6.25,1.69-13.5,3-21.25.63-3.86,1.18-7.89,2-11.92s1.51-8.14,2.29-12.25,1.69-8.19,2.55-12.22,1.82-8,2.7-11.79c1.79-7.62,3.63-14.72,5.36-20.76,3.4-12.1,6.34-20.07,6.34-20.07s-.3,8.48-1.78,21c-.7,6.27-1.69,13.53-2.94,21.28-.65,3.85-1.23,7.87-2,11.91s-1.51,8.16-2.28,12.26-1.7,8.19-2.56,12.2-1.82,8-2.68,11.8c-1.79,7.63-3.64,14.72-5.38,20.78-1.76,6.33-3.41,11.49-4.6,15,.4,1,.81,1.92,1.18,2.88,4,10.24,8.05,20.08,11.43,29.61s6.82,18.41,9.39,26.87,5.34,16,7,23c1,4,3.71,8.88,6,13.23,3.65-50.34,18.06-265.8.75-304C830.11,771,800.71,743.88,770.71,775.5Z"/><path class="cls-5" d="M45.16,756.16,30.32,722.23A120.8,120.8,0,0,0,45.16,756.16Z"/><path class="cls-5" d="M1668.78,882.57c-3.12-1.83-5.23-4.35-7.55-7-3.92-2.27-8.47-4-11.68-6.76a4.38,4.38,0,0,1-1.63-3c-3.76-1.79-7.69-3.13-11.55-4.73a109.6,109.6,0,0,1-12.51-6.58c-9-5.13-18.35-8.57-27.78-12.69-8-3.51-15.73-10.18-24.7-11a5.11,5.11,0,0,1-2.66-1c-29.31,72.73-102.28,120.55-278,13.72-258.24-157-446-358.44-658.95-323-5.54,9.17-13.2,16.71-20,25-1.76,3.28-3.37,6.58-4.89,9.72-5.8,12-10.5,24.4-15.32,36.78l0,0c-6.33,23.62-12.52,47.86-11.69,72.34a4.57,4.57,0,0,1-1,3.18l0,.64c52.82,6.72,108,48,175.39,147.28,170.59,251.41,885.58,602.18,918.28,71-.69-.49-1.38-1-2.06-1.5A5.19,5.19,0,0,1,1668.78,882.57Z"/><polyline class="cls-6" points="794.13 521.79 807.5 559.26 793.26 564.2 768.65 508.77"/><path class="cls-7" d="M764.92,579.86c15.65-8.66,18.79-17.77,18.79-17.77l28-10.42,12,22.91-76.87,30.07C746.2,599,748.13,589.19,764.92,579.86Z"/><path class="cls-4" d="M746.87,604.65a13.64,13.64,0,0,0,1.47,4.88l77.75-30.44-2.35-4.51,5.46,8.34-79.71,31.2Z"/><path class="cls-4" d="M748.34,609.53a13.64,13.64,0,0,1-1.47-4.88l76.87-30.07,2.35,4.51Z"/><polyline class="cls-6" points="733.75 545.57 712.52 579.23 699.85 571.07 728.26 517.5"/><path class="cls-7" d="M670,558.45c16.46,6.95,25.59,3.8,25.59,3.8l25.47,15.62L710.5,601.45l-71.12-41.89C643.42,555.52,652.32,551,670,558.45Z"/><path class="cls-4" d="M639.38,559.56a13.54,13.54,0,0,0-2.92,4.17l71.94,42.38,2.1-4.66-3.21,9.46-73.73-43.45Z"/><path class="cls-4" d="M636.46,563.73a13.54,13.54,0,0,1,2.92-4.17l71.12,41.89-2.1,4.66Z"/><polygon class="cls-8" points="805.68 437.36 768.23 495.75 722.26 572.42 704 555.38 742.17 442.34 768.23 405.69 805.68 437.36"/><polygon class="cls-9" points="916.98 230.44 887.77 234.99 879.53 200.84 903.69 200.84 916.98 230.44"/><path class="cls-10" d="M907.55,171.05H888.38l-.34-2.84-36.7,2.66,3,41.15s10.86,16.45,29.22,3.4l9-8.93-.66-5.65h15.66Z"/><path class="cls-11" d="M972.57,243.33c-1.15-22.87-15.85-32.64-41.33-40.71-11-3.5-16.87-8.62-19.94-13.32l-1.45-19.93-22.34-2.76,1.34,12.07c.29-.13.63-.14.93-.26h0a8.48,8.48,0,0,1,2.14-.6A8.6,8.6,0,1,1,893.18,195a8.35,8.35,0,0,1-3.4-.44V200s-.13,35.85,23.58,46.28,19.89,36,19.89,36S974.13,274,972.57,243.33Z"/><path class="cls-12" d="M938.88,385s-11,59.63-43.81,59.63-112-9.95-112-9.95l19.48,111h-28L730.77,385Z"/><path class="cls-13" d="M938.88,383.72s3.12-163-25.2-162.94c-15,0-21.18-1.36-34.16,14.21-2.38,2.85-28.19,37.61-28.18,49.82s18.91,24.24,18.4,29c-4.1,39.24-20.91,71.15-20.91,71.15Z"/><rect class="cls-14" x="710.7" y="371" width="124.13" height="11.57"/><polygon class="cls-14" points="719.2 369.65 688.13 284.81 677.28 288.78 708.34 373.62 719.2 369.65"/><path class="cls-15" d="M917,238.34c-7.66-13.77-28.78-3.74-32.09,6s-.44,67.25-.44,67.25v24.73l-58.13,11.56-26.17,1.82s-24.34,12.17-27.38,13.94-3.06,11-3.06,11l41.39-7.9,11-3.11L917,352.74S924.64,252.11,917,238.34Z"/><polygon class="cls-11" points="1400.16 689.17 1383.96 650.16 1437.36 630.08 1450.74 614.71 1441.63 658.7 1400.16 689.17"/><polygon class="cls-16" points="1407.88 691.6 1404.89 737.73 1432.23 748.41 1428.82 699.72 1407.88 691.6"/><polygon class="cls-17" points="1328.43 905.6 1357.77 1055.68 1357.77 1225.4 1390.8 1225.4 1390.8 1069.35 1400.69 971.38 1445.48 1055.68 1479.86 1225.4 1511.54 1225.4 1479.65 1048.84 1448.04 927.81 1328.43 905.6"/><path class="cls-18" d="M1441.63,658.7s20.5,57.67,0,60.66-29.05-19.64-29.05-19.64-6.4,2.56-11.1-5.56-2.14-12.32-2.14-12.32l4.7-2.2,2.56-.86-4.69-14.95Z"/><path class="cls-19" d="M1503.6,714.66a15,15,0,1,1-14.95-14.94A14.95,14.95,0,0,1,1503.6,714.66Z"/><path class="cls-20" d="M1261.56,709.11a14.95,14.95,0,1,1-15-15A14.95,14.95,0,0,1,1261.56,709.11Z"/><polygon class="cls-4" points="1451.45 748.41 1395.12 732.03 1367.65 912.89 1434.8 925.35 1453.05 749.75 1451.45 748.41"/><path class="cls-21" d="M1378,727.05l-92.26,36.74-23.07-54.68-23.92,13.67s15,75.46,32.47,88,67.48-26.48,67.48-26.48L1307.2,928l60.45-15.15L1395.12,732Z"/><path class="cls-21" d="M1556.18,814.19c-2.28-16-50.9-97.39-50.9-97.39l-23.07,10.25,23.07,66.63-52.23-43.93-18.25,175.6,29.25,23.1,13-125.72C1532.26,862.6,1558.46,830.14,1556.18,814.19Z"/><path class="cls-22" d="M1390.79,1225.4s23,23.36,15.6,25.06-44.43,0-44.43,0V1225.4"/><path class="cls-22" d="M1509.26,1222.84s23,23.35,15.59,25.06-44.42,0-44.42,0v-25.06"/><path class="cls-4" d="M1445.45,698.58c1.25,4.35.39,8.4-1.9,9.06s-5.17-2.33-6.42-6.67-.39-8.4,1.91-9.06S1444.2,694.24,1445.45,698.58Z"/><path class="cls-23" d="M1451.29,675.28S1537,634,1572.12,581.37c0,0,48.2,36.92,41.94,107,0,0-80.08-10.84-132.4,12.68C1481.66,701.09,1453.78,719.1,1451.29,675.28Z"/><path class="cls-24" d="M1570.49,590.13s-6.27,56.34,38.81,89.53C1609.3,679.66,1613.06,623.31,1570.49,590.13Z"/><polygon class="cls-25" points="1629.37 529.24 1638.47 542.65 1615.81 573.42 1668.66 535.87 1651.56 523.49 1702.19 483.24 1660.23 467.07 1629.37 529.24"/><polygon class="cls-25" points="1734.22 525.4 1734.48 541.61 1663.47 584.61 1763.44 552.49 1755.93 532.76 1820.34 526.86 1822.06 456.33 1734.22 525.4"/><polygon class="cls-25" points="1685.38 626.76 1682.28 636.87 1657.37 637.9 1698.04 649.46 1697.37 635.71 1738.51 645.05 1729.61 617.1 1685.38 626.76"/><rect class="cls-26" x="807.37" y="445.13" width="457.65" height="797.38" rx="14.04"/><rect class="cls-27" x="837.36" y="473.84" width="397.66" height="661.88"/><circle class="cls-27" cx="1036.19" cy="1186.15" r="25" transform="translate(-356.29 1922.1) rotate(-76.72)"/><path class="cls-11" d="M842.35,149.65s6.76,35.27,32.41,31.78c0,0,2,20.06,13.27,19.67l2.33-25.21,19.49-6.52S900.66,118.55,842.35,149.65Z"/><path class="cls-28" d="M914.69,676.56a21.38,21.38,0,1,0-35.44,16.1,14.07,14.07,0,0,1,13.35-13.2,6.2,6.2,0,1,1,1.41,0,14.07,14.07,0,0,1,13.35,13.2A21.32,21.32,0,0,0,914.69,676.56Z"/><path class="cls-28" d="M894,679.46a6.2,6.2,0,1,0-1.41,0c.24,0,.47,0,.71,0S893.77,679.45,894,679.46Z"/><path class="cls-28" d="M894,679.46c-.23,0-.47,0-.7,0s-.48,0-.71,0a14.07,14.07,0,0,0-13.35,13.2,21.35,21.35,0,0,0,28.11,0A14.07,14.07,0,0,0,894,679.46Z"/><path class="cls-28" d="M894,679.46c-.24,0-.47,0-.7,0s-.47,0-.71,0c.23,0,.47,0,.71,0S893.78,679.48,894,679.46Z"/><path class="cls-29" d="M1189.09,519.32H880.45a5.83,5.83,0,0,0-5.83,5.83v79.3a5.73,5.73,0,0,0,.38,2v29.84l26-26.05h288a5.83,5.83,0,0,0,5.83-5.83v-79.3A5.83,5.83,0,0,0,1189.09,519.32Z"/><path class="cls-4" d="M1178.59,542.64a1.55,1.55,0,0,1-1.55,1.56H904.16a1.56,1.56,0,0,1-1.56-1.56h0a1.55,1.55,0,0,1,1.56-1.55H1177a1.54,1.54,0,0,1,1.55,1.55Z"/><path class="cls-4" d="M1178.59,563.05a1.55,1.55,0,0,1-1.55,1.56H904.16a1.56,1.56,0,0,1-1.56-1.56h0a1.55,1.55,0,0,1,1.56-1.55H1177a1.54,1.54,0,0,1,1.55,1.55Z"/><path class="cls-4" d="M1178.59,583.46A1.54,1.54,0,0,1,1177,585H904.16a1.55,1.55,0,0,1-1.56-1.55h0a1.56,1.56,0,0,1,1.56-1.56H1177a1.55,1.55,0,0,1,1.55,1.56Z"/><path class="cls-28" d="M914.69,1091.71a21.38,21.38,0,1,0-35.44,16.1,14.07,14.07,0,0,1,13.35-13.2,6.2,6.2,0,1,1,1.41,0,14.07,14.07,0,0,1,13.35,13.2A21.3,21.3,0,0,0,914.69,1091.71Z"/><path class="cls-28" d="M894,1094.61a6.2,6.2,0,1,0-1.41,0c.24,0,.47,0,.71,0Z"/><path class="cls-28" d="M894,1094.61a6.23,6.23,0,0,1-1.41,0,14.07,14.07,0,0,0-13.35,13.2,21.35,21.35,0,0,0,28.11,0A14.07,14.07,0,0,0,894,1094.61Z"/><path class="cls-28" d="M894,1094.61l-.7,0c-.24,0-.47,0-.71,0a6.23,6.23,0,0,0,1.41,0Z"/><path class="cls-30" d="M1189.09,934.47H880.45a5.83,5.83,0,0,0-5.83,5.83v79.3a5.79,5.79,0,0,0,.38,2v29.83l26-26h288a5.83,5.83,0,0,0,5.83-5.83V940.3A5.83,5.83,0,0,0,1189.09,934.47Z"/><path class="cls-4" d="M1178.59,957.8a1.54,1.54,0,0,1-1.55,1.55H904.16a1.55,1.55,0,0,1-1.56-1.55h0a1.56,1.56,0,0,1,1.56-1.56H1177a1.55,1.55,0,0,1,1.55,1.56Z"/><path class="cls-4" d="M1178.59,978.2a1.55,1.55,0,0,1-1.55,1.56H904.16a1.56,1.56,0,0,1-1.56-1.56h0a1.55,1.55,0,0,1,1.56-1.55H1177a1.54,1.54,0,0,1,1.55,1.55Z"/><path class="cls-4" d="M1178.59,998.61a1.55,1.55,0,0,1-1.55,1.56H904.16a1.56,1.56,0,0,1-1.56-1.56h0a1.55,1.55,0,0,1,1.56-1.55H1177a1.54,1.54,0,0,1,1.55,1.55Z"/><path class="cls-28" d="M1152.16,898.13a21.38,21.38,0,1,1,35.44,16.1,14.07,14.07,0,0,0-13.35-13.2,6.21,6.21,0,1,0-1.41,0,14.07,14.07,0,0,0-13.35,13.2A21.32,21.32,0,0,1,1152.16,898.13Z"/><path class="cls-28" d="M1172.84,901a6.2,6.2,0,1,1,1.41,0c-.24,0-.47,0-.71,0S1173.07,901,1172.84,901Z"/><path class="cls-28" d="M1172.84,901c.23,0,.46,0,.7,0s.47,0,.71,0a14.07,14.07,0,0,1,13.35,13.2,21.35,21.35,0,0,1-28.11,0A14.07,14.07,0,0,1,1172.84,901Z"/><path class="cls-28" d="M1172.84,901c.23,0,.47,0,.7,0s.47,0,.71,0c-.24,0-.47,0-.71,0S1173.07,901.05,1172.84,901Z"/><path class="cls-31" d="M877.76,717.57H1186.4a5.83,5.83,0,0,1,5.83,5.83V826a5.53,5.53,0,0,1-.39,2V857.9l-26-26h-288a5.83,5.83,0,0,1-5.83-5.83V723.4A5.83,5.83,0,0,1,877.76,717.57Z"/><path class="cls-4" d="M888.26,764.21a1.55,1.55,0,0,0,1.55,1.56h272.88a1.56,1.56,0,0,0,1.56-1.56h0a1.56,1.56,0,0,0-1.56-1.55H889.81a1.55,1.55,0,0,0-1.55,1.55Z"/><path class="cls-4" d="M888.26,742.06a1.54,1.54,0,0,0,1.55,1.55h272.88a1.55,1.55,0,0,0,1.56-1.55h0a1.56,1.56,0,0,0-1.56-1.56H889.81a1.55,1.55,0,0,0-1.55,1.56Z"/><path class="cls-4" d="M888.26,784.62a1.55,1.55,0,0,0,1.55,1.56h272.88a1.56,1.56,0,0,0,1.56-1.56h0a1.55,1.55,0,0,0-1.56-1.55H889.81a1.54,1.54,0,0,0-1.55,1.55Z"/><path class="cls-4" d="M888.26,805a1.54,1.54,0,0,0,1.55,1.55h272.88a1.55,1.55,0,0,0,1.56-1.55h0a1.56,1.56,0,0,0-1.56-1.56H889.81a1.55,1.55,0,0,0-1.55,1.56Z"/><path class="cls-32" d="M376.94,1086.66H318.07a4.24,4.24,0,0,0-4.25,4.24v47.55a4.25,4.25,0,0,0,4.25,4.25h18.57l10.87,10.86,10.86-10.86h18.57a4.25,4.25,0,0,0,4.25-4.25V1090.9A4.24,4.24,0,0,0,376.94,1086.66Z"/><path class="cls-4" d="M362.19,1109.87a8.57,8.57,0,0,0-14.68-6h0A8.58,8.58,0,1,0,336,1116.5l11.56,11.55,11.62-11.62A8.53,8.53,0,0,0,362.19,1109.87Z"/><rect class="cls-33" x="409.78" y="713.31" width="44.56" height="44.56" transform="translate(-393.59 520.95) rotate(-45)"/><rect class="cls-34" x="349.4" y="602.92" width="165.31" height="137.53" rx="10.42"/><path class="cls-4" d="M468.09,659.9a21,21,0,0,0-36-14.77h0v0a21,21,0,1,0-28.34,31l28.35,28.36L460.6,676A21,21,0,0,0,468.09,659.9Z"/><rect class="cls-35" x="1359.18" y="412.01" width="27.82" height="27.82" transform="translate(100.98 1095.65) rotate(-45)"/><rect class="cls-36" x="1321.49" y="343.09" width="103.2" height="85.86" rx="6.5"/><path class="cls-4" d="M1395.58,378.66a13.12,13.12,0,0,0-22.48-9.21h0a13.13,13.13,0,1,0-17.69,19.35l17.7,17.71,17.81-17.81A13.09,13.09,0,0,0,1395.58,378.66Z"/><rect class="cls-37" x="1543.87" y="1005.86" width="24.89" height="24.89" transform="translate(-264.22 1398.7) rotate(-45)"/><rect class="cls-38" x="1510.15" y="944.21" width="92.32" height="76.81" rx="5.82"/><path class="cls-4" d="M1576.44,976a11.75,11.75,0,0,0-20.12-8.24h0a11.75,11.75,0,1,0-15.82,17.32l15.83,15.84L1572.25,985A11.73,11.73,0,0,0,1576.44,976Z"/><rect class="cls-25" x="249.56" y="1244.67" width="1527.67" height="27.99" rx="5.83"/><polyline class="cls-39" points="636.14 1058.67 601.93 1048.76 615.34 1074.99 639.05 1077.13"/><polyline class="cls-12" points="715.63 1058.09 691.92 1161.48 773.94 1152.54 777.05 1090.35"/><polyline class="cls-40" points="737.3 992.49 717.18 1011.44 694.25 1059.64 631.67 1053.42 633.22 1080.24 705.91 1088.02 766.55 1031.65 773.16 1005.22"/><polyline class="cls-41" points="602.55 1082.98 551.01 1221.06 578.81 1232.98 627.68 1103.63"/><polyline class="cls-12" points="739.63 988.5 719.52 1007.45 696.58 1055.65 634 1049.43 635.55 1076.26 708.24 1084.03 768.88 1027.67 775.49 1001.24"/><polyline class="cls-42" points="744.01 1166.15 604.85 1068.97 550.42 1195.69 590.07 1211.24 616.51 1146.71 712.13 1218.24"/><polyline class="cls-43" points="743.28 1165.28 604.12 1068.09 549.69 1194.82 589.35 1210.37 615.78 1145.84 711.4 1217.36"/><polyline class="cls-44" points="570.83 1125.72 432.06 1220.76 463.35 1233.01 578.99 1157.21"/><rect class="cls-4" x="597.53" y="1016.32" width="8.75" height="58.8" transform="translate(-483.69 519.11) rotate(-34.2)"/><polyline class="cls-45" points="654.99 1072.86 622.44 1064.69 612.82 1050.8 607.57 1058.28 596.88 1046.72 590.37 1049.73 599.21 1072.95 613.2 1084.91 650.32 1096.38"/><path class="cls-11" d="M709.94,943.68A28.45,28.45,0,1,0,732,910,28.45,28.45,0,0,0,709.94,943.68Z"/><polygon class="cls-46" points="751.43 960.19 763.96 1005.47 738.97 1021.76 732.28 972.61 751.43 960.19"/><path class="cls-47" d="M711,934.45s-8.45,61.63,12.57,60.36,24.83-25.57,24.83-25.57,6.91,1.22,9.9-7.83-.43-12.7-.43-12.7l-5.13-1.22-2.72-.32,1.58-15.84Z"/><polygon class="cls-4" points="732.93 1004.3 761.92 991.92 789.84 1175.72 711.64 1179.37 732.93 1004.3"/><path class="cls-4" d="M712,980.42l20.1-3.76S723.49,996,712,980.42Z"/><path class="cls-21" d="M805,1128.44s10.5,68.81-12.82,92.13-52.87,17.88-103.4-4.66S578,1168.09,578,1168.09L491,1218.43l-30.32-34.79,109.62-69.19L751,1163.82Z"/><path class="cls-48" d="M808.41,1171.52,798,1048.23a5.67,5.67,0,0,0,.9-3.34c.07-40-40.84-54.83-40.84-54.83l-19.29,16.71-.5,25.61-25.16,43.2-77.94-7.39,2.34,30.32s73.85,11.47,83.18,7.39c5.6-2.45,11.09-7,16.39-12.63l-1.81,93.09Z"/><path class="cls-11" d="M745.46,910.86s-44.91-13.7-63.26-20.41c-35.86-13.12-42.86,32.94-21.87,44s72,4.67,90.09-2.62"/><polygon class="cls-26" points="465.2 1230.58 466.07 1247.78 372.78 1249.82 373.65 1241.66 431.28 1217.27 446.25 1225.62 465.2 1230.58"/><rect class="cls-4" x="372.97" y="1245.45" width="93.68" height="7.19"/><polygon class="cls-26" points="584.53 1227.86 585.41 1245.06 492.11 1247.1 492.99 1238.94 550.62 1214.55 565.58 1222.9 584.53 1227.86"/><rect class="cls-4" x="492.31" y="1242.73" width="93.68" height="7.19"/><path class="cls-49" d="M585.13,336.49a39.07,39.07,0,1,1-39.07-39.07A39.07,39.07,0,0,1,585.13,336.49Z"/><path class="cls-4" d="M521.69,338.39a24.42,24.42,0,0,0,48.75,0Z"/><path class="cls-4" d="M539.87,322.35a4.29,4.29,0,1,1-4.29-4.29A4.29,4.29,0,0,1,539.87,322.35Z"/><path class="cls-4" d="M560.83,322.35a4.29,4.29,0,1,1-4.29-4.29A4.29,4.29,0,0,1,560.83,322.35Z"/><path class="cls-4" d="M1670.79,1113.86A51.9,51.9,0,1,1,1618.9,1062,51.89,51.89,0,0,1,1670.79,1113.86Z"/><path class="cls-50" d="M1586.52,1116.39a32.45,32.45,0,0,0,64.76,0Z"/><path class="cls-51" d="M1610.67,1095.09a5.7,5.7,0,1,1-5.69-5.7A5.69,5.69,0,0,1,1610.67,1095.09Z"/><path class="cls-52" d="M1638.52,1095.09a5.7,5.7,0,1,1-5.7-5.7A5.7,5.7,0,0,1,1638.52,1095.09Z"/><g class="cls-53"><path class="cls-54" d="M400.55,864.5a31.88,31.88,0,1,1,31.87-31.88A31.91,31.91,0,0,1,400.55,864.5Zm0-59.09a27.22,27.22,0,1,0,27.21,27.21A27.24,27.24,0,0,0,400.55,805.41Z"/><rect class="cls-54" x="398.21" y="816.06" width="4.67" height="33.13"/><rect class="cls-54" x="383.98" y="830.29" width="33.13" height="4.66"/></g><g class="cls-53"><path class="cls-54" d="M1088.19,412.46a31.88,31.88,0,1,1,31.88-31.87A31.91,31.91,0,0,1,1088.19,412.46Zm0-59.08a27.21,27.21,0,1,0,27.21,27.21A27.24,27.24,0,0,0,1088.19,353.38Z"/><rect class="cls-54" x="1085.86" y="364.02" width="4.66" height="33.13"/><rect class="cls-54" x="1071.63" y="378.25" width="33.13" height="4.67"/></g><g class="cls-53"><path class="cls-54" d="M1651.28,840.29a31.88,31.88,0,1,1,31.87-31.87A31.91,31.91,0,0,1,1651.28,840.29Zm0-59.08a27.21,27.21,0,1,0,27.21,27.21A27.23,27.23,0,0,0,1651.28,781.21Z"/><rect class="cls-54" x="1648.94" y="791.85" width="4.66" height="33.13"/><rect class="cls-54" x="1634.71" y="806.09" width="33.13" height="4.67"/></g><path class="cls-55" d="M238,1005.27V966.93c.62,0,1.2-.07,1.78-.08,3.69,0,7.37,0,11.06,0a2.53,2.53,0,0,0,2.88-2.5c.48-3.81.95-7.63,1.34-11.45.24-2.32-.77-3.39-3.1-3.4-4,0-8,0-12,0h-1.65c0-4.66-.22-9.15.08-13.61.18-2.67,2.61-4.22,5.79-4.34,2.37-.09,4.74,0,7.1-.06s3.37-.92,3.4-3.4q0-4.46,0-8.91c0-2.35-.86-3.25-3.21-3.2-4.88.11-9.83-.11-14.63.59a17.85,17.85,0,0,0-15.47,16.13c-.53,4.79-.31,9.65-.43,14.48,0,.71,0,1.41,0,2.32H212c-2.75,0-3.63.88-3.62,3.68,0,3.52,0,7,.1,10.56,0,2.39.82,3.12,3.22,3.13h9v38.33c-.54,0-1.12.08-1.7.08q-18.24,0-36.48,0c-8.75,0-15-6.24-15-15V912.4c0-8.61,6.27-14.87,14.89-14.87h78.08a14.4,14.4,0,0,1,14.78,14.65q0,39.27,0,78.55a14.39,14.39,0,0,1-14.57,14.53c-7,0-14.09,0-21.13,0Z"/><path class="cls-56" d="M1024,311.19V286.53c.4,0,.77,0,1.15,0,2.37,0,4.74,0,7.11,0a1.63,1.63,0,0,0,1.85-1.61c.31-2.45.61-4.9.87-7.36.15-1.49-.5-2.18-2-2.19h-8.81c0-3-.14-5.89,0-8.76.11-1.72,1.68-2.72,3.73-2.8,1.52-.05,3,0,4.56,0s2.17-.59,2.19-2.19c0-1.91,0-3.82,0-5.73,0-1.51-.56-2.09-2.07-2.06a77.52,77.52,0,0,0-9.41.38,11.48,11.48,0,0,0-10,10.38c-.34,3.07-.2,6.21-.27,9.31,0,.46,0,.91,0,1.5h-5.7c-1.77,0-2.34.56-2.33,2.36,0,2.26,0,4.53.06,6.79,0,1.54.53,2,2.07,2h5.82v24.65c-.35,0-.72.06-1.09.06H988.35a9.27,9.27,0,0,1-9.63-9.63V251.45a9.26,9.26,0,0,1,9.58-9.56h50.23a9.25,9.25,0,0,1,9.51,9.42q0,25.26,0,50.53a9.25,9.25,0,0,1-9.37,9.35c-4.53,0-9.07,0-13.6,0Z"/><path class="cls-32" d="M1787.84,958.91V934.25c.4,0,.77,0,1.14,0h7.12a1.63,1.63,0,0,0,1.85-1.61c.31-2.45.61-4.91.86-7.36.16-1.5-.49-2.19-2-2.2H1788c0-3-.14-5.89,0-8.76.12-1.71,1.69-2.71,3.73-2.79,1.52-.06,3,0,4.57,0s2.17-.59,2.18-2.18c0-1.91,0-3.83,0-5.74,0-1.51-.55-2.09-2.06-2a75.63,75.63,0,0,0-9.42.37,11.49,11.49,0,0,0-10,10.38c-.34,3.08-.2,6.21-.28,9.32,0,.45,0,.9,0,1.49h-5.7c-1.77,0-2.34.57-2.33,2.36,0,2.27,0,4.53.06,6.8,0,1.54.53,2,2.08,2h5.81v24.65c-.35,0-.72.06-1.09.06h-23.47a9.27,9.27,0,0,1-9.63-9.63V899.16a9.26,9.26,0,0,1,9.58-9.56h50.24a9.25,9.25,0,0,1,9.51,9.42q0,25.28,0,50.54a9.27,9.27,0,0,1-9.38,9.35c-4.53,0-9.06,0-13.59,0Z"/><path class="cls-57" d="M1780.32,710.91c0,6.24,0,12.49,0,18.73a18.61,18.61,0,0,1-18.85,18.76q-18.68,0-37.36,0a18.55,18.55,0,0,1-18.71-16,18.32,18.32,0,0,1-.18-3q0-18.57,0-37.15a18.59,18.59,0,0,1,16-18.84,19.69,19.69,0,0,1,3.07-.18q18.57,0,37.14,0a18.56,18.56,0,0,1,18.76,15.91,21.62,21.62,0,0,1,.19,3.51C1780.33,698.79,1780.32,704.85,1780.32,710.91Zm-37.53-32.36h-18.85a13.31,13.31,0,0,0-13.47,13.52c0,12.49,0,25,0,37.48a13,13,0,0,0,2,7.13c2.84,4.47,7,6.5,12.24,6.48,12.06,0,24.11,0,36.16,0a17.59,17.59,0,0,0,3.4-.26,13.33,13.33,0,0,0,10.85-13.5q0-18.57,0-37.14a13.3,13.3,0,0,0-13.53-13.68C1755.28,678.51,1749,678.55,1742.79,678.55Z"/><path class="cls-58" d="M1742.74,690.93a19.92,19.92,0,1,1-19.89,19.88A19.86,19.86,0,0,1,1742.74,690.93Zm0,5.26a14.66,14.66,0,1,0,14.66,14.63A14.66,14.66,0,0,0,1742.76,696.19Z"/><path class="cls-59" d="M1764,694.14a4.57,4.57,0,1,1,4.6-4.48A4.52,4.52,0,0,1,1764,694.14Z"/><path class="cls-60" d="M1251.05,238.47c0,9.33.07,18.67,0,28a27.68,27.68,0,0,1-23.73,27.74,27.4,27.4,0,0,1-4.43.29q-27.93,0-55.85,0c-14.37,0-25.67-9.7-28-23.86a28.62,28.62,0,0,1-.27-4.44q0-27.75,0-55.51c0-14.49,9.6-25.83,23.83-28.17a29.37,29.37,0,0,1,4.6-.27q27.75,0,55.51,0c14.37,0,25.71,9.62,28,23.78a32.88,32.88,0,0,1,.29,5.26C1251.07,220.35,1251.05,229.41,1251.05,238.47ZM1195,190.11v0h-27.18l-1,0c-11.49.18-20.1,8.76-20.13,20.21-.06,18.68,0,37.35,0,56a19.46,19.46,0,0,0,2.91,10.66c4.25,6.68,10.44,9.71,18.31,9.69,18-.05,36,0,54,0a26.06,26.06,0,0,0,5.08-.4c9.76-2,16.21-10,16.23-20.16q.06-27.77,0-55.53c0-11.68-8.58-20.34-20.24-20.45C1213.63,190,1204.29,190.11,1195,190.11Z"/><path class="cls-61" d="M1194.89,208.6a29.78,29.78,0,1,1-29.74,29.72A29.7,29.7,0,0,1,1194.89,208.6Zm0,7.86a21.91,21.91,0,1,0,21.91,21.87A21.92,21.92,0,0,0,1194.91,216.46Z"/><path class="cls-62" d="M1226.7,213.4a6.82,6.82,0,1,1,6.88-6.69A6.77,6.77,0,0,1,1226.7,213.4Z"/><g class="cls-53"><path class="cls-54" d="M353.71,468c0,9.34.06,18.67,0,28-.12,14.25-9.71,25.42-23.74,27.74a28.43,28.43,0,0,1-4.43.29q-27.91,0-55.84,0c-14.37,0-25.68-9.7-28-23.87a28.42,28.42,0,0,1-.27-4.43q0-27.76,0-55.52c0-14.49,9.6-25.82,23.84-28.16a28.09,28.09,0,0,1,4.59-.27q27.76,0,55.52,0c14.37,0,25.7,9.63,28,23.79a34,34,0,0,1,.29,5.25Q353.73,454.4,353.71,468Zm-56.1-48.36H269.44c-11.49.19-20.1,8.76-20.14,20.22-.05,18.67,0,37.35,0,56a19.42,19.42,0,0,0,2.91,10.66c4.25,6.68,10.44,9.71,18.31,9.69,18-.06,36,0,54,0a26.18,26.18,0,0,0,5.08-.39c9.75-2,16.2-10,16.23-20.17q.06-27.76,0-55.52c0-11.68-8.59-20.34-20.24-20.45C316.28,419.56,307,419.63,297.61,419.63Z"/><path class="cls-54" d="M297.54,438.13a29.77,29.77,0,1,1-29.73,29.71A29.7,29.7,0,0,1,297.54,438.13Zm0,7.86a21.91,21.91,0,1,0,21.91,21.86A21.92,21.92,0,0,0,297.57,446Z"/><path class="cls-54" d="M329.36,442.92a6.82,6.82,0,1,1,6.87-6.69A6.76,6.76,0,0,1,329.36,442.92Z"/></g></g></g></svg>