<svg xmlns="http://www.w3.org/2000/svg" xmlns:xlink="http://www.w3.org/1999/xlink" viewBox="0 0 1000 1000"><defs><style>.cls-1,.cls-21,.cls-22,.cls-9{fill:none;}.cls-2{fill:#324a79;}.cls-3{isolation:isolate;}.cls-4{fill:#2394a3;}.cls-5{clip-path:url(#clip-path);}.cls-6{fill:#fdbb45;}.cls-68,.cls-7,.cls-70{fill:#fff;}.cls-28,.cls-8{fill:#e6e7e8;}.cls-9{stroke:#d1d3d4;stroke-width:9px;}.cls-21,.cls-22,.cls-9{stroke-miterlimit:10;}.cls-10{fill:#f58757;}.cls-11{fill:#181e3c;}.cls-12{fill:#9dce76;}.cls-13{fill:url(#linear-gradient);}.cls-14{fill:#f1f2f2;}.cls-15{fill:url(#linear-gradient-2);}.cls-16{fill:url(#linear-gradient-3);}.cls-17{fill:url(#linear-gradient-4);}.cls-18{fill:url(#linear-gradient-5);}.cls-19{fill:#57bda3;}.cls-20{fill:#2f3068;}.cls-21,.cls-22{stroke:#fff;}.cls-21{stroke-width:4px;}.cls-22{stroke-width:2px;}.cls-23{fill:url(#linear-gradient-6);}.cls-24{fill:#20100e;}.cls-25{fill:url(#linear-gradient-7);}.cls-26{fill:url(#linear-gradient-8);}.cls-27{fill:#ee866e;}.cls-28,.cls-44,.cls-64,.cls-65{mix-blend-mode:multiply;}.cls-29{fill:url(#linear-gradient-9);}.cls-30{fill:#f7941d;}.cls-31{fill:url(#linear-gradient-10);}.cls-32{fill:url(#linear-gradient-11);}.cls-33{fill:url(#linear-gradient-12);}.cls-34{fill:url(#linear-gradient-13);}.cls-35{fill:url(#linear-gradient-14);}.cls-36{fill:url(#linear-gradient-15);}.cls-37{clip-path:url(#clip-path-2);}.cls-38{clip-path:url(#clip-path-3);}.cls-39{fill:url(#linear-gradient-16);}.cls-40{fill:url(#linear-gradient-17);}.cls-41{fill:url(#linear-gradient-18);}.cls-42{fill:url(#linear-gradient-19);}.cls-43{fill:#c49a6c;}.cls-44{fill:url(#linear-gradient-20);}.cls-45{fill:url(#linear-gradient-21);}.cls-46{fill:url(#linear-gradient-22);}.cls-47{fill:url(#linear-gradient-23);}.cls-48{fill:url(#linear-gradient-24);}.cls-49{fill:#2c325a;}.cls-50{fill:url(#linear-gradient-25);}.cls-51{fill:url(#linear-gradient-26);}.cls-52{fill:url(#linear-gradient-27);}.cls-53{fill:url(#linear-gradient-28);}.cls-54{fill:url(#linear-gradient-29);}.cls-55{fill:url(#linear-gradient-30);}.cls-56{fill:url(#linear-gradient-31);}.cls-57{fill:url(#linear-gradient-32);}.cls-58{fill:url(#linear-gradient-33);}.cls-59{fill:url(#linear-gradient-34);}.cls-60{fill:url(#linear-gradient-35);}.cls-61{fill:url(#linear-gradient-36);}.cls-62{fill:url(#linear-gradient-37);}.cls-63{fill:url(#linear-gradient-38);}.cls-65{fill:url(#linear-gradient-39);}.cls-66{fill:url(#linear-gradient-40);}.cls-67{fill:url(#linear-gradient-41);}.cls-68{opacity:0.6;}.cls-69{fill:url(#linear-gradient-42);}.cls-70,.cls-71{opacity:0.4;}.cls-71{mix-blend-mode:darken;}.cls-72{fill:#d1d3d4;}.cls-73{clip-path:url(#clip-path-4);}.cls-74{clip-path:url(#clip-path-5);}.cls-75{fill:url(#linear-gradient-43);}.cls-76{fill:url(#linear-gradient-44);}.cls-77{fill:url(#linear-gradient-45);}.cls-78{fill:url(#linear-gradient-46);}.cls-79{fill:url(#linear-gradient-47);}.cls-80{fill:url(#linear-gradient-48);}.cls-81{fill:url(#linear-gradient-49);}.cls-82{fill:url(#linear-gradient-50);}.cls-83{fill:url(#linear-gradient-51);}.cls-84{fill:url(#linear-gradient-52);}.cls-85{fill:url(#linear-gradient-53);}.cls-86{fill:url(#linear-gradient-54);}.cls-87{fill:url(#linear-gradient-55);}.cls-88{fill:url(#linear-gradient-56);}.cls-89{fill:url(#linear-gradient-57);}.cls-90{fill:url(#linear-gradient-58);}.cls-91{fill:url(#linear-gradient-59);}.cls-92{fill:url(#linear-gradient-60);}.cls-93{fill:#9e9ece;}</style><clipPath id="clip-path"><path class="cls-1" d="M835,33.57,518.54,211.48l-9.39-16.7L825.57,16.87Zm7.51,13.35L526.05,224.83l9.38,16.7L851.86,63.62ZM859.37,77,543,254.89l9.38,16.69L868.76,93.67ZM876.26,107,559.84,284.94l9.39,16.7L885.65,123.73Zm16.9,30.06L576.74,315l9.39,16.69L902.55,153.78Zm16.9,30L593.63,345.05l9.39,16.7L919.45,183.83ZM927,197.19,610.54,375.1l9.38,16.7L936.35,213.89Zm16.9,30.05L627.43,405.15l9.39,16.7L953.24,243.94Z"/></clipPath><linearGradient id="linear-gradient" x1="125.25" y1="713.58" x2="174.75" y2="713.58" gradientUnits="userSpaceOnUse"><stop offset="0" stop-color="#1c75bc"/><stop offset="1" stop-color="#63be6a"/></linearGradient><linearGradient id="linear-gradient-2" x1="2144.26" y1="176.26" x2="2256.93" y2="176.26" gradientTransform="matrix(-1, 0, 0, 1, 2737.16, 0)" xlink:href="#linear-gradient"/><linearGradient id="linear-gradient-3" x1="170.83" y1="530.9" x2="838.4" y2="530.9" gradientUnits="userSpaceOnUse"><stop offset="0" stop-color="#57bda3"/><stop offset="0.68" stop-color="#2394a3"/></linearGradient><linearGradient id="linear-gradient-4" x1="570.49" y1="527.04" x2="794.65" y2="527.04" gradientUnits="userSpaceOnUse"><stop offset="0" stop-color="#fff"/><stop offset="1" stop-color="#2f3068" stop-opacity="0"/></linearGradient><linearGradient id="linear-gradient-5" x1="-640.19" y1="-1668.16" x2="-416.02" y2="-1668.16" gradientTransform="translate(2148.64 -108.21) rotate(-90)" xlink:href="#linear-gradient-4"/><linearGradient id="linear-gradient-6" x1="294.98" y1="194.59" x2="445.31" y2="194.59" xlink:href="#linear-gradient-3"/><linearGradient id="linear-gradient-7" x1="2474.46" y1="2977.9" x2="2535.94" y2="2977.9" gradientTransform="matrix(0.8, 0.6, -0.6, 0.8, 150.46, -3336.58)" gradientUnits="userSpaceOnUse"><stop offset="0.1" stop-color="#ffda8b"/><stop offset="0.25" stop-color="#fed589"/><stop offset="0.41" stop-color="#fdc884"/><stop offset="0.59" stop-color="#fab27c"/><stop offset="0.77" stop-color="#f79371"/><stop offset="0.95" stop-color="#f26c62"/><stop offset="1" stop-color="#f15f5d"/></linearGradient><linearGradient id="linear-gradient-8" x1="387.93" y1="316.28" x2="316.94" y2="275.3" gradientTransform="matrix(1, 0.02, -0.02, 1, 5.58, 43.49)" xlink:href="#linear-gradient-7"/><linearGradient id="linear-gradient-9" x1="369.02" y1="262.9" x2="369.02" y2="220.97" gradientTransform="matrix(1, 0.02, -0.02, 1, 5.58, 43.49)" xlink:href="#linear-gradient-7"/><linearGradient id="linear-gradient-10" x1="-1957.74" y1="-113.98" x2="-1917.48" y2="-113.98" gradientTransform="translate(-177.37 2109.56) rotate(104.67)" xlink:href="#linear-gradient-7"/><linearGradient id="linear-gradient-11" x1="-1329.3" y1="2307.59" x2="-1289.04" y2="2307.59" gradientTransform="matrix(0.25, 0.97, 0.97, -0.25, -1585.36, 2109.56)" xlink:href="#linear-gradient-7"/><linearGradient id="linear-gradient-12" x1="210.79" y1="522.52" x2="517.24" y2="522.52" xlink:href="#linear-gradient"/><linearGradient id="linear-gradient-13" x1="894.06" y1="740.84" x2="955.52" y2="740.84" gradientTransform="matrix(0.99, 0.12, -0.12, 0.99, -393.4, -326.55)" xlink:href="#linear-gradient-7"/><linearGradient id="linear-gradient-14" x1="338.4" y1="478.83" x2="453.7" y2="478.83" gradientUnits="userSpaceOnUse"><stop offset="0.52" stop-color="#324a79"/><stop offset="1" stop-color="#0f1329"/></linearGradient><linearGradient id="linear-gradient-15" x1="219.01" y1="327.15" x2="266.51" y2="327.15" xlink:href="#linear-gradient-14"/><clipPath id="clip-path-2"><path class="cls-1" d="M233.34,254.25a15,15,0,0,1,16.95,12.82l16.08,115.85a15,15,0,0,1-12.82,16.94l-1.37.2a15,15,0,0,1-17-12.82L219.15,271.39A15,15,0,0,1,232,254.44Z"/></clipPath><clipPath id="clip-path-3"><path class="cls-1" d="M162.83,286.68a15,15,0,0,1,21.23.91l79.1,86.15a15,15,0,0,1-.9,21.23l-1,.93A15,15,0,0,1,240,395l-79.1-86.15a15,15,0,0,1,.9-21.23Z"/></clipPath><linearGradient id="linear-gradient-16" x1="156.95" y1="341.29" x2="267.12" y2="341.29" xlink:href="#linear-gradient"/><linearGradient id="linear-gradient-17" x1="-83.69" y1="-2823.3" x2="10.42" y2="-2823.3" gradientTransform="translate(2930.94 -334.14) rotate(-103.63)" gradientUnits="userSpaceOnUse"><stop offset="0" stop-color="#f6895d"/><stop offset="0.95" stop-color="#fdbb45"/></linearGradient><linearGradient id="linear-gradient-18" x1="1197.15" y1="981.09" x2="1229.87" y2="981.09" gradientTransform="translate(1806.65 -627) rotate(90)" gradientUnits="userSpaceOnUse"><stop offset="0.16" stop-color="#ffda8b"/><stop offset="0.33" stop-color="#fdc784"/><stop offset="0.66" stop-color="#f79772"/><stop offset="1" stop-color="#f15f5d"/></linearGradient><linearGradient id="linear-gradient-19" x1="798.41" y1="588" x2="859.39" y2="588" gradientTransform="matrix(1, 0, 0, 1, 0, 0)" xlink:href="#linear-gradient-18"/><linearGradient id="linear-gradient-20" x1="744.85" y1="597.08" x2="920.63" y2="597.08" gradientUnits="userSpaceOnUse"><stop offset="0" stop-color="#00aeef"/><stop offset="1" stop-color="#231f20" stop-opacity="0.8"/></linearGradient><linearGradient id="linear-gradient-21" x1="806.71" y1="579.06" x2="850.26" y2="579.06" gradientTransform="matrix(1, 0, 0, 1, 0, 0)" xlink:href="#linear-gradient-18"/><linearGradient id="linear-gradient-22" x1="3727.27" y1="3641.64" x2="3640.94" y2="3640.88" gradientTransform="matrix(0.04, -1, -1, -0.04, 3956.6, 4359.04)" gradientUnits="userSpaceOnUse"><stop offset="0" stop-color="#fdce86"/><stop offset="0.16" stop-color="#ffda8b"/><stop offset="0.33" stop-color="#fdc784"/><stop offset="0.66" stop-color="#f79772"/><stop offset="1" stop-color="#f15f5d"/></linearGradient><linearGradient id="linear-gradient-23" x1="3735.59" y1="3632.91" x2="3779.13" y2="3632.91" gradientTransform="matrix(0.04, -1, -1, -0.04, 3956.6, 4359.04)" xlink:href="#linear-gradient-18"/><linearGradient id="linear-gradient-24" x1="562.97" y1="747.27" x2="800.32" y2="747.27" xlink:href="#linear-gradient-14"/><linearGradient id="linear-gradient-25" x1="1159.88" y1="47.55" x2="1214.44" y2="47.55" gradientTransform="matrix(-1, 0.08, 0.08, 1, 1788.21, 308.08)" gradientUnits="userSpaceOnUse"><stop offset="0" stop-color="#ffda8b"/><stop offset="0.2" stop-color="#fdc784"/><stop offset="0.59" stop-color="#f79772"/><stop offset="1" stop-color="#f15f5d"/></linearGradient><linearGradient id="linear-gradient-26" x1="-7862.39" y1="62.51" x2="-7856.33" y2="-54.42" gradientTransform="matrix(1, -0.08, 0.08, 1, 8448.7, -249.01)" xlink:href="#linear-gradient-18"/><linearGradient id="linear-gradient-27" x1="1178.02" y1="30.56" x2="1178.02" y2="16.29" gradientTransform="matrix(-1, 0.08, 0.08, 1, 1788.21, 308.08)" gradientUnits="userSpaceOnUse"><stop offset="0" stop-color="#ffda8b" stop-opacity="0"/><stop offset="0.11" stop-color="#fed087" stop-opacity="0.08"/><stop offset="0.33" stop-color="#fbb87e" stop-opacity="0.28"/><stop offset="0.65" stop-color="#f7906f" stop-opacity="0.6"/><stop offset="1" stop-color="#f15f5d"/></linearGradient><linearGradient id="linear-gradient-28" x1="1151" y1="28.09" x2="1151" y2="18" xlink:href="#linear-gradient-27"/><linearGradient id="linear-gradient-29" x1="565.13" y1="496.86" x2="652.02" y2="496.86" gradientUnits="userSpaceOnUse"><stop offset="0.1" stop-color="#f6895d"/><stop offset="0.95" stop-color="#f16680"/></linearGradient><linearGradient id="linear-gradient-30" x1="568.58" y1="511.55" x2="655.47" y2="511.55" xlink:href="#linear-gradient-29"/><linearGradient id="linear-gradient-31" x1="572.03" y1="526.24" x2="658.91" y2="526.24" xlink:href="#linear-gradient-29"/><linearGradient id="linear-gradient-32" x1="575.48" y1="540.94" x2="662.36" y2="540.94" xlink:href="#linear-gradient-29"/><linearGradient id="linear-gradient-33" x1="578.92" y1="555.63" x2="665.81" y2="555.63" xlink:href="#linear-gradient-29"/><linearGradient id="linear-gradient-34" x1="582.37" y1="570.32" x2="669.26" y2="570.32" xlink:href="#linear-gradient-29"/><linearGradient id="linear-gradient-35" x1="585.82" y1="585.02" x2="672.7" y2="585.02" xlink:href="#linear-gradient-29"/><linearGradient id="linear-gradient-36" x1="589.26" y1="599.71" x2="676.15" y2="599.71" xlink:href="#linear-gradient-29"/><linearGradient id="linear-gradient-37" x1="592.71" y1="614.4" x2="679.6" y2="614.4" xlink:href="#linear-gradient-29"/><linearGradient id="linear-gradient-38" x1="596.16" y1="629.09" x2="683.05" y2="629.09" xlink:href="#linear-gradient-29"/><linearGradient id="linear-gradient-39" x1="745.46" y1="458.09" x2="921.25" y2="458.09" gradientUnits="userSpaceOnUse"><stop offset="0" stop-color="#fff"/><stop offset="1" stop-color="#231f20" stop-opacity="0.8"/></linearGradient><linearGradient id="linear-gradient-40" x1="865.11" y1="458.09" x2="948.58" y2="458.09" xlink:href="#linear-gradient-39"/><linearGradient id="linear-gradient-41" x1="872.86" y1="407.78" x2="946.83" y2="407.78" xlink:href="#linear-gradient"/><linearGradient id="linear-gradient-42" x1="700.11" y1="322.62" x2="762.83" y2="322.62" gradientUnits="userSpaceOnUse"><stop offset="0" stop-color="#f89420"/><stop offset="1" stop-color="#f04f36"/></linearGradient><clipPath id="clip-path-4"><path class="cls-2" d="M107.12,558.5a72.68,72.68,0,0,0,145.35,0Z"/></clipPath><clipPath id="clip-path-5"><path class="cls-1" d="M791.5,732.25a39.28,39.28,0,0,0,78.56,0Z"/></clipPath><linearGradient id="linear-gradient-43" x1="826.05" y1="718.98" x2="865.75" y2="718.98" xlink:href="#linear-gradient-29"/><linearGradient id="linear-gradient-44" x1="800.72" y1="735.7" x2="834.33" y2="735.7" xlink:href="#linear-gradient-29"/><linearGradient id="linear-gradient-45" x1="830.66" y1="718.33" x2="832.13" y2="718.33" xlink:href="#linear-gradient-29"/><linearGradient id="linear-gradient-46" x1="791.75" y1="748.75" x2="803.81" y2="748.75" xlink:href="#linear-gradient-29"/><linearGradient id="linear-gradient-47" x1="803.34" y1="745.4" x2="805.25" y2="745.4" xlink:href="#linear-gradient-29"/><linearGradient id="linear-gradient-48" x1="794.01" y1="758.67" x2="796.54" y2="758.67" xlink:href="#linear-gradient-29"/><linearGradient id="linear-gradient-49" x1="808.47" y1="728.21" x2="811.03" y2="728.21" xlink:href="#linear-gradient-29"/><linearGradient id="linear-gradient-50" x1="782.35" y1="759.15" x2="794.11" y2="759.15" xlink:href="#linear-gradient-29"/><linearGradient id="linear-gradient-51" x1="792.03" y1="776.69" x2="800.24" y2="776.69" xlink:href="#linear-gradient-29"/><linearGradient id="linear-gradient-52" x1="800.8" y1="750.76" x2="883.97" y2="750.76" xlink:href="#linear-gradient-29"/><linearGradient id="linear-gradient-53" x1="276.36" y1="648" x2="304.42" y2="648" gradientUnits="userSpaceOnUse"><stop offset="0" stop-color="#f15f5d"/><stop offset="1" stop-color="#ffda8b"/></linearGradient><linearGradient id="linear-gradient-54" x1="292.17" y1="654.7" x2="312.9" y2="654.7" xlink:href="#linear-gradient-53"/><linearGradient id="linear-gradient-55" x1="280.78" y1="621.64" x2="297.95" y2="621.64" xlink:href="#linear-gradient-53"/><linearGradient id="linear-gradient-56" x1="291.09" y1="699.97" x2="410.22" y2="699.97" xlink:href="#linear-gradient-14"/><linearGradient id="linear-gradient-57" x1="-4310.29" y1="-278.83" x2="-4271.06" y2="-263.94" gradientTransform="matrix(-0.98, 0.19, 0.19, 0.98, -3714.04, 1708.68)" xlink:href="#linear-gradient-53"/><linearGradient id="linear-gradient-58" x1="-4274.92" y1="-252.66" x2="-4269.75" y2="-352.63" gradientTransform="matrix(-0.98, 0.19, 0.19, 0.98, -3714.04, 1708.68)" gradientUnits="userSpaceOnUse"><stop offset="0" stop-color="#fff"/><stop offset="0.05" stop-color="#fffefa"/><stop offset="0.11" stop-color="#fff9ed"/><stop offset="0.17" stop-color="#fff2d7"/><stop offset="0.23" stop-color="#ffe8b8"/><stop offset="0.29" stop-color="#ffdc91"/><stop offset="0.3" stop-color="#ffda8b"/><stop offset="0.43" stop-color="#fdc784"/><stop offset="0.71" stop-color="#f79772"/><stop offset="1" stop-color="#f15f5d"/></linearGradient><linearGradient id="linear-gradient-59" x1="-2478.62" y1="793.79" x2="-2423.14" y2="793.79" gradientTransform="translate(2752.38)" gradientUnits="userSpaceOnUse"><stop offset="0.09" stop-color="#ffda8b"/><stop offset="0.27" stop-color="#ffd68a"/><stop offset="0.43" stop-color="#fdcb85"/><stop offset="0.59" stop-color="#fbb87e"/><stop offset="0.74" stop-color="#f89e74"/><stop offset="0.89" stop-color="#f47c68"/><stop offset="1" stop-color="#f15f5d"/></linearGradient><linearGradient id="linear-gradient-60" x1="325.39" y1="733.8" x2="485.22" y2="733.8" xlink:href="#linear-gradient-14"/></defs><g class="cls-3"><g id="Layer_1" data-name="Layer 1"><path class="cls-4" d="M857.21,222.45a118.69,118.69,0,1,1-118.69-118.7A118.7,118.7,0,0,1,857.21,222.45Z"/><g class="cls-5"><path class="cls-2" d="M857.21,222.45a118.69,118.69,0,1,1-118.69-118.7A118.7,118.7,0,0,1,857.21,222.45Z"/></g><circle class="cls-6" cx="800.88" cy="354.53" r="76.91" transform="translate(-46.13 131.66) rotate(-9.14)"/><path class="cls-6" d="M701,300a78.32,78.32,0,1,1-78.32-78.32A78.32,78.32,0,0,1,701,300Z"/><path class="cls-7" d="M739.73,327.41a38,38,0,1,1-38-38A37.95,37.95,0,0,1,739.73,327.41Z"/><path class="cls-8" d="M167.61,236.69a153.22,153.22,0,0,0,2.91,216.67l45.38-46.62a88.17,88.17,0,0,1,123-126.35l45.39-46.61A153.23,153.23,0,0,0,167.61,236.69Z"/><rect class="cls-9" x="156.7" y="422.17" width="204.28" height="204.28" transform="translate(-294.93 336.59) rotate(-45)"/><rect class="cls-10" x="129.38" y="795.72" width="46.38" height="8.17" transform="translate(-9.82 1.94) rotate(-0.7)"/><path class="cls-11" d="M175.86,808l-.05-4.36-46.38.57.06,4.36,2.74,0a20.41,20.41,0,0,0,7.19,25.36l0,3.79,27.14-.34,0-3.78.22-.17a20.39,20.39,0,0,0,8.21-14,18.11,18.11,0,0,0,.14-1.82c0-.31,0-.62,0-.94a20.28,20.28,0,0,0-2-8.63Z"/><path class="cls-12" d="M157.41,780.43a149.61,149.61,0,0,0-.42-24.24c-1.32-13.29.07-14.32,7.89-27.36s4.93-19.22,9.62-29.31,2.63-7.25,12.13-15.07,20.29-6.46,23.62-17c0,0-3.33,21.85-6.74,35.47s-4,19.56-11.35,25.6-9.54,9.35-11.47,24.53-13.24,28-17.11,30.18S157.41,780.43,157.41,780.43Z"/><path class="cls-13" d="M160.2,777.87l11.42-37s4.67-18.22,2.6-22.57S161.7,700,160,693.8s-1.1-14-.7-23.25-8.91-31.28-9.28-34.31-1.94,21.72-7.15,30.5-11.36,10-9.4,19.72-5.24,18.6-6.67,25.68a66,66,0,0,0,3,38.46c6.77,17.58,13.41,37.76,20.78,40.23S160,781.27,160.2,777.87Z"/><path class="cls-12" d="M143.15,784.49s7.8-13.25,4.06-20.9-11.66-6.15-12.13-20.53,3.37-16.42-.44-23.58-16.33-18.07-33-15.63S74.75,732,74.75,732s14.15-17,21.72-11.44,6.86,6.53,6.71,12.14,8.78,14.46,14.15,18.75.92,7.38,1.72,19.25S133.06,788.79,143.15,784.49Z"/><path class="cls-14" d="M152.22,779.46a88.77,88.77,0,0,0-1.34-13.58c-.84-4.29-1.75-14.74-2.64-24.86-.48-5.47-1-11.12-1.45-15.72-.61-5.86-1.06-9.22-1.5-12.47-.55-4.06-1.07-7.9-1.83-16.14-1.39-15,6.59-27.45,6.93-28l1.19.78c-.08.12-8,12.61-6.7,27.07.75,8.21,1.27,12,1.82,16.08.44,3.26.9,6.63,1.51,12.51.47,4.61,1,10.28,1.45,15.75.88,10.08,1.79,20.5,2.61,24.71a90.68,90.68,0,0,1,1.38,13.83Z"/><path class="cls-7" d="M162.54,776.21l-1.39-.31c1.9-8.63,15.8-51.65,20-57.19,4-5.3,14.36-29.32,14.46-29.56l1.31.56c-.43,1-10.52,24.43-14.64,29.86C178.39,724.72,164.7,766.4,162.54,776.21Z"/><path class="cls-11" d="M818.29,331.9a85.45,85.45,0,1,1-85.44-85.45A85.44,85.44,0,0,1,818.29,331.9Z"/><path class="cls-6" d="M771.77,587.37c-.65-3.3-1.29-6.41-1.87-9.35s-.95-5.72-1.41-8.28-.85-4.91-1.09-7c-.39-2.81-.71-5.17-.95-7.16,4.32-5.4,34.94-46.95-.36-96.44,0,0-48.69,45.09-.6,96.54-.07,2-.12,4.38-.1,7.19,0,4.35.21,9.63.54,15.69.23,3,.49,6.23.77,9.61s1.15,6.88,1.75,10.57c.55,2.85,1.08,5.84,1.67,8.88L761.76,599c-1.52-1.57-3-3.15-4.49-4.6l-1.6-1.54c-.91-74.39-55.32-78.31-55.32-78.31,10.68,77.25,42.84,80.17,52.54,79.22l2.59,2.49,4.47,4.57,8.34,8.58c.32.27.49.64.84.83l.94.56.8.46c.83,3.57,1.68,7.21,2.54,11,.5,2.08.94,4.2,1.51,6.31s1.2,4.24,1.8,6.39c1.23,4.31,2.49,8.72,3.76,13.2,1.45,4.49,2.85,8.89,4.45,13.43.77,2.15,1.56,4.32,2.34,6.48a17.78,17.78,0,0,0-1.18-1.6l-2.29-2.93-4.5-5.77-4.2-4.84a9.52,9.52,0,0,0-.88-1c-.35-.26-.7-.49-1-.73s-.54-.34-.8-.51c-2.95-11.22-18-55.09-74.76-58.56,0,0,4.41,66.12,74.51,61.21.06.12.12.22.17.34a9.79,9.79,0,0,0,.87,1c1.21,1.38,2.61,3,4.13,4.74s2.92,3.74,4.43,5.7L784,668a29.23,29.23,0,0,1,2,2.88l3.45,5.26a6.4,6.4,0,0,0,.74,1.1l.55.51c3.06,8.31,6.16,16.66,8.73,25.16,1.53,4.65,2.68,9.39,3.91,14.08.59,2.36,1,4.75,1.5,7.1s1,4.72,1.3,7.1c.07.54.14,1.06.22,1.61-.21-.31-.41-.62-.63-.92a48.61,48.61,0,0,0-3.06-4.07c-1.06-1.43-2.38-2.7-3.61-4.11s-2.67-2.63-4.13-3.84c-1.39-1.05-2.72-2.21-4.2-3.13.31-.15.61-.26.94-.4,0,0-24.7-52-82.21-34.82,0,0,21.32,60.36,78.43,36.45l1.06.67a45.76,45.76,0,0,1,4.31,3.2c1.39,1.16,2.67,2.44,3.95,3.67s2.44,2.56,3.45,3.94a48.89,48.89,0,0,1,3,3.91c.93,1.27,1.68,2.53,2.41,3.68.39.57.6,1.2,1,1.69.06.07.1.15.16.22.27,2.13.52,4.27.63,6.4.17,2.34.37,4.66.55,7s.08,4.65.13,6.92.08,4.56.12,6.8-.17,4.49-.26,6.69c-.21,4.41-.29,8.72-.78,12.9s-.8,8.26-1.18,12.21c-.14.93-.27,1.84-.41,2.76-.31-.84-.65-1.68-1-2.51a38.81,38.81,0,0,0-5.94-9.19c-.26-.26-.4-.62-.71-.8s-.59-.35-.87-.51-.66-.35-1-.51c-1.26-5.95-12.12-49.36-61.47-48.47,0,0,3.87,58.14,60.49,49.31l.51,1,.42.87c.15.29.46.47.66.75a36.29,36.29,0,0,1,5.54,8.6,29.14,29.14,0,0,1,1.85,5.11,19.27,19.27,0,0,1,.55,2.44,2,2,0,0,1,0,.34l-.3,2.12c-.27,1.82-.54,3.61-.81,5.35s-.66,3.41-.84,5.09c-.4,3.34-.8,6.5-1.17,9.47-.65,6-1.55,11.14-2.25,15.4-1.37,8.54-2.06,13.46-2.06,13.46s1.48-4.72,3.94-13c1.22-4.17,2.77-9.21,4.17-15.09.52-2,1.06-4.16,1.62-6.35l.52-.33.86-.57c.31-.18.46-.56.75-.82a14.49,14.49,0,0,1,1.67-1.8l2.08-1.8c.74-.63,1.44-1.32,2.24-1.94s1.68-1.12,2.52-1.69a19.74,19.74,0,0,1,2.58-1.6c.89-.47,1.77-.93,2.6-1.35a20.21,20.21,0,0,1,2.53-1.1c.82-.3,1.56-.68,2.29-.87a7.36,7.36,0,0,0,1.06-.31l.44-.3c10.37,1.46,58,5,82.95-47.18,0,0-62.28-20.53-84.39,45.07a8.72,8.72,0,0,1-.86.27c-.78.22-1.57.6-2.44.91a24.53,24.53,0,0,0-2.67,1.16l-2.77,1.45a22.84,22.84,0,0,0-2.73,1.69c-.9.59-1.78,1.2-2.66,1.8s-1.6,1.37-2.38,2l-2.18,1.92a6,6,0,0,0-.91.91c.62-2.88.89-5.94,1.4-9.07q.79-5.53,1.67-11.5c.37-4,.78-8.14,1.19-12.39s.59-8.66.79-13.15c.09-2.24.17-4.52.27-6.81,0-1.17,0-2.38-.06-3.57l.38-.2c.23-.13.29-.42.49-.6,1.31-1.68,3.08-3.92,4.81-6.15l4.82-6.16a4.94,4.94,0,0,1,.34-.41c12.55-3.4,54.41-18.83,58.19-74.07,0,0-66.4,3.93-61.75,74.42L817.46,754l-3.73,4.75c0-2.2,0-4.42-.13-6.66s-.38-4.77-.56-7.17c-.24-4.82-1-9.64-1.72-14.53-.29-2.44-.86-4.84-1.33-7.28s-.93-4.89-1.54-7.3c-1-3.58-1.89-7.19-2.92-10.76,0-.4,0-.8,0-1.23,0-2.32-.23-5-.07-7.93s.17-6,.42-9.16c.36-6.22,1-12.44,1.49-17.11,0-.59.2-1.13.17-1.67l-.06-.86c6-3.95,49.68-35.08,22.19-89.87,0,0-59.94,47.76-24.17,88.79l0,.17c-.16.47-.3,1-.47,1.49s-.08,1.09-.18,1.68c-.51,4.69-1.14,10.94-1.5,17.22-.26,3.14-.31,6.3-.41,9.26,0,.22,0,.42,0,.64-2.55-7.83-5.41-15.47-8.17-23-1.7-4.55-3.3-9.07-4.88-13.5s-3-9-4.43-13.33c-1.25-4.41-2.49-8.77-3.7-13q-.9-3.19-1.8-6.32c-.55-2.09-1-4.18-1.47-6.23-.85-3.68-1.67-7.25-2.48-10.74a23.47,23.47,0,0,1,.23-3.1,39.14,39.14,0,0,1,.58-4c.23-1.33.55-2.65.91-3.95s.78-2.51,1.16-3.72a56.19,56.19,0,0,1,2.75-6.37c.2-.47.52-.84.67-1.29l.4-1.28,0-.09c9.78-4.39,40.8-21.8,27.23-61.23,0,0-45.45,16.65-30.24,61.91a5.86,5.86,0,0,1-.38.8,57.44,57.44,0,0,0-2.9,6.68c-.39,1.28-.88,2.55-1.21,3.91-.34,1.2-.6,2.41-.83,3.65-.28-1.5-.53-3-.81-4.43C772.81,594.16,772.38,590.67,771.77,587.37Z"/><path class="cls-15" d="M480.23,248.14H592.9L480.31,104.37Zm22.27-22.26,0-57,44.65,57Z"/><path class="cls-7" d="M557.05,240.43a.42.42,0,0,1,.42.43v5.84a.43.43,0,1,1-.85,0v-5.84A.43.43,0,0,1,557.05,240.43Z"/><path class="cls-7" d="M571,240.43a.42.42,0,0,1,.42.43v5.84a.42.42,0,0,1-.42.43.43.43,0,0,1-.43-.43v-5.84A.43.43,0,0,1,571,240.43Z"/><path class="cls-7" d="M559.83,242.57a.42.42,0,0,1,.42.42v3.71a.43.43,0,1,1-.85,0V243A.42.42,0,0,1,559.83,242.57Z"/><path class="cls-7" d="M562.61,242.57a.42.42,0,0,1,.43.42v3.71a.43.43,0,0,1-.43.43.43.43,0,0,1-.43-.43V243A.43.43,0,0,1,562.61,242.57Z"/><path class="cls-7" d="M565.39,242.57a.42.42,0,0,1,.43.42v3.71a.43.43,0,1,1-.85,0V243A.42.42,0,0,1,565.39,242.57Z"/><path class="cls-7" d="M568.18,242.57a.42.42,0,0,1,.42.42v3.71a.43.43,0,1,1-.85,0V243A.42.42,0,0,1,568.18,242.57Z"/><path class="cls-7" d="M554.26,242.57a.42.42,0,0,1,.43.42v3.71a.43.43,0,1,1-.85,0V243A.42.42,0,0,1,554.26,242.57Z"/><path class="cls-7" d="M551.48,242.57a.42.42,0,0,1,.43.42v3.71a.43.43,0,0,1-.43.43.43.43,0,0,1-.43-.43V243A.43.43,0,0,1,551.48,242.57Z"/><path class="cls-7" d="M548.7,242.57a.42.42,0,0,1,.42.42v3.71a.43.43,0,1,1-.85,0V243A.42.42,0,0,1,548.7,242.57Z"/><path class="cls-7" d="M545.92,242.57a.42.42,0,0,1,.42.42v3.71a.43.43,0,1,1-.85,0V243A.42.42,0,0,1,545.92,242.57Z"/><path class="cls-7" d="M529.22,240.43a.42.42,0,0,1,.42.43v5.84a.42.42,0,0,1-.42.43.43.43,0,0,1-.43-.43v-5.84A.43.43,0,0,1,529.22,240.43Z"/><path class="cls-7" d="M543.13,240.43a.43.43,0,0,1,.43.43v5.84a.43.43,0,1,1-.85,0v-5.84A.42.42,0,0,1,543.13,240.43Z"/><path class="cls-7" d="M532,242.57a.42.42,0,0,1,.43.42v3.71a.43.43,0,1,1-.85,0V243A.42.42,0,0,1,532,242.57Z"/><path class="cls-7" d="M534.79,242.57a.42.42,0,0,1,.42.42v3.71a.43.43,0,1,1-.85,0V243A.42.42,0,0,1,534.79,242.57Z"/><path class="cls-7" d="M537.57,242.57a.42.42,0,0,1,.42.42v3.71a.43.43,0,1,1-.85,0V243A.42.42,0,0,1,537.57,242.57Z"/><path class="cls-7" d="M540.35,242.57a.43.43,0,0,1,.43.42v3.71a.43.43,0,0,1-.43.43.43.43,0,0,1-.43-.43V243A.42.42,0,0,1,540.35,242.57Z"/><path class="cls-7" d="M526.44,242.57a.42.42,0,0,1,.42.42v3.71a.43.43,0,1,1-.85,0V243A.42.42,0,0,1,526.44,242.57Z"/><path class="cls-7" d="M523.65,242.57a.42.42,0,0,1,.43.42v3.71a.43.43,0,1,1-.85,0V243A.42.42,0,0,1,523.65,242.57Z"/><path class="cls-7" d="M520.87,242.57a.42.42,0,0,1,.43.42v3.71a.43.43,0,1,1-.85,0V243A.42.42,0,0,1,520.87,242.57Z"/><path class="cls-7" d="M518.09,242.57a.43.43,0,0,1,.43.42v3.71a.43.43,0,0,1-.43.43.43.43,0,0,1-.43-.43V243A.42.42,0,0,1,518.09,242.57Z"/><path class="cls-7" d="M501.39,240.43a.43.43,0,0,1,.43.43v5.84a.43.43,0,1,1-.85,0v-5.84A.42.42,0,0,1,501.39,240.43Z"/><path class="cls-7" d="M515.31,240.43a.42.42,0,0,1,.42.43v5.84a.43.43,0,1,1-.85,0v-5.84A.43.43,0,0,1,515.31,240.43Z"/><path class="cls-7" d="M504.18,242.57a.42.42,0,0,1,.42.42v3.71a.43.43,0,1,1-.85,0V243A.42.42,0,0,1,504.18,242.57Z"/><path class="cls-7" d="M507,242.57a.42.42,0,0,1,.42.42v3.71a.43.43,0,1,1-.85,0V243A.42.42,0,0,1,507,242.57Z"/><path class="cls-7" d="M509.74,242.57a.42.42,0,0,1,.43.42v3.71a.43.43,0,0,1-.86,0V243A.42.42,0,0,1,509.74,242.57Z"/><path class="cls-7" d="M512.52,242.57a.42.42,0,0,1,.43.42v3.71a.43.43,0,1,1-.85,0V243A.42.42,0,0,1,512.52,242.57Z"/><path class="cls-7" d="M487.48,240.43a.43.43,0,0,1,.43.43v5.84a.43.43,0,0,1-.43.43.43.43,0,0,1-.43-.43v-5.84A.43.43,0,0,1,487.48,240.43Z"/><path class="cls-7" d="M498.61,242.57a.42.42,0,0,1,.43.42v3.71a.43.43,0,0,1-.86,0V243A.42.42,0,0,1,498.61,242.57Z"/><path class="cls-7" d="M495.83,242.57a.42.42,0,0,1,.42.42v3.71a.43.43,0,1,1-.85,0V243A.42.42,0,0,1,495.83,242.57Z"/><path class="cls-7" d="M493,242.57a.42.42,0,0,1,.43.42v3.71a.43.43,0,1,1-.85,0V243A.42.42,0,0,1,493,242.57Z"/><path class="cls-7" d="M490.26,242.57a.42.42,0,0,1,.43.42v3.71a.43.43,0,1,1-.85,0V243A.42.42,0,0,1,490.26,242.57Z"/><path class="cls-16" d="M170.83,749.3s35.94-4.74,43.4-48.82,3.39-73.92,38.65-101.05,64.43-70.53,44.76-114.61,50.69-214.53,242.1-217.69c287.54-4.74,294.33,211.59,294.33,211.59S870.69,744.56,731,697.08c-90.49-30.74-99,36.63-158.69,55.62s-113.93-63.08-142.42-30.52-39.33,23.05-62.39,22.38-51.54,37.3-54.93,50.18"/><path class="cls-17" d="M794.5,384l-224,286H794.65ZM661.43,625.77l88.85-113.45.06,113.45Z"/><path class="cls-18" d="M337.46,308l286,224V307.81ZM579.21,441,465.76,352.19l113.45-.07Z"/><path class="cls-7" d="M641.83,654.72a.85.85,0,0,0-.85.85V667.2a.85.85,0,0,0,1.69,0V655.57A.85.85,0,0,0,641.83,654.72Z"/><path class="cls-7" d="M614.15,654.72a.85.85,0,0,0-.85.85V667.2a.85.85,0,0,0,1.69,0V655.57A.85.85,0,0,0,614.15,654.72Z"/><path class="cls-7" d="M636.29,659a.85.85,0,0,0-.85.84v7.39a.85.85,0,0,0,1.7,0v-7.39A.85.85,0,0,0,636.29,659Z"/><path class="cls-7" d="M630.75,659a.85.85,0,0,0-.84.84v7.39a.85.85,0,0,0,1.69,0v-7.39A.85.85,0,0,0,630.75,659Z"/><path class="cls-7" d="M625.22,659a.85.85,0,0,0-.85.84v7.39a.85.85,0,0,0,1.7,0v-7.39A.85.85,0,0,0,625.22,659Z"/><path class="cls-7" d="M619.68,659a.85.85,0,0,0-.85.84v7.39a.85.85,0,0,0,1.7,0v-7.39A.85.85,0,0,0,619.68,659Z"/><path class="cls-7" d="M647.36,659a.85.85,0,0,0-.84.84v7.39a.85.85,0,0,0,1.69,0v-7.39A.85.85,0,0,0,647.36,659Z"/><path class="cls-7" d="M652.9,659a.85.85,0,0,0-.85.84v7.39a.85.85,0,0,0,1.7,0v-7.39A.85.85,0,0,0,652.9,659Z"/><path class="cls-7" d="M658.43,659a.85.85,0,0,0-.84.84v7.39a.85.85,0,0,0,1.69,0v-7.39A.85.85,0,0,0,658.43,659Z"/><path class="cls-7" d="M664,659a.85.85,0,0,0-.85.84v7.39a.85.85,0,0,0,1.7,0v-7.39A.85.85,0,0,0,664,659Z"/><path class="cls-7" d="M697.19,654.72a.85.85,0,0,0-.85.85V667.2a.85.85,0,0,0,1.7,0V655.57A.85.85,0,0,0,697.19,654.72Z"/><path class="cls-7" d="M669.51,654.72a.85.85,0,0,0-.85.85V667.2a.85.85,0,0,0,1.7,0V655.57A.85.85,0,0,0,669.51,654.72Z"/><path class="cls-7" d="M691.65,659a.84.84,0,0,0-.84.84v7.39a.84.84,0,0,0,.84.84.85.85,0,0,0,.85-.84v-7.39A.85.85,0,0,0,691.65,659Z"/><path class="cls-7" d="M686.12,659a.85.85,0,0,0-.85.84v7.39a.85.85,0,0,0,1.69,0v-7.39A.85.85,0,0,0,686.12,659Z"/><path class="cls-7" d="M680.58,659a.85.85,0,0,0-.85.84v7.39a.85.85,0,0,0,1.7,0v-7.39A.85.85,0,0,0,680.58,659Z"/><path class="cls-7" d="M675,659a.85.85,0,0,0-.84.84v7.39a.85.85,0,0,0,1.69,0v-7.39A.85.85,0,0,0,675,659Z"/><path class="cls-7" d="M702.72,659a.85.85,0,0,0-.84.84v7.39a.85.85,0,0,0,1.69,0v-7.39A.85.85,0,0,0,702.72,659Z"/><path class="cls-7" d="M708.26,659a.85.85,0,0,0-.85.84v7.39a.85.85,0,0,0,1.7,0v-7.39A.85.85,0,0,0,708.26,659Z"/><path class="cls-7" d="M713.8,659a.85.85,0,0,0-.85.84v7.39a.85.85,0,0,0,1.7,0v-7.39A.85.85,0,0,0,713.8,659Z"/><path class="cls-7" d="M719.33,659a.85.85,0,0,0-.84.84v7.39a.85.85,0,0,0,1.69,0v-7.39A.85.85,0,0,0,719.33,659Z"/><path class="cls-7" d="M752.55,654.72a.85.85,0,0,0-.85.85V667.2a.85.85,0,0,0,1.7,0V655.57A.85.85,0,0,0,752.55,654.72Z"/><path class="cls-7" d="M724.87,654.72a.85.85,0,0,0-.85.85V667.2a.85.85,0,0,0,1.7,0V655.57A.85.85,0,0,0,724.87,654.72Z"/><path class="cls-7" d="M747,659a.85.85,0,0,0-.85.84v7.39a.85.85,0,0,0,1.69,0v-7.39A.85.85,0,0,0,747,659Z"/><path class="cls-7" d="M741.48,659a.85.85,0,0,0-.85.84v7.39a.85.85,0,0,0,1.7,0v-7.39A.85.85,0,0,0,741.48,659Z"/><path class="cls-7" d="M735.94,659a.84.84,0,0,0-.84.84v7.39a.84.84,0,0,0,.84.84.85.85,0,0,0,.85-.84v-7.39A.85.85,0,0,0,735.94,659Z"/><path class="cls-7" d="M730.41,659a.85.85,0,0,0-.85.84v7.39a.85.85,0,0,0,.85.84.84.84,0,0,0,.84-.84v-7.39A.84.84,0,0,0,730.41,659Z"/><path class="cls-7" d="M780.23,654.72a.85.85,0,0,0-.85.85V667.2a.85.85,0,0,0,1.7,0V655.57A.85.85,0,0,0,780.23,654.72Z"/><path class="cls-7" d="M758.09,659a.85.85,0,0,0-.85.84v7.39a.85.85,0,0,0,.85.84.84.84,0,0,0,.84-.84v-7.39A.84.84,0,0,0,758.09,659Z"/><path class="cls-7" d="M763.62,659a.85.85,0,0,0-.84.84v7.39a.85.85,0,0,0,1.69,0v-7.39A.85.85,0,0,0,763.62,659Z"/><path class="cls-7" d="M769.16,659a.85.85,0,0,0-.85.84v7.39a.85.85,0,0,0,1.7,0v-7.39A.85.85,0,0,0,769.16,659Z"/><path class="cls-7" d="M774.7,659a.85.85,0,0,0-.85.84v7.39a.85.85,0,0,0,1.69,0v-7.39A.85.85,0,0,0,774.7,659Z"/><path class="cls-19" d="M178.9,761.1s42.73-5.77,67.15-56,7.51-65,56.34-85.37,82.73-23,63.75-92.22S352.57,438,387.84,402.76,440.73,351.22,495,367.5s93.58-9.49,109.86-29.84,33.91-36.62,69.17,0,108.51,65.1,108.51,65.1,94.94,126.14,0,146.49-142.42-28.49-179-4.07S564.16,618.42,518,632s-78.66-5.42-116.64,14.92-26.15,24.68-30.22,45-38.76,28.15-54.94,37.64S303,816,303,816"/><polygon class="cls-20" points="332.3 836.79 198.7 836.79 157.87 735.74 291.47 735.74 332.3 836.79"/><polygon class="cls-11" points="321.11 836.7 187.51 836.7 146.68 735.66 280.28 735.66 321.11 836.7"/><rect class="cls-21" x="481.66" y="629.77" width="33.8" height="33.8"/><path class="cls-21" d="M538,664a17.86,17.86,0,1,1-17.86-17.86A17.85,17.85,0,0,1,538,664Z"/><polygon class="cls-21" points="548.43 636.28 526.24 664.56 548.78 664.56 548.43 636.28"/><rect class="cls-22" x="716.81" y="449.78" width="33.8" height="33.8"/><path class="cls-22" d="M773.19,484a17.87,17.87,0,1,1-17.87-17.86A17.86,17.86,0,0,1,773.19,484Z"/><polygon class="cls-22" points="786.41 483.63 808.6 511.9 786.07 511.9 786.41 483.63"/><path class="cls-7" d="M807.24,591.88a3.57,3.57,0,1,1-3.57-3.57A3.56,3.56,0,0,1,807.24,591.88Zm-3.25-68a3.57,3.57,0,1,0,3.56,3.57A3.57,3.57,0,0,0,804,523.92Zm67.63,68.19a3.57,3.57,0,1,0-3.56,3.57A3.56,3.56,0,0,0,871.62,592.11ZM804,545.38a3.57,3.57,0,1,0,3.56,3.57A3.57,3.57,0,0,0,804,545.38Zm46.17,46.73a3.57,3.57,0,1,0-3.57,3.57A3.56,3.56,0,0,0,850.16,592.11ZM804,566.85a3.57,3.57,0,1,0,3.56,3.56A3.56,3.56,0,0,0,804,566.85Zm3.25,25.26a3.57,3.57,0,1,0-3.57,3.57A3.56,3.56,0,0,0,807.24,592.11Zm18.31-3.8a3.57,3.57,0,1,0,3.57,3.57A3.57,3.57,0,0,0,825.55,588.31Zm.32-42.93a3.57,3.57,0,1,0,3.57,3.57A3.57,3.57,0,0,0,825.87,545.38Zm0,21.47a3.57,3.57,0,1,0,3.57,3.56A3.56,3.56,0,0,0,825.87,566.85Zm20.93,0a3.57,3.57,0,1,0,3.57,3.56A3.56,3.56,0,0,0,846.8,566.85Zm-17.68,25.26a3.57,3.57,0,1,0-3.57,3.57A3.56,3.56,0,0,0,829.12,592.11Zm-28.52-.26a3.57,3.57,0,1,0,3.57-3.57A3.57,3.57,0,0,0,800.6,591.85Zm-.32-64.39a3.57,3.57,0,1,0,3.57-3.56A3.57,3.57,0,0,0,800.28,527.46Zm-60.5,68.2a3.57,3.57,0,1,0-3.57-3.57A3.57,3.57,0,0,0,739.78,595.66Zm60.5-46.73a3.57,3.57,0,1,0,3.57-3.57A3.57,3.57,0,0,0,800.28,548.93Zm-39,46.73a3.57,3.57,0,1,0-3.57-3.57A3.57,3.57,0,0,0,761.24,595.66Zm39-25.27a3.57,3.57,0,1,0,3.57-3.57A3.57,3.57,0,0,0,800.28,570.39Zm3.89,25.27a3.57,3.57,0,1,0-3.57-3.57A3.57,3.57,0,0,0,804.17,595.66Zm-25.46-3.81a3.57,3.57,0,1,0,3.57-3.57A3.57,3.57,0,0,0,778.71,591.85Zm-.31-42.92a3.57,3.57,0,1,0,3.56-3.57A3.57,3.57,0,0,0,778.4,548.93Zm0,21.46a3.57,3.57,0,1,0,3.56-3.57A3.57,3.57,0,0,0,778.4,570.39Zm-20.94,0a3.57,3.57,0,1,0,3.57-3.57A3.57,3.57,0,0,0,757.46,570.39Zm24.82,25.27a3.57,3.57,0,1,0-3.57-3.57A3.57,3.57,0,0,0,782.28,595.66Z"/><rect class="cls-11" x="273.77" y="116.08" width="193.59" height="143.09" rx="5.26"/><rect class="cls-7" x="287.8" y="128.71" width="165.53" height="108.72"/><polygon class="cls-23" points="295.17 199.78 336.4 158.96 382.73 203.33 420.41 167.66 445.31 197.85 445.31 230.22 294.98 230.22 294.98 203.76 295.17 199.78"/><path class="cls-6" d="M390,157a14,14,0,1,1-14-14A14,14,0,0,1,390,157Z"/><path class="cls-24" d="M390.63,281.46s3.42,4.28.57,16-.86,20,4.85,22.26,13.41,15.7-13.13,23.69-50.22-7.14-48.23-16.84,11.13-4.57,10.56-21.41-.38-39.38,19-44.23C364.28,260.91,388.06,256,390.63,281.46Z"/><path class="cls-25" d="M352.82,578.63l-6.65-16.12c3.94-4.39,24.91-28.65,24.9-28.4l-10.16-15.77-23.82,38.88-7.37,7.57s18.45,16.17,25,20.35a2.5,2.5,0,0,0,2.68,0C358.91,583.8,352.82,578.63,352.82,578.63Z"/><path class="cls-11" d="M400.37,334.2s.66,40.92,6,75.92c3.39,22.24,11.86,42.64,13.05,46.89,3.08,10.93-40.14,17.49-40.14,17.49L370.3,348"/><path class="cls-11" d="M328.13,329.69s7.91,43.09,1.92,75.8c-4.5,24.59-12.86,43.91-14.34,48.55-3.46,10.82,41.77,15.51,44.59,17.54s3.65-35.8,3.65-35.8l3.89-87.46"/><polygon class="cls-26" points="378.45 322.66 376.56 310.69 376.16 306.17 375.99 306.17 375.57 302.79 363.29 304.15 360.53 322.55 339.96 327.22 347.74 399 392.13 399.51 394.02 326.45 378.45 322.66"/><path class="cls-27" d="M359.41,294.56A4.53,4.53,0,0,1,354.8,299h0a4.54,4.54,0,0,1-4.45-4.61l.07-3.93A4.52,4.52,0,0,1,355,286h0a4.53,4.53,0,0,1,4.45,4.6Z"/><path class="cls-24" d="M373.81,263l-3.51-.59-.77,0-3.53.48c-26.82,7.5-12.47,28.71-12.47,28.71s.74,11.27,15.56,17.13c10.83,4.28,15.46-7.75,18-10.47S400.34,271.44,373.81,263Z"/><path class="cls-28" d="M378.65,302.59l-.37-.09-14.84,1.28L361.29,317c11.38.68,16.33-12.06,17.35-14.09Z"/><path class="cls-27" d="M389.73,295.1a4.54,4.54,0,0,1-4.61,4.45h0a4.54,4.54,0,0,1-4.45-4.61l.07-3.93a4.52,4.52,0,0,1,4.61-4.44h0a4.52,4.52,0,0,1,4.45,4.6Z"/><path class="cls-29" d="M384.69,282.85c-3.53-6.21-3.33-11.59-14-11.78-4.26-1-10.95,5.19-14.69,11.26,0,0-4.28,30.56,13.51,30.58C388.46,312.92,384.69,282.85,384.69,282.85Z"/><path class="cls-24" d="M377.65,291.21a1.28,1.28,0,0,1-1.31,1.26,1.29,1.29,0,1,1,1.31-1.26Z"/><path class="cls-24" d="M364.11,291a1.29,1.29,0,1,1-1.26-1.32A1.28,1.28,0,0,1,364.11,291Z"/><path class="cls-24" d="M377.75,272.3c-4.5-2.72-13.34,6.49-16.4,11.72s-7.68,19.5-7.68,19.5l.38-29.15s2.74-8.6,15.52-8"/><path class="cls-24" d="M376.78,269.06s3.43,11.37,4.3,13.56c2.25,5.65,5.55,21,5.55,21l-.28-24.45"/><path class="cls-30" d="M387.31,309.58h-.12a6.92,6.92,0,0,1-6-3.72l.5-.26A6.36,6.36,0,0,0,387.2,309h.11a6.36,6.36,0,0,0,.12-12.71v-.57a6.93,6.93,0,0,1-.13,13.85Z"/><path class="cls-30" d="M353.47,309.05a6.9,6.9,0,0,1-6.79-8.29,6.93,6.93,0,0,1,8.15-5.43l-.11.56a6.36,6.36,0,1,0,3.62,10.32l.44.36A6.92,6.92,0,0,1,353.47,309.05Z"/><path class="cls-7" d="M364.41,302.05l11.1-.14s.56,5.36-5,5.4C364.12,307.36,364.41,302.05,364.41,302.05Z"/><path class="cls-7" d="M389.06,323.05s-6.86,18.67-19.33,18.66c-12.46-.43-18.66-19.33-18.66-19.33l-9.45,76.24,24.5.43,1.23,0,24.51.44,7.9-71.53Z"/><polygon class="cls-11" points="357.4 322.83 350.49 395.64 339.79 455.51 336.88 315.13 357.4 322.83"/><path class="cls-11" d="M383.62,322.83s9.2,25.22,9,30.93-2.1,41.88-2.1,41.88L394.2,456s14.8-92.51,15.55-100.88-12.56-32.73-12.56-32.73Z"/><path class="cls-31" d="M424.22,285l9.16-7.25-10.27-15,1.11-2.37,8.54-2.53-1.08-12.5-13.6-1.07-4.23,5.1,5.64,3.76s-6.13,2.55-7.24,4.73,3.72,10.3,3.72,10.3l0,0C417.86,272.21,421.16,279.33,424.22,285Z"/><path class="cls-11" d="M404.8,345.39s45.91-26.11,46.62-33.3-17.29-38.67-17.29-38.67L419.9,283l11.54,23.59L398,322.17"/><path class="cls-32" d="M314.79,279.78l-9.15-7.24,10.27-15-1.12-2.36-8.53-2.53,1.08-12.5,13.6-1.08,4.23,5.11-5.64,3.75s6.13,2.56,7.24,4.73-3.72,10.3-3.72,10.3l0,0C321.16,267,317.86,274.15,314.79,279.78Z"/><path class="cls-11" d="M338.55,344.67s-51.35-31-52.06-38.16,18.4-38.28,18.4-38.28l15,10.09-13.56,24.46,38.93,15.92"/><path class="cls-33" d="M364,445.9A153.23,153.23,0,0,0,210.79,599.13h65.06a88.17,88.17,0,1,1,176.33,0h65.06A153.22,153.22,0,0,0,364,445.9Z"/><path class="cls-34" d="M450.43,544.75l-13.87-10.56c1.19-5.79,7.07-37.31,7.19-37.08L427,488.6l-1,45.59-2.55,10.26s24.08,4.66,31.87,5a2.49,2.49,0,0,0,2.33-1.31C458.29,546.15,450.43,544.75,450.43,544.75Z"/><path class="cls-35" d="M349.25,404.75s-8,32.53,1.14,41.09,28.54,42,28.54,42L338.4,548.58l15.41,10.28,57.08-65.64-23.69-54.8,40.24,20-4,66.78,18.26.29,12-82.48-61.84-43.48-42-.71"/><rect class="cls-11" x="219.67" y="434.71" width="32.04" height="32.03" transform="translate(-249.68 298.67) rotate(-45)"/><path class="cls-7" d="M236.41,449.78a1,1,0,1,1-1-1A1,1,0,0,1,236.41,449.78Zm-.87-18.33a1,1,0,1,0,1,1A1,1,0,0,0,235.54,431.45Zm18.24,18.39a1,1,0,1,0-1,1A1,1,0,0,0,253.78,449.84Zm-18.24-12.6a1,1,0,1,0,1,1A1,1,0,0,0,235.54,437.24ZM248,449.84a1,1,0,1,0-1,1A1,1,0,0,0,248,449.84ZM235.54,443a1,1,0,1,0,1,1A1,1,0,0,0,235.54,443Zm.87,6.81a1,1,0,1,0-1,1A1,1,0,0,0,236.41,449.84Zm4.94-1a1,1,0,1,0,1,1A1,1,0,0,0,241.35,448.81Zm.09-11.57a1,1,0,1,0,1,1A1,1,0,0,0,241.44,437.24Zm0,5.79a1,1,0,1,0,1,1A1,1,0,0,0,241.44,443Zm5.65,0a1,1,0,1,0,1,1A1,1,0,0,0,247.09,443Zm-4.77,6.81a1,1,0,1,0-1,1A1,1,0,0,0,242.32,449.84Zm-7.7-.07a1,1,0,1,0,1-1A1,1,0,0,0,234.62,449.77Zm-.08-17.37a1,1,0,1,0,1-1A1,1,0,0,0,234.54,432.4Zm-16.32,18.4a1,1,0,1,0-1-1A1,1,0,0,0,218.22,450.8Zm16.32-12.61a1,1,0,1,0,1-1A1,1,0,0,0,234.54,438.19ZM224,450.8a1,1,0,1,0-1-1A1,1,0,0,0,224,450.8ZM234.54,444a1,1,0,1,0,1-1A1,1,0,0,0,234.54,444Zm1.05,6.82a1,1,0,1,0-1-1A1,1,0,0,0,235.59,450.8Zm-6.87-1a1,1,0,1,0,1-1A1,1,0,0,0,228.72,449.77Zm-.08-11.58a1,1,0,1,0,1-1A1,1,0,0,0,228.64,438.19Zm0,5.79a1,1,0,1,0,1-1A1,1,0,0,0,228.64,444ZM223,444a1,1,0,1,0,1-1A1,1,0,0,0,223,444Zm6.69,6.82a1,1,0,1,0-1-1A1,1,0,0,0,229.68,450.8Z"/><path class="cls-36" d="M233.34,254.25a15,15,0,0,1,16.95,12.82l16.08,115.85a15,15,0,0,1-12.82,16.94l-1.37.2a15,15,0,0,1-17-12.82L219.15,271.39A15,15,0,0,1,232,254.44Z"/><path class="cls-7" d="M254.44,384.59a3.8,3.8,0,1,1-4.31-3.22A3.8,3.8,0,0,1,254.44,384.59Z"/><g class="cls-37"><rect class="cls-7" x="219.54" y="282.46" width="39.02" height="3.57" transform="translate(-43.75 43.49) rotate(-9.53)"/><rect class="cls-7" x="223.55" y="310.26" width="39.03" height="3.57" transform="translate(-48.3 44.54) rotate(-9.53)"/><rect class="cls-7" x="227.72" y="339.17" width="39.03" height="3.57" transform="matrix(0.99, -0.17, 0.17, 0.99, -53.03, 45.63)"/><rect class="cls-7" x="231.28" y="363.79" width="39.03" height="3.57" transform="translate(-57.04 46.54) rotate(-9.53)"/></g><g class="cls-38"><path class="cls-39" d="M162.83,286.68a15,15,0,0,1,21.23.91l79.1,86.15a15,15,0,0,1-.9,21.23l-1,.93A15,15,0,0,1,240,395l-79.1-86.15a15,15,0,0,1,.9-21.23Z"/><rect class="cls-7" x="165.07" y="306.33" width="39.03" height="3.57" transform="translate(-162.53 215.82) rotate(-44.19)"/><rect class="cls-7" x="184.18" y="326.91" width="39.03" height="3.57" transform="translate(-171.47 234.96) rotate(-44.18)"/><rect class="cls-7" x="204.05" y="348.31" width="39.03" height="3.57" transform="translate(-180.76 254.85) rotate(-44.18)"/><rect class="cls-7" x="220.98" y="366.54" width="39.03" height="3.57" transform="translate(-188.68 271.81) rotate(-44.18)"/><path class="cls-7" d="M254.31,381.9a3.8,3.8,0,1,1-5.38-.2A3.8,3.8,0,0,1,254.31,381.9Z"/></g><path class="cls-40" d="M126.29,342.17a15,15,0,0,1,19.08-9.34L256,370.71a15,15,0,0,1,9.35,19.08l-.45,1.31a15,15,0,0,1-19.08,9.35L135.19,362.57a15,15,0,0,1-9.35-19.08Z"/><path class="cls-7" d="M157.86,337.45l-9.72,31.26,3.41,1.06,9.65-31C160.08,338.31,159,337.89,157.86,337.45Z"/><path class="cls-7" d="M184.06,347.77l-9.29,29.89,3.4,1.06,9.33-30C186.34,348.46,185.19,348.13,184.06,347.77Z"/><path class="cls-7" d="M211.88,356.63,202.44,387l3.41,1,9.42-30.28C214.13,357.4,213,357,211.88,356.63Z"/><path class="cls-7" d="M235.16,365.51,226,394.89l3.41,1.06,9.21-29.62C237.47,366.08,236.31,365.81,235.16,365.51Z"/><path class="cls-7" d="M252.14,382.11a3.8,3.8,0,1,1-4.82,2.39A3.8,3.8,0,0,1,252.14,382.11Z"/><path class="cls-1" d="M126.29,342.17a15,15,0,0,1,19.08-9.34L256,370.71a15,15,0,0,1,9.35,19.08l-.45,1.31a15,15,0,0,1-19.08,9.35L135.19,362.57a15,15,0,0,1-9.35-19.08Z"/><path class="cls-7" d="M505.36,352.94l9.3-2.81,33.56,40.26-10.55,3.18-7.29-9L511,390.39l-1.1,11.55L499.62,405Zm18.74,23.79-10.57-13-1.61,16.71Z"/><path class="cls-7" d="M549.11,379.12l0-.13c-2.31-7.66,2.46-13,10.78-15.46a26,26,0,0,1,9-1.15l-.18-.58c-1.24-4.13-4.48-5.66-9.46-4.16a27.11,27.11,0,0,0-9.12,4.82l-4.78-6.84a32.21,32.21,0,0,1,12.77-6.92c5.44-1.64,9.8-1.38,13,.35,3.41,1.84,5.76,5.34,7.17,10.06l6.14,20.37-9.63,2.9-1.14-3.8a14.09,14.09,0,0,1-9.27,7.65C557.79,388.23,551.2,386.06,549.11,379.12Zm22.17-9.18-.53-1.77a16.19,16.19,0,0,0-6.75.61c-4.26,1.28-6.37,3.77-5.42,6.92l0,.13c.81,2.68,3.51,3.59,6.72,2.62C570,377.05,572.37,373.55,571.28,369.94Z"/><path class="cls-7" d="M617.73,392.08,485.4,432l-26.87-89.18,132.33-39.86ZM486.2,430.45l130-39.17L590.06,304.4,460,343.57Z"/><rect class="cls-7" x="455.82" y="340.17" width="7.01" height="7.01" transform="translate(-79.61 147.09) rotate(-16.76)"/><rect class="cls-7" x="481.82" y="426.47" width="7.01" height="7.01" transform="translate(-103.38 158.23) rotate(-16.76)"/><rect class="cls-7" x="521.13" y="320.5" width="7.01" height="7.01" transform="translate(-71.16 165.12) rotate(-16.77)"/><rect class="cls-7" x="547.12" y="406.8" width="7.01" height="7.01" transform="translate(-94.95 176.27) rotate(-16.77)"/><rect class="cls-7" x="586.43" y="300.83" width="7.01" height="7.01" transform="translate(-62.71 183.09) rotate(-16.76)"/><rect class="cls-7" x="612.42" y="387.13" width="7.01" height="7.01" transform="matrix(0.96, -0.29, 0.29, 0.96, -86.5, 194.27)"/><path class="cls-7" d="M352.71,641.93A25.29,25.29,0,1,1,378,616.64,25.33,25.33,0,0,1,352.71,641.93Zm0-49.33a24,24,0,1,0,24.05,24A24.07,24.07,0,0,0,352.71,592.6Z"/><path class="cls-7" d="M352.71,640A23.33,23.33,0,1,1,376,616.64,23.36,23.36,0,0,1,352.71,640Zm0-44.53a21.2,21.2,0,1,0,21.2,21.2A21.22,21.22,0,0,0,352.71,595.44Z"/><path class="cls-7" d="M352.1,620.47A1.06,1.06,0,0,1,351,619.4V603.73a1.07,1.07,0,1,1,2.13,0V619.4A1.07,1.07,0,0,1,352.1,620.47Z"/><path class="cls-7" d="M351.86,620.72a.86.86,0,0,1-.59-.24.85.85,0,0,1,0-1.18l7-6.95a.83.83,0,0,1,1.18,1.18l-6.95,7A.84.84,0,0,1,351.86,620.72Z"/><rect class="cls-41" x="817.15" y="570.24" width="16.95" height="32.72" transform="translate(0.63 1174.09) rotate(-70.85)"/><path class="cls-42" d="M800.1,571.17l-1.69,14.75,25.65,13.71s16.91,6.29,19.69,5,15.64-19,15.64-19l-1.81-9.26-9.78-.24-6-.61-11,19.5L835,598l-1.35.68L799.43,584.4"/><polygon class="cls-43" points="920.63 445.14 889.31 433.29 744.85 757.82 751.97 760.87 920.63 445.14"/><polygon class="cls-44" points="920.63 445.14 889.31 433.29 744.85 757.82 751.97 760.87 920.63 445.14"/><path class="cls-45" d="M810.11,569.82,829,575l5.48-5.26,12.06,1.62,3.75,16.86s-5.33,1.33-7.15-3.78l-.73-2.32s-4.63,7.06-10.6,5-25.07-9.8-25.07-9.8"/><path class="cls-46" d="M470.35,449.24l-13.63-37.43-4.36.64,5.18,28.32s-14.4,8.73-15.78,11.46S446,472.09,446,472.09l12.74,26.15,14.8-1.15"/><path class="cls-47" d="M475.31,487.15l-4.49-19,5.47-5.28-1.17-12.12-16.7-4.37s-1.54,5.27,3.5,7.29l2.29.8s-7.23,4.37-5.44,10.41,8.86,25.42,8.86,25.42"/><polyline class="cls-48" points="697.24 632.66 800.32 861.88 562.97 857.81 573.82 653.01"/><polyline class="cls-49" points="697.24 632.66 800.32 861.88 678.77 857.47 630.62 666.91"/><polyline class="cls-11" points="664 479.72 734.75 533.05 817.87 568.71 806.68 599.23 721.5 569.05 645.94 517.84"/><path class="cls-24" d="M565.74,443l17.51-67.91s11.17-17.76,35.56-14.24,28.36,19.39,28.36,19.39,31.84,54.73,9.49,70c0,0-33-6.4-45.41,6.1"/><path class="cls-50" d="M622.71,448l-21.27-21.32s1.46,42.15-15.39,49.46,65.65,6.52,50.8,2.55-14.11-30.31-14.11-30.31"/><path class="cls-51" d="M643.46,401.72l-.33,1.66-18.91,1.51-8.05-18.64-.49,19.32-18.74,1.49.16,1.95H597c-5.34.45-9.19,6.45-8.61,13.39s5.38,12.22,10.72,11.77A7,7,0,0,0,600,434c3,13.45,28.55,22.18,34.1,20.2C655.77,446.51,643.46,401.72,643.46,401.72Z"/><path class="cls-24" d="M624.34,412.39a2.09,2.09,0,1,1-2.26-1.91A2.09,2.09,0,0,1,624.34,412.39Z"/><path class="cls-24" d="M640.5,410.1a2.09,2.09,0,1,1-2.26-1.91A2.09,2.09,0,0,1,640.5,410.1Z"/><path class="cls-7" d="M638.85,430.26l-17.8,1.5s3.58,10.52,13.79,9.16"/><path class="cls-24" d="M602.19,389.23s4,61.81,11.55,72.92l-8.89-.11s-13.38-36.69-14.13-62.69"/><path class="cls-52" d="M609.16,430.27a7.13,7.13,0,1,0,6.51-7.71A7.14,7.14,0,0,0,609.16,430.27Z"/><path class="cls-53" d="M638.14,427.46a5,5,0,1,0,4.6-5.45A5,5,0,0,0,638.14,427.46Z"/><path class="cls-7" d="M590.32,471.94l-34.13,11.52,5.26,237,161.4-39.33L651.3,475.67l-23.73-6.11s-7.78,11.79-29.5,4.58Z"/><path class="cls-54" d="M652,491.63a2.19,2.19,0,0,1-1.92,2.45L567.6,504a2.19,2.19,0,0,1-2.45-1.92h0a2.2,2.2,0,0,1,1.93-2.45l82.47-9.94a2.21,2.21,0,0,1,2.45,1.93Z"/><path class="cls-55" d="M655.45,506.32a2.19,2.19,0,0,1-1.92,2.45l-82.48,9.94a2.21,2.21,0,0,1-2.45-1.93h0a2.2,2.2,0,0,1,1.92-2.45L653,504.4a2.19,2.19,0,0,1,2.45,1.92Z"/><path class="cls-56" d="M658.9,521a2.22,2.22,0,0,1-1.93,2.45L574.5,533.4a2.22,2.22,0,0,1-2.46-1.93h0A2.22,2.22,0,0,1,574,529l82.48-9.93A2.2,2.2,0,0,1,658.9,521Z"/><path class="cls-57" d="M662.35,535.71a2.21,2.21,0,0,1-1.93,2.45l-82.48,9.93a2.2,2.2,0,0,1-2.45-1.92h0a2.21,2.21,0,0,1,1.93-2.45l82.47-9.94a2.22,2.22,0,0,1,2.46,1.93Z"/><path class="cls-58" d="M665.79,550.4a2.19,2.19,0,0,1-1.92,2.45l-82.48,9.93a2.19,2.19,0,0,1-2.45-1.92h0a2.19,2.19,0,0,1,1.92-2.45l82.48-9.93a2.19,2.19,0,0,1,2.45,1.92Z"/><path class="cls-59" d="M669.24,565.09a2.2,2.2,0,0,1-1.92,2.45l-82.48,9.94a2.21,2.21,0,0,1-2.45-1.93h0a2.2,2.2,0,0,1,1.92-2.45l82.48-9.93a2.19,2.19,0,0,1,2.45,1.92Z"/><path class="cls-60" d="M672.69,579.79a2.22,2.22,0,0,1-1.93,2.45l-82.48,9.93a2.21,2.21,0,0,1-2.45-1.93h0a2.22,2.22,0,0,1,1.93-2.45l82.48-9.93a2.22,2.22,0,0,1,2.45,1.93Z"/><path class="cls-61" d="M676.13,594.48a2.2,2.2,0,0,1-1.92,2.45l-82.48,9.93a2.2,2.2,0,0,1-2.45-1.92h0a2.2,2.2,0,0,1,1.93-2.45l82.47-9.94a2.21,2.21,0,0,1,2.45,1.93Z"/><path class="cls-62" d="M679.58,609.17a2.19,2.19,0,0,1-1.92,2.45l-82.48,9.93a2.19,2.19,0,0,1-2.45-1.92h0a2.2,2.2,0,0,1,1.92-2.45l82.48-9.93a2.19,2.19,0,0,1,2.45,1.92Z"/><path class="cls-63" d="M683,623.86a2.21,2.21,0,0,1-1.93,2.45l-82.47,9.94a2.22,2.22,0,0,1-2.46-1.93h0a2.21,2.21,0,0,1,1.93-2.45l82.48-9.93a2.21,2.21,0,0,1,2.45,1.92Z"/><polygon class="cls-11" points="524.33 736.29 603.09 719.33 584.16 473.63 548.16 482.84 524.33 736.29"/><path class="cls-7" d="M575,491.26c-.31,3-.6,5.92-.94,8.88s-.67,5.9-1,8.85c-.68,5.91-1.47,11.79-2.22,17.69l-1.2,8.83c-.4,2.94-.78,5.89-1.22,8.83l-1.27,8.81c-.43,2.94-.84,5.89-1.3,8.82l-1.21-2.1c7.12,2.7,14.27,5.33,21.38,8.09l2.45.95L586.88,571l-9.21,12.16-9.31,12.09.06-2c2.41,3.71,4.77,7.47,7.16,11.2s4.73,7.5,7.08,11.26,4.66,7.54,7,11.32l3.44,5.69,3.39,5.73-4-5.34-3.93-5.36c-2.59-3.6-5.21-7.18-7.76-10.81s-5.15-7.22-7.67-10.87-5.09-7.25-7.59-10.91l-.67-1,.73-1,9-12.32,9.1-12.25.88,3c-7.14-2.67-14.23-5.47-21.34-8.19l-1.46-.56.24-1.54c.46-2.93,1-5.86,1.47-8.79l1.5-8.78c.49-2.93,1-5.85,1.55-8.77l1.57-8.78c1.1-5.83,2.15-11.68,3.32-17.51.56-2.92,1.14-5.83,1.74-8.75S574.39,494.17,575,491.26Z"/><polygon class="cls-11" points="635.7 471.43 698.71 699.5 744.04 686.45 721.09 644.06 663.17 479.06 635.7 471.43"/><path class="cls-7" d="M650,488.55q3.19,6.45,6.27,12.95c2.07,4.33,4.06,8.68,6.09,13s4,8.71,5.94,13.09,3.93,8.74,5.85,13.13a1.45,1.45,0,0,1,0,1.1h0c-2,5.09-4,10.2-6.06,15.28l-.56-1.79,10.65,7.16h0a1.39,1.39,0,0,1,.62,1.12l.45,13.69.34,13.69c.07,4.56.17,9.13.2,13.69l0,6.85,0,6.86-.63-6.83-.57-6.82c-.38-4.55-.69-9.11-1-13.66l-.88-13.67-.77-13.67.64,1.13-10.71-7.08a1.49,1.49,0,0,1-.56-1.78h0c2-5.09,4.1-10.16,6.15-15.24v1.11c-1.89-4.4-3.71-8.84-5.57-13.25s-3.64-8.87-5.46-13.3-3.59-8.89-5.32-13.36S651.61,493.05,650,488.55Z"/><path class="cls-11" d="M548.22,482.9l-54.09,67-13.45-64.66-30.51,9.05,16.67,101.21s2,13.73,18,8.65c20.69-6.44,72.73-43.07,72.73-43.07"/><circle class="cls-7" cx="731.15" cy="332.91" r="71.88"/><path class="cls-7" d="M699.91,386s13.22,23.4-8.14,34.59c0,0,35.61,16.27,42.73-27.47"/><g class="cls-64"><path class="cls-65" d="M889.92,432.29l-16.7,37.52a29.29,29.29,0,0,0,4.48,4.64,38.86,38.86,0,0,0,3.19,2.62A35.71,35.71,0,0,0,900,483.9l21.24-39.76Z"/><path class="cls-66" d="M889.92,432.29l-16.7,37.52a29.29,29.29,0,0,0,4.48,4.64,38.86,38.86,0,0,0,3.19,2.62A35.71,35.71,0,0,0,900,483.9l21.24-39.76Z"/></g><path class="cls-67" d="M946.83,345.73l-.07.06c0-.13,0-.2,0-.2l-.3.49c-3,3-26,25.83-54.76,52.82-12.89,12.08-17.55,22.32-18.61,30.15-.11.79-.18,1.54-.21,2.28-.4,10.77,2.31,23,11.12,30.21a31.83,31.83,0,0,0,33.77,6.1,21.31,21.31,0,0,0,2.41-1.37,57.39,57.39,0,0,0,6.57-5.32,26.69,26.69,0,0,0,2.69-1.93c6.34-5.23,12.86-15.76,13.59-36.95,1.37-39.8,3.45-72.29,3.7-76.11Z"/><path class="cls-68" d="M930.48,369.19S899,395,893.86,407.85s.34,24.75,8.14,18.31S930.48,369.19,930.48,369.19Z"/><path class="cls-11" d="M739.26,368a7.79,7.79,0,1,1-7.79-7.79A7.78,7.78,0,0,1,739.26,368Z"/><path class="cls-11" d="M720.94,352.34H742a.61.61,0,0,1,.61.61v18.6a.61.61,0,0,1-.61.61H720.94a.62.62,0,0,1-.62-.62V353A.62.62,0,0,1,720.94,352.34Z"/><path class="cls-7" d="M740.08,361.45a.62.62,0,0,1-.62.62H723.33a.61.61,0,0,1-.62-.62h0a.61.61,0,0,1,.62-.61h16.13a.61.61,0,0,1,.62.61Z"/><path class="cls-7" d="M740.08,364.53a.62.62,0,0,1-.62.62H723.33a.62.62,0,0,1-.62-.62h0a.62.62,0,0,1,.62-.62h16.13a.62.62,0,0,1,.62.62Z"/><path class="cls-7" d="M740.08,367.6a.62.62,0,0,1-.62.62H723.33a.62.62,0,0,1-.62-.62h0a.62.62,0,0,1,.62-.62h16.13a.62.62,0,0,1,.62.62Z"/><path class="cls-69" d="M762.83,318.11a31.36,31.36,0,1,0-46.32,27.56v4.21a8.6,8.6,0,0,0,8.61,8.6h12.7a8.6,8.6,0,0,0,8.61-8.6v-4.2A31.37,31.37,0,0,0,762.83,318.11Z"/><path class="cls-70" d="M709.41,336.14s-16.14-27.87,9.35-43.85C718.76,292.29,700.06,315,709.41,336.14Z"/><path class="cls-7" d="M743.08,322.45c-1.4-1.56-2.71-1.5-3.56-1.18-2.23.86-3.83,4.53-4.43,7.37a8.74,8.74,0,0,1-1.26-.4l-1.59-.93a6.17,6.17,0,0,0,1.68-4.73c0-3-1.29-5.23-3-5.23s-3,2.25-3,5.23c0,2.21.72,4,1.79,4.81l-1.79.84a9.48,9.48,0,0,1-1.28.41c-.6-2.84-2.2-6.51-4.44-7.37-.85-.32-2.15-.38-3.55,1.18a3.74,3.74,0,0,0-.06,4.83,7.69,7.69,0,0,0,7,2.88q0,.34,0,.63v27.7h1.33v-27.7a8.39,8.39,0,0,0,0-.84,9.93,9.93,0,0,0,1.58-.5h0l2.66-1.25,2.11,1.22.08,0a9.93,9.93,0,0,0,1.58.5c0,.3,0,.58,0,.84v27.7h1.33v-27.7c0-.19,0-.4,0-.63a7.7,7.7,0,0,0,6.95-2.88A3.75,3.75,0,0,0,743.08,322.45Zm-23.43,4.06a2.42,2.42,0,0,1,0-3.17,2.21,2.21,0,0,1,1.6-.92,1.25,1.25,0,0,1,.49.1c1.62.62,3,3.83,3.59,6.32A6.26,6.26,0,0,1,719.65,326.51Zm11.26,0c-.8,0-1.69-1.67-1.69-3.91s.89-3.9,1.69-3.9,1.68,1.67,1.68,3.9S731.7,326.49,730.91,326.49Zm11.14,0a6.26,6.26,0,0,1-5.64,2.33c.56-2.49,2-5.7,3.59-6.32.25-.1,1-.39,2.09.82A2.44,2.44,0,0,1,742.05,326.51Z"/><g class="cls-71"><path class="cls-72" d="M712.82,341.06a31.32,31.32,0,0,1-7.59-5.78,31.56,31.56,0,0,0,7.59,8Z"/><path class="cls-72" d="M754,296.32a31.35,31.35,0,0,1-11.27,44.74v4.21a8.6,8.6,0,0,1-8.61,8.6h-12.7a8.49,8.49,0,0,1-4.47-1.25,8.6,8.6,0,0,0,8.16,5.86h12.7a8.6,8.6,0,0,0,8.61-8.6v-4.2A31.35,31.35,0,0,0,754,296.32Z"/></g><path class="cls-2" d="M107.12,558.5a72.68,72.68,0,0,0,145.35,0Z"/><g class="cls-73"><rect class="cls-2" x="79.88" y="534.66" width="219.72" height="131.56"/><path class="cls-2" d="M242.12,529.5c.75-.58-3.68-.84-2.34-2.52-2.26-.93-3.31,2.89-5,3.47-1.83-2.57-2-5.73-5.89-6.12-4.47.68,2.89,5.71-.15,7.94l2.64-.63c.26,2.9-1.38,4.43-3.47,5.64s-4.67,2-6.27,3.64c-2.36-.75-5.15-2.4-7.7-3.45s-4.89-1.5-6.36.22a4.92,4.92,0,0,0-.69-3.35c-1.43-.91-2.23.45-2.61,1.41-.17,4.19,3,4,3.64,6.8-.74,2.45-1,5.58-4.2,5.22l-6.17-4.34c2.36,8.6-4.8,2.92-7.22,7.53-2.92-3.46-3.8,4.23-6.73.77-1.73,1.1-6.23-10.33-9.34-12.46-3.94-1,.75-2.78-3.18-3.82,1.9-3.1,6.7,9.88,9.65,6.47l-1-1.33c.25-3.11,5.41-.07,4.22-4.64,4.43-1.41,3.07,5.62,6.81,7.73-.69-3.9,3.13-7.61.54-12.55l-3,1.79c.42-.41-.53-1.2-.57-1.74,4.75,3.43-.37-18.57,6.06-3.59.08,1.08-1.26,1.23-.7,3,2,3.21,3.19.37,4.95-.21-.3-4.31-1.71-11,1.91-10.54,1.37.38,2,2.65,3.38,3,1.55-3.25,3.36-2.93,5.38-2.37s4.22,1.32,6.43-1.06c2.89,1,4.9.16,6.94-.67s4.06-1.69,7-.73c-2.29-2.54,1.36-2.7,2.28-2.75,1.29,1,4.45,1.89,5.27.26-.74.57.57,1.55.49,2.61,2.1-3.28,5.52.74,7.42,3.26C243.28,524.63,245.91,529.24,242.12,529.5Z"/><path class="cls-2" d="M175.64,560.18c-2.75-6.29-6.26,1-7.31-7.17-2.5,0-2.75,1.51-2.8,3.85,3.32.83,0,1.16,2.64,3.16a36.89,36.89,0,0,1-4.09,4.61,40,40,0,0,1-4.46,3.69,46.14,46.14,0,0,1-4.74,3c-1.62.89-3.24,1.73-4.89,2.5-3.62-.77-5.86.49-7.37,2.84s-2.29,5.77-3.09,9.25c-3.7.06-4.73-5.31-6.06-8.77l-1.75,1-1.19.7-.53.33.15-.92c.1-.55.23-1.29.37-2l.56-2.92c-1.32-2.3-3-1.47-4.91-2.57l-.59,1.21c-2.8-5.57-1-6.62,1.65-6.9s6.12.19,6.84-2.37c-3.54,3.23,2.75,3.05,2.36,6.2l1.46-.43c-1,.81-1.39,5.11-3.83,7.5a22.76,22.76,0,0,0,5.87-3.7,31.37,31.37,0,0,0,4.82-5.13,47.68,47.68,0,0,0,3.9-6.14,68.79,68.79,0,0,0,3.14-6.61c.2.78.18,1.95,1.22,2.34,2.52-1.14.56-7.81.62-10.14l0,2.34c2.9,1.59,3.23-3.46,4.74-5,3.53,1.61,6.6,4,8.8.15l1.18,2.36,3.35-.31c-.43.77.38,1.57.78,2,.19.78-.22.38-.84.36a25.66,25.66,0,0,0,8.7,9.17c-.62,0-1.24,0-1.46.35,2.06.83,7.66,1,7.54,5.64C182.79,565.42,178.42,557.53,175.64,560.18Z"/><path class="cls-2" d="M182.13,536c-3.64-.49-.63-2.82-2.57-5l2.17-1.51C183.24,532.05,181.08,533.56,182.13,536Z"/><path class="cls-2" d="M125.24,596c-1.58-1.84-2.43.16-3.65.23-.28,1.36-.11,2.7-.26,3.76s-.64,1.84-2.2,2.18c-2.42-7.18-7.1-5.59-11.55-7.83.33-.82.41-2.49.94-3.78s1.47-2.2,3.54-1.39c1,1.86,3.5,1.67,4.73,1.58-.7-3.84-7.35-8-2.58-13.09.85.13,1.65-.64,2.5-1s1.77-.29,2.79,1.4c1.51.7-.58-3.87,2-1.67l1.31,1.1-2.11,4.39c-.43-.37-1.31-1.1-1.5-.69,1.09.9,1,2.77,1.26,4.71a6,6,0,0,0,3.32,5.14l.69-.53c.42-.32,1-.75,1.55-1.15l2.28-1.64c2.1.69,1.86,3.79.53,5.38-2-.32-2.83-.35-3.23.06S125.31,594.48,125.24,596Z"/><polygon class="cls-2" points="131.71 580.63 132.56 581.38 129.02 585.02 131.71 580.63"/><path class="cls-2" d="M111.77,607.85c0-1.53,1.51-.9,1.5-2.43l3.18,3.93Z"/><path class="cls-2" d="M138.74,555.15c-1.23-4.67,3-4.37,2-8.25-.85.4,0,1.17.18,2l2.32.38C143,553.13,140.45,553.17,138.74,555.15Z"/><path class="cls-2" d="M104.24,613.41a3.63,3.63,0,0,0-.69,2.21c0,.81,0,1.63,0,2.38,0,1.5-.3,2.7-2.57,2.87-1.54-.52-1-2.54-2.65-2.64s-.44,1.61-.17,2.72l1.44.91c-1.44-.92-3.14-1.4-4.82-2.25a9.84,9.84,0,0,1-4.64-4.55c2.29-1,1.76-4.14,1.52-6.86s-.23-5,2.94-4.24l4,3.67.84-2.45c.47.33,1.27,1.38,1.55.56-.23-2.7-2.49-1.2-4.09-3.3l1.32-5.31c.62-.1.63,1.48,1.09,1.81,1.63.35,1.45-1.2,1.43-2.54s.1-2.45,2.27-1.13c0,0-.1,1-.18,2s-.13,2-.13,2a10.11,10.11,0,0,1,4.61-1.14c1.58-.07,3.15.06,4.59.11a5.34,5.34,0,0,0-2.63,3.7,17.18,17.18,0,0,0-.42,2.55c-.07.9-.11,1.82-.16,2.7C108.54,610.68,108.16,613.68,104.24,613.41Z"/><path class="cls-2" d="M110.44,633.8l-.17,0-.32.17c.79,1.5-.11,1.71-1.23,2.09.33.36.74.67.63,1.11-1.94.4-.64.57-.87,2.12.28-.25.54-.66,1-.41l-1.4,1.94a3.82,3.82,0,0,1,2,1.9c1.49,1.26,2.51,3.47,3.7,5.13a2.78,2.78,0,0,1,1.18,0,1.27,1.27,0,0,1,.23,1.58,3,3,0,0,0,.53.35,3,3,0,0,1-.53-.35,2.35,2.35,0,0,1-.69.68,1,1,0,0,1,.79.45l1-.89a.66.66,0,0,1,.27.4l-.08-.58-.53-.19a1,1,0,0,1-.4-.81c.18-.33.5-.12.8,0l-.06-1.13c-.81-1.28-2,.63-2-1.16l.52,0c.15-.64.69-1.12.29-2.1,1.57.92.23-2.06,1.88-.36a6.86,6.86,0,0,0,2.79-2,5.11,5.11,0,0,1,1.47-1,3.67,3.67,0,0,1,2-.15c-.77-1.47-2.79-3.85-3.36-6,.3.08.68.09.84.44l-.06-1.08c-.28.23-.56.62-1.1.26.3-1.22-1.23-.76-1.73-1.48l.52-1.56-.35-.16a19.37,19.37,0,0,1-3.75,1.39,36.88,36.88,0,0,0-3.87,1.38Z"/><path class="cls-2" d="M160.83,632.27l-1.06-1.53a51.53,51.53,0,0,1,5.77-5.29,82.73,82.73,0,0,1,6.88-4.67c2.41-1.51,5-2.87,7.68-4.23s5.4-2.69,8.24-3.95c11.26-5.16,23.43-10,34.1-16.5l2.88,6.38c1.87-3.47,4.16-6.7,6.37-10a56.64,56.64,0,0,0,5.8-10.38l-2.72.16c0-4.49,3.73-9.44,7.2-10.45l.61,1.74c-3.66,3.29.58.35,1.39,5.64l-.27,1.21.87.53.27-1.22c.44,1,1.18,2.08.69,2.82l1.07-.39c4.58,3.05,6.75,6.71,9.27,11.66.21-.92-3.11-5.28.16-5.12l.61,1.74.95-4.3,2.35,1.35c.34-1.54.31-2.93,1.62-2.87l-1.6-3.32c2.46-.7,4.46-2.77,6.55-4.7a22.36,22.36,0,0,1,3.27-2.62,8.11,8.11,0,0,1,3.83-1.36c-1-3.58,3.85-1.08,4.58-5.1L275,564.86c-2.72-1.41-5.15-.59-7.54.71s-4.78,3-7.33,3.47l-.93-1.88c.52-1.06.23-2.91,1.82-2.7l-1.66-3.28c-4.3-4.93-5.72-3.25-6.42-.4s-.67,6.87-1.9,6.5c-5-1.22-2-7.95-3.23-6.64.43-3.13-1.46-4.64-3.88-5.74s-5.45-1.82-7.25-3.24c-8.27-5-14.85,3.74-20.14,7-4.46,13-21.24,11.64-29.64,16.62-2.3.7-3.38,5-4.89,8.06s-3.49,4.94-7.68.76l-4.41,1.24c-1.11.31-2.21.63-3,.88l-1.39.42-.91-1.9c-3.92,2-7.3,5.23-10.44,8.87-1.56,1.79-3.07,3.63-4.56,5.37s-2.95,3.49-4.45,4.94c-2.76,2.38-.61,7.45-5.27,3.5-4,.47-6.71,3.6-9,7.13s-4,7.71-6.59,10.09c1.17,1.46,1.62,3.59,3.26,3.62.69-2,2.58-2.69,4.66-2.36a9.78,9.78,0,0,1,5.92,3.66l-1.32.39,4.28,1.93s.06-.55.11-1.09l.12-1.09a12.3,12.3,0,0,1,2.24,2.13c3.11,0,7.47,2.44,11.28,3.5a4.33,4.33,0,0,1,1.81-2.55A6.43,6.43,0,0,1,160.83,632.27Z"/></g><g class="cls-74"><rect class="cls-20" x="776.77" y="719.37" width="118.76" height="71.11"/><path class="cls-75" d="M864.47,716.58c.41-.32-2-.45-1.27-1.36-1.22-.51-1.78,1.56-2.71,1.87-1-1.39-1.08-3.09-3.19-3.31-2.42.37,1.56,3.09-.08,4.29l1.43-.34a3,3,0,0,1-1.88,3,15,15,0,0,0-3.39,2c-1.28-.4-2.78-1.3-4.16-1.87s-2.64-.81-3.44.13a2.67,2.67,0,0,0-.37-1.82c-.77-.49-1.2.25-1.41.76-.09,2.27,1.61,2.16,2,3.68-.4,1.33-.54,3-2.26,2.82l-3.34-2.34c1.27,4.64-2.59,1.58-3.9,4.07-1.58-1.87-2.05,2.28-3.64.41-.94.6-3.37-5.58-5.05-6.73-2.13-.56.41-1.5-1.72-2.07,1-1.67,3.63,5.34,5.22,3.5l-.53-.72c.14-1.68,2.92,0,2.28-2.51,2.39-.76,1.66,3,3.68,4.18-.37-2.11,1.69-4.11.29-6.78l-1.64,1c.23-.23-.28-.65-.3-.94,2.56,1.85-.2-10,3.28-1.94,0,.58-.69.66-.38,1.6,1.09,1.73,1.72.2,2.67-.11-.16-2.33-.92-6,1-5.7.75.2,1.08,1.43,1.83,1.64.84-1.76,1.81-1.59,2.91-1.29s2.28.72,3.47-.57a4.68,4.68,0,0,0,3.75-.36,4.85,4.85,0,0,1,3.77-.39c-1.23-1.37.74-1.46,1.24-1.49.7.54,2.4,1,2.85.14-.4.31.31.84.26,1.41,1.14-1.77,3,.4,4,1.76C865.1,714,866.52,716.44,864.47,716.58Z"/><path class="cls-76" d="M828.54,733.16c-1.49-3.4-3.39.56-4-3.87-1.35,0-1.48.81-1.51,2.07,1.79.46,0,.63,1.43,1.71a20.84,20.84,0,0,1-2.21,2.5,22.1,22.1,0,0,1-2.41,2,25.52,25.52,0,0,1-2.57,1.6c-.87.48-1.75.94-2.64,1.35a3.43,3.43,0,0,0-4,1.53,16.83,16.83,0,0,0-1.67,5c-2,0-2.56-2.88-3.28-4.75l-.94.55-.65.38-.29.18s0-.2.09-.5.12-.7.2-1.09l.3-1.58c-.71-1.24-1.61-.8-2.65-1.39l-.32.65c-1.52-3-.54-3.57.89-3.73s3.31.11,3.7-1.28c-1.92,1.75,1.48,1.65,1.27,3.36l.79-.24c-.56.44-.75,2.77-2.07,4.06a12.14,12.14,0,0,0,3.17-2,17.18,17.18,0,0,0,2.61-2.77,27.49,27.49,0,0,0,2.11-3.32,37.64,37.64,0,0,0,1.69-3.58c.11.43.1,1.06.66,1.27,1.37-.62.31-4.22.34-5.48l0,1.26c1.57.86,1.75-1.87,2.56-2.7,1.91.87,3.57,2.16,4.76.08l.64,1.28,1.81-.17c-.24.41.2.85.42,1.06.1.42-.12.21-.46.2a13.88,13.88,0,0,0,4.71,5c-.34,0-.67,0-.79.2,1.11.44,4.14.52,4.07,3C832.4,736,830,731.73,828.54,733.16Z"/><path class="cls-77" d="M832,720.08c-2-.27-.34-1.53-1.38-2.68l1.17-.82C832.64,718,831.47,718.77,832,720.08Z"/><path class="cls-78" d="M801.29,752.54c-.85-1-1.31.08-2,.12-.15.74-.06,1.46-.14,2a1.28,1.28,0,0,1-1.19,1.17c-1.31-3.88-3.84-3-6.24-4.23.17-.44.22-1.35.5-2a1.29,1.29,0,0,1,1.92-.75c.54,1,1.89.9,2.56.85-.38-2.08-4-4.31-1.4-7.08.46.07.89-.34,1.36-.53s.95-.16,1.5.76c.82.38-.32-2.09,1.1-.91l.71.6-1.14,2.37c-.23-.2-.71-.59-.81-.38.59.49.54,1.5.68,2.55a3.23,3.23,0,0,0,1.79,2.78l.38-.29.84-.62,1.23-.88c1.13.37,1,2,.28,2.9-1.06-.17-1.52-.18-1.74,0S801.33,751.7,801.29,752.54Z"/><polygon class="cls-79" points="804.79 744.22 805.25 744.62 803.34 746.59 804.79 744.22"/><path class="cls-80" d="M794,758.93c0-.83.82-.49.81-1.32l1.72,2.13Z"/><path class="cls-81" d="M808.59,730.44c-.66-2.52,1.62-2.36,1.09-4.46-.47.22,0,.64.09,1.06l1.26.21C810.88,729.35,809.51,729.37,808.59,730.44Z"/><path class="cls-82" d="M789.94,761.93a2,2,0,0,0-.37,1.2c0,.43,0,.88,0,1.28,0,.82-.17,1.46-1.39,1.55-.84-.28-.54-1.37-1.43-1.43s-.24.88-.1,1.48l.78.49c-.78-.5-1.7-.76-2.6-1.22a5.23,5.23,0,0,1-2.51-2.46c1.24-.55.95-2.23.82-3.71s-.13-2.72,1.59-2.28l2.16,2,.45-1.33c.26.18.69.75.84.31-.12-1.46-1.34-.65-2.21-1.79l.71-2.87c.34,0,.34.8.6,1,.87.19.78-.65.77-1.37s0-1.33,1.23-.62c0,0-.06.53-.1,1.07l-.08,1.08a5.5,5.5,0,0,1,2.5-.62c.85,0,1.7,0,2.48.06a2.89,2.89,0,0,0-1.42,2,9.93,9.93,0,0,0-.23,1.38c0,.49-.06,1-.08,1.46C792.27,760.46,792.06,762.08,789.94,761.93Z"/><path class="cls-83" d="M793.29,773l-.08,0L793,773c.43.81-.06.93-.67,1.13.18.2.4.37.34.6-1,.22-.34.31-.47,1.15.15-.14.3-.36.56-.23l-.76,1.05a2.08,2.08,0,0,1,1.1,1,14.33,14.33,0,0,1,2,2.77,1.39,1.39,0,0,1,.64,0,.7.7,0,0,1,.13.85,1.73,1.73,0,0,0,.28.19,1.73,1.73,0,0,1-.28-.19,1.48,1.48,0,0,1-.38.37.53.53,0,0,1,.43.24l.54-.48a.35.35,0,0,1,.14.22l0-.32-.29-.1a.53.53,0,0,1-.21-.44c.1-.18.27-.06.43,0l0-.61c-.44-.69-1.08.34-1.11-.62h.28c.08-.34.37-.6.16-1.13.85.5.12-1.11,1-.2a3.66,3.66,0,0,0,1.51-1.1,2.75,2.75,0,0,1,.8-.54,2,2,0,0,1,1.1-.09,17,17,0,0,1-1.82-3.22c.17,0,.37,0,.46.24l0-.59c-.15.13-.3.34-.59.15.17-.66-.67-.41-.93-.81l.28-.84-.19-.09a10.4,10.4,0,0,1-2,.76,19.83,19.83,0,0,0-2.09.74Z"/><path class="cls-84" d="M820.53,772.13l-.57-.83a27.54,27.54,0,0,1,3.11-2.86,44.78,44.78,0,0,1,3.72-2.52c1.31-.82,2.71-1.56,4.15-2.29s2.93-1.45,4.46-2.14c6.08-2.79,12.66-5.38,18.43-8.91l1.56,3.45c1-1.88,2.25-3.63,3.44-5.41A30.78,30.78,0,0,0,862,745l-1.47.08c0-2.42,2-5.1,3.89-5.64l.32.94c-2,1.78.32.19.76,3.05l-.15.65.47.28.15-.65c.24.51.64,1.12.37,1.52l.58-.21c2.48,1.65,3.65,3.63,5,6.3.11-.5-1.68-2.85.09-2.76l.32.94.52-2.33,1.27.73c.18-.83.17-1.58.88-1.55l-.87-1.79a9.71,9.71,0,0,0,3.54-2.55,12.44,12.44,0,0,1,1.77-1.41,4.42,4.42,0,0,1,2.07-.74c-.53-1.93,2.08-.58,2.48-2.75l-1.72-1.43c-1.47-.76-2.78-.32-4.08.38a13.65,13.65,0,0,1-4,1.88l-.5-1c.28-.57.12-1.57,1-1.45l-.9-1.78c-2.32-2.66-3.08-1.76-3.46-.22s-.37,3.72-1,3.52c-2.68-.66-1.07-4.3-1.74-3.59.23-1.69-.79-2.51-2.1-3.1s-3-1-3.92-1.76c-4.47-2.71-8,2-10.89,3.79-2.41,7-11.48,6.29-16,9-1.24.38-1.82,2.7-2.64,4.36s-1.89,2.67-4.15.41l-2.39.67-1.64.48-.75.22-.49-1a19.28,19.28,0,0,0-5.64,4.8c-.85,1-1.66,2-2.47,2.9a33.5,33.5,0,0,1-2.41,2.67c-1.49,1.29-.32,4-2.84,1.89-2.19.26-3.63,1.95-4.85,3.86s-2.17,4.16-3.56,5.45c.63.79.87,1.94,1.76,2a2.11,2.11,0,0,1,2.52-1.28,5.26,5.26,0,0,1,3.2,2l-.71.21,2.31,1,.06-.59.06-.59a6.6,6.6,0,0,1,1.22,1.15c1.68,0,4,1.32,6.09,1.89a2.37,2.37,0,0,1,1-1.38A3.44,3.44,0,0,1,820.53,772.13Z"/></g><polyline class="cls-7" points="278.12 614.91 273.93 609.26 264.1 609.6 267.58 618.42 275.29 620.57"/><path class="cls-85" d="M304.42,634.86,298,617.57l-4.24,1.19.17,5.42s-16.44,14.41-17.46,17.3,6.78,19.15,6.78,19.15l18,17.81"/><rect class="cls-24" x="297.7" y="602.91" width="7.12" height="60.53" transform="matrix(0.53, -0.85, 0.85, 0.53, -395.6, 555.38)"/><path class="cls-86" d="M312.9,668.6l-5.6-15.08,4.75-5.94-2.71-11.87-17.12-2.2s-.85,5.42,4.4,6.78l2.38.51s-6.62,5.26-4.07,11,12,24.07,12,24.07"/><path class="cls-87" d="M298,617.49l-17.17,4.08s4.15,4.34,6.81,4.22a42.21,42.21,0,0,0,7.44-1.53"/><path class="cls-88" d="M410.22,709.29s-70.87,40.35-77.31,40-41.82-77.76-41.82-77.76l18.76-11.08s27.8,49.17,33.91,51.71,65.61-61.54,65.61-61.54Z"/><polyline class="cls-89" points="452.91 614.09 453.87 646.11 421.86 674.55 421.27 654.19 424.19 610.88"/><path class="cls-28" d="M442.78,612.27s7.14,22.26-20.67,31.34l-.39-15.6"/><path class="cls-24" d="M409.19,601c-22.92-7.75-46.35-45-26.23-54s75.4,19,75.4,19l-4.74,55.45L438.7,611.8"/><path class="cls-90" d="M399.2,610.37c-.58-8.26-1.62-15.36-1.62-15.36l-.87-6.66s24.1-6.35,30.84-9.9,8.15,4.26,8.15,4.26l1.88,9.73a14.85,14.85,0,0,1,1.75-2.42c4.7-.91,9.46,3.31,10.65,9.42s-1.67,11.81-6.37,12.72a7.86,7.86,0,0,1-.83.11c2.15,18.48-21,28.69-26.29,29.09C410.49,641.81,400.56,629.51,399.2,610.37Z"/><path class="cls-24" d="M416.63,602.22a1.87,1.87,0,1,0,1.48-2.19A1.88,1.88,0,0,0,416.63,602.22Z"/><path class="cls-24" d="M402.19,604.17a1.87,1.87,0,1,0,1.48-2.19A1.86,1.86,0,0,0,402.19,604.17Z"/><path class="cls-7" d="M407.79,621.24l20.08-3.88s-.69,12.7-12.35,14.36"/><path class="cls-24" d="M392.46,604.4c1,5.38,5.89,9,10.81,8s8.08-6.11,7-11.49a10.68,10.68,0,0,0-1.1-3.07l3.71-.44a10.64,10.64,0,0,0,0,4.17,10.86,10.86,0,1,0,.27-5.23l-4.56.54a9.1,9.1,0,0,0-9.13-4C394.57,593.86,391.42,599,392.46,604.4Zm21.45-3a9.85,9.85,0,1,1,11.54,7.81A9.87,9.87,0,0,1,413.91,601.42Zm-20.45,2.78c-.94-4.83,1.86-9.44,6.23-10.29s8.69,2.4,9.62,7.23-1.86,9.45-6.23,10.29S394.39,609,393.46,604.2Z"/><path class="cls-11" d="M421.91,645.55c-6.61.68-23.3,12.12-28.65,19.32-26.59,35.83-6.78,136-25.09,166.49C346.9,866.8,501.09,845,499.73,839.5s-24.16-155.08-21.44-171.41-22.52-20.63-22.52-20.63-22.88,8-30.36,8S421.91,645.55,421.91,645.55Z"/><path class="cls-91" d="M328.88,784.91a22.36,22.36,0,0,1-10.14-2.17c-4.67-2.45-11.22-13.94-11.22-13.94s-3.26-.18-2.54,5.61,7.24,10.79,3.14,14.34c-4.7,4.08-5.18,2.11-10.81,4.55-5.44,2.35-23.47-.06-23.47-.06s-1.35,8.78,7,11.13c5.44,5.25,9.33,12.4,14.4,13.85a12.8,12.8,0,0,0,8.68-.36l11.23-5.8,14.12-4.34"/><path class="cls-92" d="M445,668.55s-34,66.69-35.38,72.13S335.77,779.4,329,780.76s-2.52,29.67,1.57,31,79.13-23.82,88.63-27.55c8-3.15,71.58-76.07,65.67-105.31C476.89,639.68,449.11,660.38,445,668.55Z"/><polygon class="cls-6" points="813.72 862.56 136.92 862.56 150.48 836.78 823.84 836.78 813.72 862.56"/><polygon class="cls-93" points="203.54 801.08 265.27 801.08 254.14 836.66 192.48 837.17 203.54 801.08"/><polygon class="cls-20" points="197.55 800.82 259.29 800.82 248.15 836.41 186.5 836.92 197.55 800.82"/></g></g></svg>