<svg id="Layer_1" data-name="Layer 1" xmlns="http://www.w3.org/2000/svg" xmlns:xlink="http://www.w3.org/1999/xlink" viewBox="0 0 1011 708.37"><defs><style>.cls-1{fill:#fdbb45;}.cls-2{fill:url(#linear-gradient);}.cls-3{fill:#57bda3;}.cls-4{fill:#fff;opacity:0.5;}.cls-5{fill:#0f1329;}.cls-6{fill:#fbc74d;}.cls-7{fill:url(#linear-gradient-2);}.cls-8{fill:#eda174;}.cls-9{fill:#fde5a9;}.cls-10{fill:#181e3c;}.cls-11{fill:#e7a53f;}.cls-12{fill:#8cbfe6;}.cls-13{fill:#577fb1;}.cls-14{fill:url(#linear-gradient-3);}.cls-15{fill:#e6baaa;}.cls-16{fill:#f16363;}.cls-17{fill:#6a6c7a;}.cls-18{fill:url(#linear-gradient-4);}.cls-19{fill:#2c325a;}.cls-20{fill:url(#linear-gradient-5);}.cls-21{fill:#303749;}.cls-22{fill:#2394a3;}.cls-23{fill:url(#linear-gradient-6);}.cls-24{fill:#fcfcfb;}.cls-25{fill:url(#linear-gradient-7);}.cls-26{fill:url(#linear-gradient-8);}.cls-27{fill:#fcd781;}.cls-28{fill:#e5f1f6;}.cls-29{fill:#4b4d5a;}.cls-30{fill:#b0694b;}.cls-31{fill:#324a79;}.cls-32{fill:url(#linear-gradient-9);}.cls-33{fill:url(#linear-gradient-10);}.cls-34{fill:url(#linear-gradient-11);}.cls-35{fill:url(#linear-gradient-12);}.cls-36{fill:url(#linear-gradient-13);}.cls-37{fill:url(#linear-gradient-14);}.cls-38{fill:url(#linear-gradient-15);}.cls-39{fill:url(#linear-gradient-16);}.cls-40{fill:url(#linear-gradient-17);}.cls-41{fill:url(#linear-gradient-18);}</style><linearGradient id="linear-gradient" x1="540.4" y1="859.68" x2="540.4" y2="263.28" gradientUnits="userSpaceOnUse"><stop offset="0" stop-color="#57bda3"/><stop offset="0.68" stop-color="#2394a3"/></linearGradient><linearGradient id="linear-gradient-2" x1="275.07" y1="907.74" x2="473.84" y2="907.74" gradientUnits="userSpaceOnUse"><stop offset="0" stop-color="#f6895d"/><stop offset="0.95" stop-color="#fdbb45"/></linearGradient><linearGradient id="linear-gradient-3" x1="234.4" y1="900.02" x2="255.99" y2="900.02" gradientUnits="userSpaceOnUse"><stop offset="0" stop-color="#f89420"/><stop offset="1" stop-color="#f04f36"/></linearGradient><linearGradient id="linear-gradient-4" x1="911.71" y1="810.91" x2="1006.35" y2="810.91" xlink:href="#linear-gradient-2"/><linearGradient id="linear-gradient-5" x1="766.15" y1="546.35" x2="841.73" y2="546.35" xlink:href="#linear-gradient-3"/><linearGradient id="linear-gradient-6" x1="755.27" y1="363.62" x2="799.43" y2="363.62" xlink:href="#linear-gradient-3"/><linearGradient id="linear-gradient-7" x1="720.49" y1="835.73" x2="793.4" y2="835.73" xlink:href="#linear-gradient-3"/><linearGradient id="linear-gradient-8" x1="275.09" y1="892.07" x2="474.15" y2="892.07" xlink:href="#linear-gradient-2"/><linearGradient id="linear-gradient-9" x1="343.84" y1="519.33" x2="445.98" y2="519.33" xlink:href="#linear-gradient-3"/><linearGradient id="linear-gradient-10" x1="478.85" y1="420.96" x2="503.74" y2="420.96" xlink:href="#linear-gradient-3"/><linearGradient id="linear-gradient-11" x1="634.66" y1="386.32" x2="655.52" y2="386.32" xlink:href="#linear-gradient-3"/><linearGradient id="linear-gradient-12" x1="653.21" y1="398.03" x2="663.07" y2="398.03" xlink:href="#linear-gradient-3"/><linearGradient id="linear-gradient-13" x1="474.69" y1="527.95" x2="506.03" y2="527.95" xlink:href="#linear-gradient-3"/><linearGradient id="linear-gradient-14" x1="486.36" y1="385.12" x2="501.39" y2="385.12" xlink:href="#linear-gradient-3"/><linearGradient id="linear-gradient-15" x1="479.83" y1="378.37" x2="494.11" y2="378.37" xlink:href="#linear-gradient-3"/><linearGradient id="linear-gradient-16" x1="552.27" y1="713.18" x2="622.51" y2="713.18" xlink:href="#linear-gradient-3"/><linearGradient id="linear-gradient-17" x1="540.08" y1="777.98" x2="647.08" y2="777.98" xlink:href="#linear-gradient"/><linearGradient id="linear-gradient-18" x1="467.7" y1="662.91" x2="484.65" y2="662.91" xlink:href="#linear-gradient-3"/></defs><path class="cls-1" d="M378,342l-.12,9.24c-3,3.69-6.13,3.45-9.32.26-1.59-3,2.15-6.82-1.52-9.47C370.68,340.66,374.33,339.58,378,342Z" transform="translate(-41.99 -207.39)"/><path class="cls-1" d="M378,500.93q0,4.6-.07,9.2c-2.18,1.72-4.63,3-7.24,1.4-2.19-1.32-2.58-3.69-1.92-6.11.54-1.95-1-3-1.71-4.42l1.4,0C371.61,498.37,374.78,498.1,378,500.93Z" transform="translate(-41.99 -207.39)"/><path class="cls-1" d="M343.81,391.65c-3.16,2.06-6.4.51-9.61.21q0-20.58,0-41.17c3.34-.87,6.76-2.54,9.67,1l1.23,1.14c-2.21,5.41-.6,11-1,16.56v12.45Q343.94,386.73,343.81,391.65Z" transform="translate(-41.99 -207.39)"/><path class="cls-1" d="M334,603.68l-.06-112.93q.15-19.44.32-38.9c3.51,1.1,7.07,2.66,10-1.23,4,1.71,6.28,5.3,9.16,8.19,2.15,2.15,3.4,2.16,5.58,0,9.38-9.25,9.36-9.08-.14-18.29-2.36-2.29-3.52-1.73-5.57.23-2.95,2.84-5.11,6.6-9.17,8.21q-.45-5.25-.91-10.5c7.28-2.69,8.07-5.57,3-10.71l-1.06-1.06c-1.46-5.61-2-11.23,0-16.84,5.88-6.73,5.88-6.73-1-12l-.24-6.17q.13-4.92.25-9.84c7.56-5.94,7.56-5.94.42-12.21a4.23,4.23,0,0,0-.42-.25c.4-5.51-1.21-11.14,1-16.55,6.32-6.06,6.18-7.77-1.09-11.08,0,1.72,0,3.36,0,5s-.09,3.29-.14,4.94c-2.91-3.51-6.33-1.84-9.67-1q.07-15,.16-29.9c3.16-.36,6.32.87,9.47,0,.57,1.11-.42,2.54.86,3.7l4.37-3.7c4.79,1,9.6-.13,14.39.09,1.75.77,2.46,3,4.62,3.34l.67-7.73c-.06,3.71,1.05,5.86,5.36,4.43,1.19-.4,2.61-.09,3.92-.11q0,10.49,0,20.95c-3.66-2.42-7.31-1.34-11,0-5.84,5.51-5.84,5.52.09,10.72a2.81,2.81,0,0,0,.89.35c.71.54.64.2.37-.34.06-.43.11-.85.17-1.27,3.2,3.2,6.31,3.43,9.33-.25l.13,53.74c-2.85-3.36-6.33-1-9.54-1l0-2.79v-1.28c-.13-.45-.27-.89-.41-1.33-2.6.84-4.19,3-5.57,5.05-1.25,1.85,1.35,2.57,2.25,3.74a24.08,24.08,0,0,0,3.24,3c.65,5.42,1.17,10.85,0,16.27-6.72,6.15-6.72,6.15-1,11.47.72.94,1.39,1.63,1.59-.29-.06-1.54-.11-3.07-.17-4.6.07-.15.23-.31.21-.43a6.14,6.14,0,0,0-.34-.86c.09-1.12.18-2.23.26-3.35,3.28,2.56,6.46,3,9.44-.46l0,72.88c-3.19-2.84-6.37-2.56-9.54.05l-.16-1.87a7.17,7.17,0,0,0,0-6.23l.08-1.74c.44-.51.55-.94-.28-1.16-7.52,4.94-7.52,4.94-1.39,10.67l.36.35c.67,1.43,2.24,2.47,1.71,4.42-.66,2.41-.27,4.79,1.91,6.1,2.61,1.58,5.06.32,7.25-1.39.07,1.82.21,3.65.21,5.47q0,52.13,0,104.26c-2.83,3.45-5.6,7-9.61,9.17-.09-9-.25-17.92-.22-26.88,0-2.49-.48-4.42-2.44-6.13a95.42,95.42,0,0,1-7.42-7.36c-1.51-1.63-2.51-1.93-4.43-.26-6.7,5.82-12.32,12-10.11,21.87a13.11,13.11,0,0,1-.18,3.46A75.94,75.94,0,0,1,334,603.68Zm22.1-130.77c-1.16,0-8.07,7.37-8,8.44s7,8,8,8,8.3-7.28,8.32-8.22S357,472.88,356.1,472.91Zm8.08-111.77c-.12-1.26-7.35-8.17-8.38-8-.85.14-7.71,7.43-7.71,8.19,0,1.1,7.14,8.34,8.18,8.29S364.27,362.15,364.18,361.14ZM356,426.48c1,0,8.23-7.15,8.22-8.23S357,410,356,410s-7.79,7.08-7.89,8C348,419.13,354.85,426.43,356,426.48Zm8.31,111.36c-.09-1.07-7.54-8-8.47-7.9s-7.76,7.18-7.74,8.1c0,1.14,7.16,8.35,8.2,8.28S364.43,538.74,364.35,537.84Zm-.13-205.09c-.05-1.07-6.83-8-7.87-8s-8.28,7.12-8.23,8.23,7.34,8.15,8.44,8S364.26,333.69,364.22,332.75Zm.21,233.52c-.08-1.11-7.54-8-8.49-7.84-1.32.21-8,7.52-7.78,8.54s7.32,7.76,8.13,7.7S364.5,567.08,364.43,566.27Zm-.26-56.65c.05-1-6.58-8-7.68-8.13s-8.3,6.93-8.34,8.1c0,.83,6.79,8,7.72,8.09C357,517.81,364.11,510.89,364.17,509.62ZM356,397.81c1.3.09,7.93-6.29,8.05-7.75.08-1-6.43-8.1-7.57-8.28s-8.36,6.73-8.35,8C348.14,390.78,355,397.73,356,397.81Zm12.35,147.93c-7.87,7.14-7.87,7.14,0,12.49Zm.05,28.9c-7.87,6-7.76,8,0,11.45Zm-.11-204.73c-7.57,4.93-7.48,7.41,0,11.2Zm.36,91.13c-8.1,4.87-8.14,5.86-.74,11.43C369.1,468.71,368.43,465,368.66,461Zm-24.52,97.18c8.06-6.6,7.81-5.53.35-11.5-.11.08-.34.17-.34.25C344.14,550.58,344.14,554.18,344.14,558.22Zm.1-57.13c7.51-5.45,7.46-7.14,0-11.25ZM368.33,518c-7.71,5.59-7.68,6.47,0,11.6V518Zm-24-56.93v11.63C351.54,466.89,351.54,466.75,344.37,461Zm.06,68.69c7.2-6.34,7.11-7.64-.42-11.27,0,3.18,0,6.29,0,9.41A11,11,0,0,0,344.43,529.72Zm-.26,56.84c7.53-5.65,7.5-6.81,0-11.32Z" transform="translate(-41.99 -207.39)"/><path class="cls-1" d="M343.81,391.65l.24,6.17c.42,4-1.17,8.18,1,12-2,5.61-1.47,11.23,0,16.84-2.66,3.6.35,8.11-1.9,11.77q.46,5.25.91,10.5l.14,1.65c-2.89,3.89-6.45,2.33-10,1.23l-.06-60C337.41,392.16,340.65,393.71,343.81,391.65Z" transform="translate(-41.99 -207.39)"/><path class="cls-1" d="M378,405q.12,6.51.22,13l-.21,10c-3,3.45-6.16,3-9.44.47-.18-.65-.37-1.3-.56-1.95,1.17-5.42.66-10.84,0-16.26q.21-3.18.44-6.36C371.68,404,375.15,401.63,378,405Z" transform="translate(-41.99 -207.39)"/><path class="cls-2" d="M76.28,859.21c-138.64-260,179.44-299.38,309.06-487,170.29-156.06,346.88-135.88,527.81,6.16C1027.53,516.81,1064.51,677,1021.29,859.68Z" transform="translate(-41.99 -207.39)"/><path class="cls-3" d="M980.92,857.16C1100.22,639.4,826.53,606.42,715,449.29c-146.52-130.7-298.46-113.8-454.15,5.16-98.41,116-130.23,250.09-93,403.11Z" transform="translate(-41.99 -207.39)"/><path class="cls-4" d="M1036.24,701.91c1-24.17-2.44-48.07-4.59-72.08-2.31-7.24-4.44-14.54-5.17-22.24,0-.23,0-.45,0-.67-72-70.51-329.18-152.34-392.91-8.08.26.14.52.28.77.43a1.06,1.06,0,0,1,.56.7,8.38,8.38,0,0,1,2.68,2,28.8,28.8,0,0,1,4.55,1.95.81.81,0,0,1,.43.88c1.5.51,3.13.9,4.69,1.36a45.82,45.82,0,0,1,4.95,1.89c3.5,1.48,7.35,2.48,11.16,3.66,3.24,1,6,2.94,10,3.17a2.44,2.44,0,0,1,1.09.29c20.36-20.93,57.77-34.69,125.73-3.9,91,41.22,152.18,93,237.05,94.21A5.92,5.92,0,0,1,1036.24,701.91Z" transform="translate(-41.99 -207.39)"/><path class="cls-4" d="M704.16,768.24a19.19,19.19,0,0,1-4.58-2.27,63.46,63.46,0,0,1-7.09-2.18c-.65-.3-1-.65-1-1-2.28-.58-4.67-1-7-1.53-2.66-.58-5.1-1.36-7.59-2.12-5.45-1.66-11.14-2.78-16.86-4.11-4.87-1.13-9.54-3.29-15-3.55a5,5,0,0,1-1.61-.32c-17.79,23.52-62.08,39-168.69,4.44C318,704.82,204.09,639.69,74.85,651.15c-3.37,3-8,5.41-12.12,8.1-1.07,1.06-2,2.13-3,3.14a139.34,139.34,0,0,0-9.29,11.89v0c-3.84,7.64-7.6,15.47-7.1,23.39a1.13,1.13,0,0,1-.62,1c0,.07,0,.14,0,.2,32.06,2.18,65.57,15.54,106.44,47.63,103.53,81.31,537.45,194.74,557.29,23-.42-.15-.84-.31-1.25-.48A2.27,2.27,0,0,1,704.16,768.24Z" transform="translate(-41.99 -207.39)"/><path class="cls-5" d="M778,901.19c-6.78.07-13.57.2-20.35.2q-120.95,0-241.88,0c-2.12,0-4.24-.11-6.36-.18.93-.44,1.84-.91,2.78-1.31C526,894,528.88,876,518.07,865.52c-2.42-2.35-6.57-2.21-7.68-6l48.69-.38c6.19,3.3,12.41.45,18.64.46,30.89,0,61.79-1.31,92.7.67,17.1,1.09,34.33.29,51.5.35,3.47,3.87,7.72,5.28,13,5.18,11-.23,22,.07,32.94.16-3.69,5-6.28,10.13-5.6,16.73C763.25,892.69,769.83,897.52,778,901.19Zm-206.26-17.7c-.45-3-1.94-5.18-5.24-5s-4.91,2.29-4.81,5.41a4.56,4.56,0,0,0,4.8,4.76C569.8,888.69,571.29,886.59,571.74,883.49Zm-9.53,12.67c-.39-2-1.38-3.58-3.61-3.58-2.57,0-3.77,1.65-3.6,4.09a3.3,3.3,0,0,0,3.78,3.28C561.09,899.86,561.94,898.26,562.21,896.16Z" transform="translate(-41.99 -207.39)"/><path class="cls-5" d="M1018.76,859.64l2.53,0c.46.64.91.61,1.35,0,5.08-.24,10.17-.63,15.17.79,9.44,2.69,16,12.17,15.09,21.72-1,10.5-9.22,19.08-19.55,19.1-53.65.13-107.3,0-160.95-.11,2.87-1.65,6.28-1.92,9-4.3,13.06-11.62,11-26.94-5.84-36.32H883q64.17,0,128.35,0C1013.83,860.53,1016.46,861.28,1018.76,859.64Z" transform="translate(-41.99 -207.39)"/><path class="cls-5" d="M1018.76,859.64c-2.3,1.64-4.93.89-7.4.89q-64.17.06-128.35,0h-7.49c16.81,9.38,18.9,24.7,5.84,36.32-2.68,2.38-6.09,2.65-9,4.3l-94.4,0c-8.17-3.67-14.75-8.5-15.77-18.47-.68-6.6,1.91-11.77,5.6-16.73,4-.12,8-.48,12-.31,5.61.24,9.82-1.7,12.44-6.76l132.44.05,87.88.06Z" transform="translate(-41.99 -207.39)"/><path class="cls-5" d="M76.28,859.21l4.22,0,22.43-.1,19.15,0,49.78.05,5,.39a12.84,12.84,0,0,1-2.32.88c-10.58,1.83-16.8,9.08-16.83,19.67s4.81,16.58,16.53,21c-34.52.07-69,.26-103.57.13a20.24,20.24,0,0,1-20.06-19.78c-.41-11.35,7.23-20.35,18.67-21.88C71.63,859.35,74,859.35,76.28,859.21Z" transform="translate(-41.99 -207.39)"/><path class="cls-5" d="M174.29,901.18c-11.72-4.46-16.55-10.6-16.53-21s6.25-17.84,16.83-19.67a12.84,12.84,0,0,0,2.32-.88c5.27-.21,10.55-.35,15.82-.62,25.76-1.31,51.53-.46,77.3-.36a16,16,0,0,1,3.69.9c-6.18,2.52-12.78-.07-19.89,1.57,7.45,4.2,12.85,9.45,13.33,17.7.24,4.14,1.94,4.72,5.46,4.76,5.88.08,11.8-.84,17.63.57l-5,.82c-9.8.42-20-2.78-29.23,2.93-15-1.3-20,1.79-21.59,13.51Z" transform="translate(-41.99 -207.39)"/><path class="cls-6" d="M261.08,328.24c-9.38-.83-10.46-2-10.48-11.23,0-12.08.1-24.16-.1-36.24-.12-7.72,1.89-14.65,6.67-20.68a11.26,11.26,0,0,0,2.37-7.65c-.08-7.84.07-15.69-.05-23.53-.05-3.51.51-7,4.51-7,4.49-.09,4.95,3.59,4.87,7.3-.13,5.72-.09,11.44,0,17.16,0,1.22-1.14,3.37,1.23,3.5,1.62.08,3.4-.6,3.5-2.88a12.88,12.88,0,0,1,2.54-7.06c6.82-9.5,17.76-9.27,26.81.57l2.46,6.3c-.47,3.08,2.29,3.34,4,4.08,11.69,5.11,16.55,15,19,26.63-.22,4.8-2.1,9.49-1,14.38.81,4.1-.76,8.39,1,12.42-1.15,4.63-2.63,9.27,0,13.89-1.43,8.46-2.39,9.31-11.44,10.13l-18.94,0-18.08,0Zm25.1-9.42c6.74.15,13.48.55,20.21.37a9.43,9.43,0,0,0,9.34-9.3c0-4.95-3.83-8.34-9.8-8.39-6.53-.05-13.07.11-19.6.18-4.86-.09-9.72-.31-14.58-.22-5.54.1-9.36,3.9-9.36,9,0,4.42,4.06,8.48,9.23,8.67C276.46,319.27,281.33,318.94,286.18,318.82Zm2.67-27.53h12.7c16.1,0,16.1,0,14.17-16.24-1.13-9.43-11.06-15.64-19.65-12.15-4.77,1.94-9.66,2.62-14-.17-5.26-3.38-9.06-1.28-13,2-6.89,5.71-6.93,13.48-6.88,21.45,0,3.8,1.15,5.31,5.09,5.17C274.44,291.12,281.65,291.29,288.85,291.29Zm1.5-35.59c3.41-.09,5.92-3.11,5.92-7.12,0-4.26-3.21-6.9-7.54-6.76s-6.07,3.13-6.13,7.25C282.53,253.5,284.71,255.64,290.35,255.7Z" transform="translate(-41.99 -207.39)"/><path class="cls-1" d="M781.85,355.08c-9.92-8.37-16.84-18.25-16.23-32l12.38.05a4.44,4.44,0,0,1,1.07.28c.06.63.15,1.26.19,1.89.81,12.82,12,23.39,24.66,23.24,13.37-.17,24.65-11.39,25.15-24.39.47-12.19-8.46-25.33-25.56-26.79l0-12.68c0-3-.07-5.9-.11-8.84,0-3.43.07-6.85.11-10.27,4.66-6.06,7.54-6.05,12,0,0,3.39.07,6.79.1,10.18-.8,8.94-.8,8.95,7.76,8.95,25.22,0,50.45-.15,75.68.12,5.92.06,10.4-1.27,14.43-5.87,5.67-6.46,10.31-7.39,13.93-4,3.89,3.7,2.43,7.82-3.25,14.63-6.73,8.06-14.32,11.4-25.15,10.82-18.81-1-37.72-.29-56.59-.29h-7A49.93,49.93,0,0,1,843,324.41c-1.74,12.35-6.36,23.09-17,30.49-.81-.67-1.68-1.27-2.42-2-2.63-2.6-5.36-5.55-9.19-2.36s-1.4,6.39.79,9.36c-7.39,2.11-14.77,2.58-22.15-.05.44-.72.86-1.46,1.33-2.15,1.86-2.71,1.64-5.18-1-7.19s-5-1.55-7.27.81C784.76,352.67,783.26,353.83,781.85,355.08Z" transform="translate(-41.99 -207.39)"/><path class="cls-7" d="M473.84,908c-3.15,6.52-9,7.7-15.39,7.69q-45.42,0-90.83,0-41-.07-81.93-.27c-6.17-3.31-11.12-7.45-10.58-15.37q45.84,0,91.69,0,47.43,0,94.86-.2C462.53,907.32,468,907.88,473.84,908Z" transform="translate(-41.99 -207.39)"/><path class="cls-5" d="M473.84,908c-5.81-.08-11.31-.64-12.18-8.13,1-6.63,6-7.81,12.49-7.75-3.64-5.38-7.9-7.52-13.28-7.67-4.67-.14-9.33-.2-14-.3-.78-7.52,1.18-14,6.67-19.48,1.53-1.52,4.91-1,4.75-4.31,11.41-1.78,22.91-.49,34.36-.88a8.93,8.93,0,0,0,9.12,0l2.33,0a1.62,1.62,0,0,0,2.8,0l3.47.08c1.12,3.76,5.27,3.62,7.69,6,10.81,10.45,8,28.43-5.88,34.33-.94.4-1.85.87-2.78,1.31-3.59.1-7.19.21-10.78.29-3.88.09-7.33-.43-10.36,3.88C485,910,478.68,906.81,473.84,908Z" transform="translate(-41.99 -207.39)"/><path class="cls-8" d="M994.75,764.17c5.9-.08,11.75,2.05,17.67.28,10.05,3.64,13.86,8.84,13.89,19.36q.07,27.9,0,55.79c0,10.08-4.2,15.66-13.68,18.76l-18.12-.3c9.21-3.58,11.93-10.61,11.7-20-.4-16.26-.65-32.56.08-48.79C1006.76,778.48,1004.86,769.67,994.75,764.17Z" transform="translate(-41.99 -207.39)"/><path class="cls-9" d="M305.45,246.75l-2.46-6.3c2.12-2.13,4.83-1.19,7.26-1.19,39-.07,78,0,117-.1,2.39,0,5.15,1,7.11-1.43,1.82,3,.82,6.21.47,9.35-2.32-.07-4.64-.19-7-.19Q366.66,246.8,305.45,246.75Z" transform="translate(-41.99 -207.39)"/><path class="cls-10" d="M190.74,600.4c-2.09,3.79-5.32,4.68-9.53,4.64-19.27-.16-38.54,0-57.82,0-3.51-1.44-5.77-3.89-4.8-7.83,1-4.14,4.27-5.29,8.31-5.27q27.63.1,55.27,0C188,591.94,190.83,594.61,190.74,600.4Z" transform="translate(-41.99 -207.39)"/><path class="cls-11" d="M261.08,328.24h19c11,11.31,7.09,11.67,18.08,0l18.94,0-.15,19.07c-1.67,0-3.48-.37-5,.13-5.5,1.83-6.91-.92-6.84-5.64-.68-1.4.61-3.35-1.6-4.73-1.36,3.72-8.94,3.9-5.13,10.33-6.11-.29-12.23,1.2-18.33-.13,3.69-5.13-2.44-6-3.92-8.85-.48-.95-2.38-1.59-2.58-1-.83,2.56-2,5.27-.18,8,.29.42,0,1.22,0,1.84-4,1.12-8.05-.45-12.07,0Z" transform="translate(-41.99 -207.39)"/><path class="cls-12" d="M275.11,900c-.54,7.92,4.41,12.06,10.58,15.37-10.06-.3-20.4,2.33-30-3C249,901.3,249,897.3,256,887.86c9.27-5.71,19.43-2.51,29.23-2.93C279.35,888.27,274.75,892.47,275.11,900Z" transform="translate(-41.99 -207.39)"/><path class="cls-13" d="M815.54,275.83c0-3.39-.07-6.79-.1-10.18q31.71,0,63.43,0c3.79,0,7.85,0,7.87,5s-3.94,5.27-7.78,5.27Z" transform="translate(-41.99 -207.39)"/><path class="cls-13" d="M803.48,265.61c0,3.42-.07,6.84-.11,10.27h-61c-1.48,0-3,.06-4.45,0-3.43-.25-5.76-2-5.59-5.57.15-3.32,2.51-4.65,5.7-4.64s6.36,0,9.54,0Z" transform="translate(-41.99 -207.39)"/><path class="cls-11" d="M803.48,284.72l0,12.68,0,.56c-17.15,4.19-22.69,9.53-24.75,23.86l-.74,1.35-12.38-.05c-.6-12.45,5.37-21.9,13.86-30.18C786.74,288,794.49,284.56,803.48,284.72Z" transform="translate(-41.99 -207.39)"/><path class="cls-6" d="M467.52,239.44c10.94-10.23,24.55-7.7,28.41,5.22,1.45,4.84-.05,9.08-2.2,13.26l-7.36,5.93c-13.65,2.08-20.76-3.47-21.75-17Q466.06,243.16,467.52,239.44Zm20.25,10c-1-3.87-2.14-7.68-7-7.7-4.16,0-6.76,2.52-7,6.6s2.36,6.76,6.37,7.2C484.43,256,486.5,253.14,487.77,249.44Z" transform="translate(-41.99 -207.39)"/><path class="cls-10" d="M152.73,616c3.24,7.68,1,11.3-7.14,11.41-7.4.1-14.79.12-22.19.18-3.24-1.93-6-4.23-4.73-8.52s4.76-4.94,8.58-4.61C135.73,615.23,144.4,612.77,152.73,616Z" transform="translate(-41.99 -207.39)"/><path class="cls-14" d="M256,887.86c-7,9.44-7,13.44-.27,24.56-2.9,0-5.82.12-8.71-.07-6.93-.46-10.71-4.67-12.61-11C236,889.65,241,886.56,256,887.86Z" transform="translate(-41.99 -207.39)"/><path class="cls-1" d="M504.59,286.22l2,6.29c-5.24-.77-11.25-4.31-14,3.92-1.06-4.56-4-7.73-7.62-10.45.06-1.15.11-2.31.17-3.46l.06,0,1.13-1.39.12-2.47c.91-.68.62-1-.33-1.2a2.33,2.33,0,0,1-.3-.81c1.15-2.16-1.06-2.91-1.79-4.28,3.65-.56,6.7,1.26,9.9,2.49A33.32,33.32,0,0,1,504.59,286.22Z" transform="translate(-41.99 -207.39)"/><path class="cls-6" d="M450.62,236.49c.63-2.72,2-4.44,5.13-4,3.89.55,4.07,3.44,4.17,6.42v9.23c0,3.25-.74,6.1-4.66,6.14-5.06.05-4.38-4.11-4.93-7.29C450.43,243.5,450.52,240,450.62,236.49Z" transform="translate(-41.99 -207.39)"/><path class="cls-6" d="M434.83,247.08c.35-3.14,1.35-6.32-.47-9.35.14-3.72,2.46-5.25,5.77-5.15,4.11.13,4.25,3.36,4.38,6.42,0,2.64.09,5.29.14,7.93-.35,3.31-.19,7.24-4.86,7.36C434.94,254.41,435.42,250.24,434.83,247.08Z" transform="translate(-41.99 -207.39)"/><path class="cls-9" d="M994.5,858.06l18.12.3c0,.22,0,.45-.07.67L924.67,859c.06-.3.11-.61.14-.91Z" transform="translate(-41.99 -207.39)"/><path class="cls-15" d="M494,274.81c-3.2-1.23-6.25-3.05-9.9-2.49l-1.33-1c5.49-.41,3.47-4.46,3.62-7.46l7.36-5.93Q493.85,266.37,494,274.81Z" transform="translate(-41.99 -207.39)"/><path class="cls-16" d="M269.42,212.3c-.33,3.06-1.63,5.18-5,5.33s-5.19-1.76-5.37-4.81,1.77-5.19,4.86-5.41C267.18,207.18,268.71,209.41,269.42,212.3Z" transform="translate(-41.99 -207.39)"/><path class="cls-9" d="M444.65,246.93c0-2.64-.1-5.29-.14-7.93a5,5,0,0,0,6.11-2.51c-.1,3.51-.19,7-.29,10.51Z" transform="translate(-41.99 -207.39)"/><path class="cls-9" d="M459.92,248.15v-9.23l7.6.52q-1.45,3.72-2.9,7.44Z" transform="translate(-41.99 -207.39)"/><path class="cls-17" d="M1022.64,859.66c-.44.63-.89.66-1.35,0Z" transform="translate(-41.99 -207.39)"/><path class="cls-10" d="M694,512.91l28.61.06c17,0,27.37,10.24,27.38,27.19q0,64.51,0,129.05c0,7.42,1.6,14.25,6.22,20.19H704l45.78,46.68q0,34.71,0,69.4c-5.89.14-11.79.17-17.68.43-5.69.26-10.51,3.17-10.77,8.76-.68,14.9-1.44,29.86.42,44.75H672.45c14.43-6.65,21.29-16.43,21.29-30.55q0-88.41,0-176.81c6.74-.09,13.48-.21,20.23-.28,10.47-.1,15-6.38,12-16.69-1.43-5.59-5.55-7.44-10.77-7.55-7.11-.14-14.21-.15-21.32-.22Q693.9,570.11,694,512.91Z" transform="translate(-41.99 -207.39)"/><path class="cls-18" d="M924.81,858.06l-3-1.07c-6.9-3.19-10.11-8.62-10.09-16.17,0-19.1,0-38.19,0-57.29,0-12.56,7.1-19.51,19.81-19.59q19.41-.12,38.83-.18l24.37.41c10.11,5.5,12,14.31,11.53,25.09-.73,16.23-.48,32.53-.08,48.79.23,9.4-2.49,16.43-11.7,20Zm16.23-30a9.75,9.75,0,0,0,2.14,6.84,13.51,13.51,0,0,0,15.13,5.12c6.15-2.14,9.91-7.85,9.06-15.06-.79-6.76-.52-13.51-.85-20.26-.14-3,.08-5.1,4-5.7,3.56-.55,5.69-3.44,6.28-7.15A9.6,9.6,0,0,0,969,780.63c-5.4-1-10.12,2.57-11,8.7-1,6.55.53,13,.86,19.58.21,4.27-.82,5.91-5.51,5.82C946.07,814.6,941.14,820,941,828.1Z" transform="translate(-41.99 -207.39)"/><path class="cls-19" d="M970.38,763.76q-19.43.09-38.83.18c-12.71.08-19.78,7-19.81,19.59,0,19.1,0,38.19,0,57.29,0,7.55,3.19,13,10.09,16.17-.94,1.11-2.22,1.08-3.49,1.08l-57.81.07a19.4,19.4,0,0,1-4.67-.4c13.24-4.39,22.56-13.12,28.6-25.33a41.17,41.17,0,0,0,4.55-18.9c-.2-23.29-.09-46.58,0-69.87,0-2.23-.8-4.7,1.15-6.63.41-.47.83-.93,1.25-1.4l-.26-.15c22.77.11,45.53.34,68.29.2,3.71,0,7.4,2,11.1.14Q970.44,749.78,970.38,763.76Z" transform="translate(-41.99 -207.39)"/><path class="cls-20" d="M808.45,505.88c7.19.13,14.39.16,21.57.41s11.49,4.16,11.57,11.52q.3,28.91,0,57.82c-.06,6.59-4.67,11-11.45,11q-26.37.26-52.74,0c-7-.08-11.07-4.2-11.12-11.22q-.24-28.9,0-57.82c.06-7.4,4-11.12,11.56-11.36,7.19-.23,14.39-.26,21.59-.37A23.75,23.75,0,0,0,808.45,505.88Zm17.74,62.42c-4-8.07-.8-15.82-.94-23.49C825,532,813.84,523,800.51,524.25c-11.68,1.08-20.78,12.28-19.54,24.06,1.32,12.45,13.17,22.43,24.89,19.78C812.68,566.56,819,565.85,826.19,568.3Z" transform="translate(-41.99 -207.39)"/><path class="cls-21" d="M694,512.91q-.09,57.2-.16,114.41H683.41q0-122.44,0-244.9c0-14.95-9.3-24.08-24.29-24.17s-29.69,0-44.53,0c-.84-3.59-.51-7.19-.21-10.8,15.89,0,31.78,0,47.68,0,18.85,0,31.57,12.52,31.61,31.38.1,42.58,0,85.17,0,127.75C693.75,508.68,693.9,510.79,694,512.91Z" transform="translate(-41.99 -207.39)"/><path class="cls-5" d="M970.48,735.8c-3.7,1.82-7.39-.16-11.1-.14-22.76.14-45.52-.09-68.28-.2.58-2.45,2.67-3.72,4.26-5.34Q915.1,710.05,934.88,690h80.54Z" transform="translate(-41.99 -207.39)"/><path class="cls-19" d="M829.32,735.52l-46,.33-33.6.23L704,689.4h52.22c2.33.08,4.73.58,7,.19,15.29-2.68,26.35,3.29,36.08,15C808.36,715.65,819.22,725.28,829.32,735.52Z" transform="translate(-41.99 -207.39)"/><path class="cls-22" d="M934.88,690q-19.75,20-39.52,40.09c-1.59,1.62-3.68,2.89-4.26,5.34l.25.15-1.37,0-58.47,0q21.6-21.84,43.18-43.7a7.29,7.29,0,0,1,5.7-2.12Q907.63,690,934.88,690Z" transform="translate(-41.99 -207.39)"/><path class="cls-21" d="M808.45,505.88a23.75,23.75,0,0,1-9.05,0q0-59.27,0-118.53c0-3.15-.29-6.31-.44-9.46.84-3.45.48-6.92.11-10.39,3.42-6.07,6-6.08,9.69,0l.06,10.46q-.15,34.37-.29,68.72C808.43,466.42,808.46,486.15,808.45,505.88Z" transform="translate(-41.99 -207.39)"/><path class="cls-21" d="M495.08,347.32l109.27.07c0,3.52.11,7,.16,10.55-35,0-70-.05-105,.12-4.12,0-6-1-5.33-5.24C494.44,351,493.63,349,495.08,347.32Z" transform="translate(-41.99 -207.39)"/><path class="cls-1" d="M604.51,357.94c0-3.52-.11-7-.16-10.55.59-3.8,0-8.8,6.28-7.64,4.33.79,3.12,4.82,3.78,7.69-.3,3.61-.63,7.21.21,10.8-.17,2.71-.48,5.43-.48,8.16q-.06,32.57,0,65.13c0,3.45.22,6.94-4.18,8.07-2.86-.28-4.88-1.52-5.3-4.6a.76.76,0,0,0-.08-.83l-.18-13q.09-30,.17-59.95C604.54,360.16,604.52,359.05,604.51,357.94Z" transform="translate(-41.99 -207.39)"/><path class="cls-16" d="M808.78,378l-.06-10.46h14.52l-8.08-7.61c-2.19-3-4.68-6.13-.79-9.36s6.56-.24,9.19,2.36c.74.74,1.61,1.34,2.42,2,3.38,3.48,6.93,6.81,10.06,10.5,2.57,3,5.79,2.08,8.8,2.05,4,0,7.75.51,7.77,5.22s-3.68,5.39-7.69,5.35C832.87,377.9,820.83,378,808.78,378Z" transform="translate(-41.99 -207.39)"/><path class="cls-23" d="M799,367.53c.37,3.47.73,6.94-.11,10.39-12.52,0-25,0-37.55.07-3.57,0-5.81-1.59-6.08-5-.25-3.23,1.86-5.8,5-5.24,11,2,15.51-6.57,21.61-12.63,1.41-1.25,2.91-2.41,4.21-3.77,2.24-2.36,4.66-2.8,7.27-.81s2.87,4.48,1,7.19c-.47.69-.89,1.43-1.33,2.15-3.09,1.73-5.13,4.44-8.08,7.69Z" transform="translate(-41.99 -207.39)"/><path class="cls-1" d="M492.63,296.43c2.72-8.23,8.73-4.69,14-3.92,2.12,12.57-3,21.95-12.94,29.15l-7.25,2.28c-3.43.33-6.88,1.19-10.26-.31-2.22-4.8-3.56-9.59.24-14.29,6.46.06,12.74-.2,15.17-7.89l.89-1.26Z" transform="translate(-41.99 -207.39)"/><path class="cls-15" d="M486.41,323.94l7.25-2.28c1.22,8.51-1.25,17.23,1.42,25.66-1.45,1.65-.64,3.66-.93,5.5-.65,4.25,1.21,5.27,5.33,5.24,35-.17,70-.11,105-.12,0,1.11,0,2.22,0,3.33-1.29-2.55-3.6-2.41-6-2.41q-49.47,0-99,0c-6.5,0-6.82.61-4.31,7-2.52.84-4.9-.44-7.36-.49-.85-5.63-4.07-6.89-9.61-6.73-14.17.43-28.37,0-42.57-.07,13.47-1.49,27-.36,40.45-.61,10.17-.19,10.17,0,10.25-10.35Q486.43,335.81,486.41,323.94Z" transform="translate(-41.99 -207.39)"/><path class="cls-10" d="M846.56,477.3c-3.39,0-6.77.08-10.16,0-3.68-.11-6.09-1.93-6.17-5.78s2.15-5.92,5.9-6c7-.12,14-.07,21,0,3.74,0,6.17,1.94,6.2,5.72,0,4.13-2.59,6-6.57,6.06C853.33,477.33,850,477.29,846.56,477.3Z" transform="translate(-41.99 -207.39)"/><path class="cls-10" d="M942.94,668c-3.17,0-6.35.19-9.5,0a5,5,0,0,1-5-5.44,4.7,4.7,0,0,1,4.76-5c6.53-.24,13.09-.32,19.61,0,3,.15,5,2.4,4.69,5.68a5,5,0,0,1-5,4.77c-3.16.2-6.34.05-9.51.05Z" transform="translate(-41.99 -207.39)"/><path class="cls-10" d="M839.54,456.77c-3.36.18-6.88.33-8.7-3.35-1.34-2.69-1.19-5.69,1.49-7.3,4.61-2.78,9.74-2.53,14.41-.23,2.71,1.33,3.35,4.4,2.08,7.16C847,457,843.25,457,839.54,456.77Z" transform="translate(-41.99 -207.39)"/><path class="cls-10" d="M879,477.29c-4.81.26-8.74-.9-8.72-6.13,0-4.88,4-6,8.08-6,4.32,0,8.54,1,8.39,6.29C886.65,476.1,883.13,477.68,879,477.29Z" transform="translate(-41.99 -207.39)"/><path class="cls-10" d="M936.84,639.21c4.08-.11,8.28.32,8.25,5.52s-4.32,5.39-8.35,5.42-8.28-.3-8.24-5.52S932.79,639.1,936.84,639.21Z" transform="translate(-41.99 -207.39)"/><path class="cls-10" d="M970.7,668.16c-3.59.06-6.7-1-6.83-5.34-.14-4.53,3.24-5.46,6.82-5.51,3.81-.06,7.47.8,7.31,5.67C977.85,667.38,974.51,668.16,970.7,668.16Z" transform="translate(-41.99 -207.39)"/><path class="cls-19" d="M273.72,859.51a16,16,0,0,0-3.69-.9c-25.77-.1-51.54-1-77.3.36-5.27.27-10.55.41-15.82.62l-5-.39c-2.24-15.09-1.06-30.28-1.26-45.44-.16-12,0-12-11.89-12.64-2.1-.13-4.19-.38-6.29-.57,2.45-2.62,4.57-5.68,7.4-7.77,9.75-7.19,13.47-16.45,11.72-28.47-.74-5.14.11-10.52.24-15.8,1.83-2.62,4.51-2.62,7.33-2.56,20.07.39,40.15-.67,60.21.56a4.2,4.2,0,0,0,3.86-1.74l2.58,2.34c0,23.3-.15,46.61-.1,69.91,0,16.45,11.92,32.56,27.27,38.62,6.1,2.41,12.48,1.53,18.49,3.37Z" transform="translate(-41.99 -207.39)"/><path class="cls-5" d="M243.18,744.77a4.2,4.2,0,0,1-3.86,1.74c-20.06-1.23-40.14-.17-60.21-.56-2.82-.06-5.5-.06-7.33,2.56-1-3.46-3.9-5.45-6.26-7.81-11.91-11.89-23.86-23.72-36.79-36.56h74.66c1.55,1.72,3,3.49,4.67,5.13Q225.6,727,243.18,744.77Z" transform="translate(-41.99 -207.39)"/><path class="cls-5" d="M120.9,835.1c.35-9.58.77-19.16,1-28.75.06-2.26.34-4.09,2.56-5.13h23.36c.68.78,1.4.91,2.16.1l2.45-.76c2.1.19,4.19.44,6.29.57,11.86.69,11.73.68,11.89,12.64.2,15.16-1,30.35,1.26,45.44l-49.78-.05C121.47,851.14,123.53,843,120.9,835.1Z" transform="translate(-41.99 -207.39)"/><path class="cls-22" d="M243.18,744.77q-17.56-17.74-35.12-35.5c-1.63-1.64-3.12-3.41-4.67-5.13,16.9-.07,33.81,0,50.7-.33,3.44-.06,4.55,2.63,6.82,3.88a97.86,97.86,0,0,0,12.42,12.51L297.91,746c-17.35,2.18-34.77.73-52.15,1.12Z" transform="translate(-41.99 -207.39)"/><path class="cls-10" d="M170.81,614.5c5-.25,9,.91,8.81,6.63s-4.39,6.33-9,6.38c-4.91,0-8.84-1.5-8.68-6.83S166.28,614,170.81,614.5Z" transform="translate(-41.99 -207.39)"/><path class="cls-8" d="M150,801.31c-.76.81-1.48.68-2.16-.1Z" transform="translate(-41.99 -207.39)"/><path class="cls-5" d="M317.16,728c8-6.22,14.49-14,21.67-21a9.92,9.92,0,0,1,7.75-3.23c7.56.12,15.13-.08,22.69-.14l36.46,0,10,.36a.74.74,0,0,1,.25.83,2.67,2.67,0,0,0-1,.62,49.46,49.46,0,0,0-9.45,9.45l-32.14,31.33c-5.08-.08-10.17-.21-15.26-.23q-28.87-.06-57.74-.08c1.12-2.37,4.13-3.38,4.54-6.27C310,736.87,313.55,732.39,317.16,728Z" transform="translate(-41.99 -207.39)"/><path class="cls-24" d="M273.39,347.32c0-.62.27-1.42,0-1.84-1.85-2.73-.65-5.44.18-8,.2-.61,2.1,0,2.58,1,1.48,2.87,7.61,3.72,3.92,8.85L274.47,352C272.85,350.56,274.1,348.73,273.39,347.32Z" transform="translate(-41.99 -207.39)"/><path class="cls-24" d="M298.38,347.44c-3.81-6.43,3.77-6.61,5.13-10.33,2.21,1.38.92,3.33,1.6,4.73-.28,3.24-.56,6.47-.85,9.85C301.51,351.25,300.6,348.41,298.38,347.44Z" transform="translate(-41.99 -207.39)"/><path class="cls-9" d="M304.58,574.18a18.6,18.6,0,0,1,0-7.93A9.08,9.08,0,0,1,304.58,574.18Z" transform="translate(-41.99 -207.39)"/><path class="cls-9" d="M303,496.38l2-.36C304.74,498.47,303.89,497.59,303,496.38Z" transform="translate(-41.99 -207.39)"/><path class="cls-9" d="M304.86,449.41c0-.55,0-1.09,0-1.64C304.87,448.32,304.86,448.86,304.86,449.41Z" transform="translate(-41.99 -207.39)"/><path class="cls-9" d="M304.68,564c-.12-.49-.24-1-.35-1.47C305.38,562.83,305.24,563.38,304.68,564Z" transform="translate(-41.99 -207.39)"/><path class="cls-9" d="M304.23,388.18a.67.67,0,0,1,.48-.43C305.05,388.44,305.14,388.87,304.23,388.18Z" transform="translate(-41.99 -207.39)"/><path class="cls-25" d="M793.4,823.67q0,14.25,0,28.5c0,2.31.25,4.67-1.12,6.75-2.62,5.06-6.83,7-12.44,6.76-4-.17-8,.19-12,.31-11-.09-22-.39-32.94-.16-5.25.1-9.5-1.31-13-5.18a2.75,2.75,0,0,0-.26-1.23c-1.86-14.89-1.1-29.85-.42-44.75.26-5.59,5.08-8.5,10.77-8.76,5.89-.26,11.79-.29,17.68-.43,9.83.1,19.65.3,29.47.25,3.66,0,7.07.42,10.16,2.46C794.56,812.33,793,818.27,793.4,823.67Zm-27.83,4.24c-.2-3.68-1.43-5.57-3.83-6.48a6.07,6.07,0,0,0-7.37,2.2c-2.58,3.34-4.64,3.38-7.33,0s-6.24-4-9.38-.84c-2.88,2.86-2.47,6.34.55,8.92,3.31,2.83,3.59,5,.11,8-3,2.51-3.56,6-.77,9s6.35,2.64,8.91-.29c3.1-3.53,5.49-3.85,8.43,0,1.92,2.52,4.73,2.71,7.47,1.43,2.08-1,3.94-3.33,2.95-5.06C761.75,838.6,758.62,832.76,765.57,827.91Z" transform="translate(-41.99 -207.39)"/><path class="cls-21" d="M721.66,859.42a2.75,2.75,0,0,1,.26,1.23c-17.17-.06-34.4.74-51.5-.35-30.91-2-61.81-.66-92.7-.67-6.23,0-12.45,2.84-18.64-.46l.11-.12c7,.51,9.19-3.81,9.76-9.74,30.11,0,60.22,0,90.33,0,15,0,24.13-9.07,24.15-24.19q.09-86.49,0-173l10.29,0q0,88.41,0,176.81c0,14.12-6.86,23.9-21.29,30.55Z" transform="translate(-41.99 -207.39)"/><path class="cls-21" d="M405.52,714.93a49.46,49.46,0,0,1,9.45-9.45q.06,58.62.16,117.24c0,2.46-.78,5.09,1,7.35,2.87,12.79,10.67,19.14,23.8,19.22,18.46.12,36.91.16,55.37.22-.33,1.63-2,3.73,1.65,3.71q15.12-.11,30.23,0c2.88,0,2.69-2,2.84-3.84l23.75-.08a9.7,9.7,0,0,0,5.44,9.75l-.11.12-48.69.38-3.48-.08-2.8,0-2.33,0-9.12,0c-11.45.39-23-.9-34.36.89-2.2-1.86-4.82-.87-7.25-1-8.33-.48-16.72.9-25-1C413,854,405.87,844,405.82,829.41Q405.61,772.17,405.52,714.93Z" transform="translate(-41.99 -207.39)"/><path class="cls-6" d="M571.74,883.49c-.45,3.1-1.94,5.2-5.25,5.12a4.56,4.56,0,0,1-4.8-4.76c-.1-3.12,1.55-5.29,4.81-5.41S571.29,880.46,571.74,883.49Z" transform="translate(-41.99 -207.39)"/><path class="cls-6" d="M562.21,896.16c-.27,2.1-1.12,3.7-3.43,3.79a3.3,3.3,0,0,1-3.78-3.28c-.17-2.44,1-4.1,3.6-4.09C560.83,892.58,561.82,894.17,562.21,896.16Z" transform="translate(-41.99 -207.39)"/><path class="cls-19" d="M120.9,835.1c2.63,7.9.57,16,1.18,24l-19.15,0C111.21,852.83,117.62,845.14,120.9,835.1Z" transform="translate(-41.99 -207.39)"/><path class="cls-5" d="M426.05,858.33c8.28,1.89,16.67.51,25,1,2.43.14,5.05-.85,7.25,1,.16,3.3-3.22,2.78-4.75,4.3-5.49,5.44-7.45,12-6.67,19.48H290.25c-5.83-1.41-11.75-.49-17.63-.57-3.52,0-5.22-.62-5.46-4.76-.48-8.25-5.88-13.5-13.33-17.7,7.11-1.64,13.71.95,19.89-1.57l17.7-.5c27.2.88,54.39.57,81.59.21l14.34,0,27.74.08C418.78,859.35,422.58,860.75,426.05,858.33Z" transform="translate(-41.99 -207.39)"/><path class="cls-26" d="M290.25,884.11H446.88c4.66.1,9.32.16,14,.3,5.38.15,9.64,2.29,13.28,7.67-6.47-.06-11.44,1.12-12.49,7.75q-47.43.1-94.86.2-45.85,0-91.69,0c-.36-7.53,4.24-11.73,10.11-15.07Z" transform="translate(-41.99 -207.39)"/><path class="cls-11" d="M288.85,291.29c-7.2,0-14.41-.17-21.6.06-3.94.14-5.07-1.37-5.09-5.17-.05-8,0-15.74,6.88-21.45,4-3.28,7.76-5.38,13-2,4.35,2.79,9.24,2.11,14,.17,8.59-3.49,18.52,2.72,19.65,12.15,1.93,16.24,1.93,16.24-14.17,16.24Z" transform="translate(-41.99 -207.39)"/><path class="cls-11" d="M328.48,277.46l13.94.15q0,4.27.05,8.55l-7.08.5c2.25,2,2.19,7.4,7,4.46v13.4c-4.64-2.2-5.28,1.85-7.6,4.44l7.63.45c0,2.86,0,5.73,0,8.59l-13.92.15c-2.66-4.62-1.18-9.26,0-13.89,7.61-7.28,7.55-8.14-1-12.42C326.38,287,328.26,282.26,328.48,277.46Z" transform="translate(-41.99 -207.39)"/><path class="cls-27" d="M286.33,301.68c6.53-.07,13.07-.23,19.6-.18,6,.05,9.79,3.44,9.8,8.39a9.43,9.43,0,0,1-9.34,9.3c-6.73.18-13.47-.22-20.21-.36C289.74,313.15,290.08,307.43,286.33,301.68Z" transform="translate(-41.99 -207.39)"/><path class="cls-9" d="M286.33,301.68c3.75,5.75,3.41,11.47-.15,17.15-4.85.11-9.72.44-14.56.27-5.17-.19-9.23-4.25-9.23-8.67,0-5.07,3.82-8.87,9.36-9C276.61,301.37,281.47,301.59,286.33,301.68Zm-13.61,10.11c2.21,0,4.55-.43,4.55-3.09,0-3.6-3-3.35-5.47-3.39-2.34,0-4.37.67-4.23,3.37C267.74,311.88,270.4,311.71,272.72,311.79Z" transform="translate(-41.99 -207.39)"/><path class="cls-11" d="M290.35,255.7c-5.64-.06-7.82-2.2-7.75-6.63.06-4.12,1.85-7.1,6.13-7.25s7.55,2.5,7.54,6.76C296.27,252.59,293.76,255.61,290.35,255.7Z" transform="translate(-41.99 -207.39)"/><path class="cls-24" d="M298.15,328.23c-11,11.69-7.11,11.33-18.08,0Z" transform="translate(-41.99 -207.39)"/><path class="cls-24" d="M327.53,291.84c8.52,4.28,8.58,5.14,1,12.42C326.77,300.23,328.34,295.94,327.53,291.84Z" transform="translate(-41.99 -207.39)"/><path class="cls-27" d="M803.51,297.4c17.1,1.46,26,14.6,25.56,26.79-.5,13-11.78,24.22-25.15,24.39-12.63.15-23.85-10.42-24.66-23.24,0-.63-.13-1.26-.19-1.89l.37-.41c6.37,0,12.74-.06,19.1.18,3.66.14,5.49-.77,5.28-4.9-.34-6.78-.24-13.57-.33-20.36Z" transform="translate(-41.99 -207.39)"/><path class="cls-28" d="M799,367.53h-14.1c3-3.25,5-6,8.08-7.69,7.38,2.63,14.76,2.16,22.15.05l8.08,7.61H808.72C805.07,361.45,802.45,361.46,799,367.53Z" transform="translate(-41.99 -207.39)"/><path class="cls-27" d="M778,323.17c.25-.45.5-.9.74-1.35l.7,1.22-.37.41A4.44,4.44,0,0,0,778,323.17Z" transform="translate(-41.99 -207.39)"/><path class="cls-29" d="M492.66,859.44l9.12,0A8.9,8.9,0,0,1,492.66,859.44Z" transform="translate(-41.99 -207.39)"/><path class="cls-29" d="M504.11,859.45l2.8,0A1.62,1.62,0,0,1,504.11,859.45Z" transform="translate(-41.99 -207.39)"/><path class="cls-24" d="M779.44,323l-.7-1.22c2.06-14.33,7.6-19.67,24.75-23.86.09,6.79,0,13.58.33,20.36.21,4.13-1.62,5-5.28,4.9C792.18,323,785.81,323.08,779.44,323Z" transform="translate(-41.99 -207.39)"/><path class="cls-11" d="M487.77,249.44c-1.27,3.7-3.34,6.58-7.62,6.1-4-.44-6.62-3-6.37-7.2s2.85-6.61,7-6.6C485.63,241.76,486.75,245.57,487.77,249.44Z" transform="translate(-41.99 -207.39)"/><path class="cls-1" d="M462.12,277.52c6.54-3.17,12.9-7,20.63-6.22l1.33,1c.73,1.37,2.94,2.12,1.79,4.28-3.46-.1-8.92-2.78-9.33,2.48-.48,6.09,5.63,2.33,8.65,3.44-.06,1.15-.11,2.31-.17,3.47-12.22.56-15.82,3.7-16.34,14.24-4.73,5.06-7.66,5.33-14.12,1.3-1.85-.91-1.81-2.09-1.38-4.1C454.74,290.1,458.06,283.67,462.12,277.52Z" transform="translate(-41.99 -207.39)"/><path class="cls-11" d="M468.68,300.23c.52-10.54,4.12-13.68,16.34-14.24,3.59,2.71,6.56,5.88,7.62,10.44-.07,1.25-.13,2.51-.18,3.76l-.9,1.26c-2.43,7.69-8.71,7.95-15.17,7.89C472.48,307.44,471.11,303.38,468.68,300.23Z" transform="translate(-41.99 -207.39)"/><path class="cls-24" d="M485.19,282.52c-3-1.11-9.13,2.65-8.65-3.44.41-5.26,5.87-2.58,9.33-2.48a2.33,2.33,0,0,0,.3.81l.33,1.2-.12,2.47-1.13,1.39Z" transform="translate(-41.99 -207.39)"/><path class="cls-27" d="M485.25,282.47l1.13-1.39Z" transform="translate(-41.99 -207.39)"/><path class="cls-27" d="M486.5,278.61l-.33-1.2C487.12,277.58,487.41,277.93,486.5,278.61Z" transform="translate(-41.99 -207.39)"/><path class="cls-11" d="M693.7,652.06l-10.29,0c-4.43-.09-8.86-.3-13.28-.23-5.31.09-9.47-1.67-11.94-6.59,1-.1,2-.28,3.07-.29,3.57,0,6.27-1.34,6.27-5.26,0-4.1-3-5-6.44-4.91-1,0-2.06-.13-3.09-.2a4.57,4.57,0,0,1,.6-.79c4.58-1.37,9.65-2.78,12.14,2.7,1.65,3.64,3.94,3.77,7,3.76,12.26,0,24.52-.17,36.78.06,4.84.09,8.67-1.15,11.4-5.24,3,10.31-1.5,16.59-12,16.69C707.18,651.85,700.44,652,693.7,652.06Z" transform="translate(-41.99 -207.39)"/><path class="cls-6" d="M725.9,635.09c-2.73,4.09-6.56,5.33-11.4,5.24-12.26-.23-24.52-.1-36.78-.06-3,0-5.33-.12-7-3.76-2.49-5.48-7.56-4.07-12.14-2.7,2-4.53,5.8-6.18,10.47-6.28s9.56-.14,14.34-.21h10.41c7.1.07,14.2.08,21.31.22C720.35,627.65,724.47,629.5,725.9,635.09Zm-31.51,1.31v0c3.58,0,7.15,0,10.73,0,1.73,0,3.59-.37,3.59-2.59,0-1.82-1.57-2.39-3.12-2.4q-11-.07-22.07,0c-1.53,0-3,.65-3,2.53s1.58,2.37,3.12,2.4C687.25,636.45,690.82,636.4,694.39,636.4Z" transform="translate(-41.99 -207.39)"/><path class="cls-19" d="M793.4,823.67c-.44-5.4,1.16-11.34-4.08-15.48.06-10.37.09-20.75.2-31.13.08-7.12,4.64-11.89,11.82-12q18.1-.23,36.22,0c7.56.1,11.82,4.46,11.86,11.81q.11,18.11,0,36.22c0,7.19-3.58,11.73-10.44,11.68C823.79,824.67,808.53,826.27,793.4,823.67Zm12.4-41.54c1,4.79-1.08,6.39-4.38,7.27a5.25,5.25,0,0,0-4.17,5.61c0,2.67,1.13,4.81,3.61,5.35,5.4,1.16,6.19,4.47,4.69,8.95-1.15,3.4,1.82,3.72,3.43,5.12,1.88,1.62,3.84,2,5.54,0,3.27-3.94,6.4-4.39,9.77-.14,1.9,2.4,4.14,1.53,6.23.23s4.23-2.58,3.13-5.47c-1.74-4.51.58-6.84,4.3-8.34,2.7-1.08,3.88-2.69,3.86-5.73s-1.16-4.73-4-5.52c-3.65-1-5.52-3.73-4.41-7.16,1.16-3.61-.69-4.69-3-6.56-2.95-2.42-4.61-.37-6.61,1-2.29,1.51-4.29,3.56-7.24.89-2-1.85-3.87-4.37-7.61-2.13C805.52,777.46,804.49,779.62,805.8,782.13Z" transform="translate(-41.99 -207.39)"/><path class="cls-30" d="M890,735.66l1.37,0c-.42.47-.84.93-1.25,1.4Z" transform="translate(-41.99 -207.39)"/><path class="cls-24" d="M941,828.1c.1-8.07,5-13.5,12.29-13.37,4.69.09,5.72-1.55,5.51-5.82-.33-6.53-1.83-13-.86-19.58.9-6.13,5.62-9.73,11-8.7a9.6,9.6,0,0,1,7.77,11.26c-.59,3.71-2.72,6.6-6.28,7.15-3.89.6-4.11,2.69-4,5.7.33,6.75.06,13.5.85,20.26.85,7.21-2.91,12.92-9.06,15.06a13.51,13.51,0,0,1-15.13-5.12A9.75,9.75,0,0,1,941,828.1Z" transform="translate(-41.99 -207.39)"/><path class="cls-24" d="M826.19,568.3c-7.18-2.45-13.51-1.74-20.33-.21-11.72,2.65-23.57-7.33-24.89-19.78-1.24-11.78,7.86-23,19.54-24.06C813.84,523,825,532,825.25,544.81,825.39,552.48,822.23,560.23,826.19,568.3Zm-23.05-23.38c3.18,0,6.36,0,9.54,0a3.16,3.16,0,1,0,.12-6.32q-9.54-.18-19.07,0a3,3,0,0,0-3,3.42c.12,2.12,1.58,2.86,3.48,2.88C797.2,545,800.17,544.93,803.14,544.92ZM798,556v0a24,24,0,0,0,3.79,0c1.87-.29,3.27-1.47,3-3.44-.66-4.11-4.09-2.95-6.59-2.86-2.66.09-6.32-1.57-7.36,2.71-.47,2,.9,3.24,2.78,3.54A27.25,27.25,0,0,0,798,556Z" transform="translate(-41.99 -207.39)"/><path class="cls-28" d="M683.41,627.32c-4.78.07-9.56.11-14.34.21s-8.45,1.75-10.47,6.28a4.29,4.29,0,0,0-.6.8c-10.76-.43-20.36,1.54-25.28,13.17-8.57-8.74-18.26-13.11-30-12.74a70,70,0,0,0-21.09,4c-19,6.7-35.19,18.24-50.92,30.5-2.81,2.19-2.11,3.31.25,5.16,11.69,9.12,23.73,17.69,36.93,24.56,1.38.72,3.48.71,3.64,3l-3.82-.15a27.78,27.78,0,0,0-3.73-.48q-59.74,0-119.5,0a22.08,22.08,0,0,0-3.67.59c-10.15,2-14.52,7.13-14.54,17.5q-.07,49.56,0,99.11c0,15.13,5.11,20.28,20,20.32q33.68.11,67.34.25c-4.69,3.44-7.65,10-15.26,8.23-.86-.2-2.09,1.21-3.14,1.87-18.46-.06-36.91-.1-55.37-.22-13.13-.08-20.93-6.43-23.8-19.22.06-17.38.19-34.75.16-52.12,0-24.36-.2-48.73-.3-73.09a.74.74,0,0,0-.25-.83q.13-50.17.28-100.35c.05-15.44.17-30.89.27-46.34l11.5,9.22c0-4.89.32-8.67-.08-12.38-.5-4.74,1.08-7.72,5.25-10.27a26.37,26.37,0,0,0,12.53-19.74c.75-5.63.45-11.42.44-17.14,0-20.92-9.2-31.54-30-34.88,0-29.92,0-59.84,0-89.76,0-13.55,7.17-22,19.76-23.75,14.2.08,28.4.5,42.57.07,5.54-.16,8.76,1.1,9.61,6.73-13.14,2.29-13.14,2.29-12.95,16a34.4,34.4,0,0,0,.16,4.43c1.14,7.95,8.1,13.9,15.76,13.56a15.47,15.47,0,0,0,14.63-14.74c.16-2.52.08-5.06.06-7.59,0-9.43-1-10.48-10.3-11.15-2.51-6.43-2.19-7,4.31-7q49.49,0,99,0c2.38,0,4.69-.14,6,2.41q-.07,30-.17,59.94l-100.81.19a25.65,25.65,0,0,0-1.72-3.39c-2.75-3.86-8.47-5.69-7.83-11.94.13-1.17-1.68-1.67-3.06-1.6a3.1,3.1,0,0,0-2.75,2.24A10.09,10.09,0,0,0,494,420.32c-3.15,2.73-7.16-1.27-10.33,1.31l-3-.1c-11.46-.41-20.93,10.26-20.94,23.76q0,64.93,0,129.88c0,14.55,9.49,24.23,24.21,24.27q66.23.16,132.45,0a22.68,22.68,0,0,0,22.9-23q0-67.49,0-135c0-8.06-7.71-17.24-15.44-19.36-3.81-1-5.1-.34-4.95,3.55s0,7.64,0,11.46a4.78,4.78,0,0,1-3.38,4.84c-2.66,1.1-4.47.22-5.55-2.37,4.4-1.13,4.19-4.62,4.18-8.07q0-32.56,0-65.13c0-2.73.31-5.45.48-8.16,14.84,0,29.69-.08,44.53,0s24.29,9.22,24.29,24.17Q683.52,504.87,683.41,627.32ZM654.47,393.23c-.84-1.56.3-2.83.65-4.19,1.32-5.29-.68-9.27-5.18-11.74s-9.17-1.7-12.58,2.35-3.65,8.61-.47,12.83,7.39,5.38,12.39,3.32c1.3-.53,2.32-2,4-1.38-.35,4.07,2.84,5.78,5.36,7.89a2.39,2.39,0,0,0,3.4-.28,2.47,2.47,0,0,0,.17-3.86C660.13,395.75,657.86,393.62,654.47,393.23ZM485.12,644.94c0-6,.15-11.31-.05-16.59-.17-4.79-4.58-9.54-8.49-9.57-5.06,0-9.21,4.31-9.26,9.91-.07,7.61,0,15.23,0,22.84,0,5.44.1,10.62-3,15.77s-.06,10.24,4,13.9c3.84,3.43,9,4.28,13.35,1.94,5-2.67,9.07-7.54,6.5-13.53C484.53,661.26,485.35,652.76,485.12,644.94ZM549.44,398.6c8.69,0,17.38,0,26.07,0,3.4,0,6.83-.2,6.66-4.69s-3.59-4.53-7-4.53q-25.76,0-51.51,0c-3.48,0-6.77.51-6.68,4.8.08,4.46,3.67,4.41,7,4.4C532.48,398.58,541,398.6,549.44,398.6Zm-91.06-7.87c0-12.82,0-12.82-13-12.81l-5.71,0c-2.93,0-5.41,1.88-5.88,4.09a35.16,35.16,0,0,0,.55,18.4c1.62,4.9,6.1,2.5,9.34,3C456.37,405.42,458.39,403.61,458.38,390.73Z" transform="translate(-41.99 -207.39)"/><path class="cls-3" d="M503.57,421.4l100.81-.19.18,13-.37.45.45.39c.42,3.08,2.44,4.32,5.3,4.6,1.08,2.59,2.89,3.47,5.55,2.37a4.78,4.78,0,0,0,3.38-4.84c-.07-3.82.11-7.64,0-11.46s1.14-4.59,4.95-3.55c7.73,2.12,15.44,11.3,15.44,19.36q0,67.49,0,135a22.68,22.68,0,0,1-22.9,23q-66.23.15-132.45,0c-14.72,0-24.2-9.72-24.21-24.27q0-64.93,0-129.88c0-13.5,9.48-24.17,20.94-23.76-2.12,2.3-2.15,4.77-1,7.61,2.48,6.14,8.59,9.53,14.74,7.92C501.26,435.26,504.55,429.67,503.57,421.4Zm49.59,20.06H536.62c-7.08.2-11,3.35-11.23,10.22-.32,11.65-.27,23.33.15,35,.24,6.74,3.87,9.77,10.75,9.85,11.24.13,22.48.16,33.72,0,6.84-.09,10.52-3.83,10.62-10.77q.23-16.53,0-33.08c-.08-7.27-3.76-11-10.94-11.16C564.19,441.35,558.67,441.47,553.16,441.46Zm-48.4,127.45c-7.83,0-15.66.07-23.49,0-3.9-.06-7,1.19-7.2,5.35-.18,4.61,3.18,6,7.25,6h47c3.86,0,6.79-1.42,6.81-5.74s-3-5.6-6.87-5.59Zm-21.17-53.62c-4.36,0-6.65,1.72-8,4.59a7.47,7.47,0,0,0,1.35,8.85c4.24,4.41,8.24,11.08,13.28,12.08,4.34.85,8.1-6.93,12.34-10.66a11.36,11.36,0,0,0,1.29-1.39c2.8-3.4,2.95-7.12.39-10.51a7.34,7.34,0,0,0-10.23-2c-2.72,1.65-4.62,2.17-7.18,0C485.78,515.46,484.06,515.43,483.59,515.29ZM604.27,577.9c4.88,0,9.75,0,14.62,0,3.33,0,6.11-.92,6.3-4.68.21-4.12-2.64-5.42-6.25-5.43q-14.3,0-28.6,0c-3.37,0-5.93,1.32-6,5.07s2.53,5,5.92,5Q597.28,577.92,604.27,577.9ZM488.81,561.24v-.06c3.61,0,7.23.22,10.8-.07a4.92,4.92,0,0,0,4.8-5c.21-3.3-1.51-5.69-4.56-5.85-7-.37-14-.35-21,0a5.08,5.08,0,0,0-4.91,5.65,5.27,5.27,0,0,0,5.29,5.33C482.45,561.37,485.63,561.24,488.81,561.24Zm123.79-1.81v.12c2.54,0,5.08.17,7.59,0,3.14-.25,5.17-2,5.06-5.29-.09-3-2-4.7-4.89-4.77-5.48-.15-11-.12-16.44.09a4.46,4.46,0,0,0-4.48,4.5,4.67,4.67,0,0,0,4.33,5.31A72.2,72.2,0,0,0,612.6,559.43Zm-41.82,18.43c3-.38,4.61-2.22,4.55-5.11s-1.82-4.85-4.81-4.8S566,570.23,566,573,567.73,577.69,570.78,577.86Z" transform="translate(-41.99 -207.39)"/><path class="cls-15" d="M604.64,435l-.45-.39.37-.45A.78.78,0,0,1,604.64,435Z" transform="translate(-41.99 -207.39)"/><path class="cls-1" d="M468.68,300.23c2.43,3.15,3.8,7.21,7.71,9.11-3.8,4.7-2.46,9.49-.24,14.29-5.38,0-9.28-3.73-13.91-5.62-2.21-5.66-7.56-9.85-7.68-16.48C461,305.56,464,305.29,468.68,300.23Z" transform="translate(-41.99 -207.39)"/><path class="cls-6" d="M491.56,301.45l.9-1.26C492.15,300.61,491.86,301,491.56,301.45Z" transform="translate(-41.99 -207.39)"/><path class="cls-21" d="M435.76,358.64c-12.59,1.78-19.73,10.2-19.76,23.75-.08,29.92,0,59.84,0,89.76l-10.22,0q0-46.12,0-92.25c0-20.4,12.08-32.44,32.36-32.41,16.11,0,32.23.16,48.34.24-.08,10.31-.08,10.16-10.25,10.35C462.73,358.28,449.23,357.15,435.76,358.64Z" transform="translate(-41.99 -207.39)"/><path class="cls-1" d="M495.3,365.93c9.28.67,10.26,1.72,10.3,11.15,0,2.53.1,5.07-.06,7.59a15.47,15.47,0,0,1-14.63,14.74c-7.66.34-14.62-5.61-15.76-13.56a34.4,34.4,0,0,1-.16-4.43c-.19-13.69-.19-13.69,12.95-16C490.4,365.49,492.78,366.77,495.3,365.93Zm6.09,15c-.66-2.59-2.74-4.09-5-2.37a46.87,46.87,0,0,0-9.34,9.32c-1.68,2.29-.14,4.49,2.92,4.58C492.06,392.5,501.35,383.12,501.39,380.91Zm-7.28-6.71c-.07-2.19-1.65-3.56-3.67-2.6a24.24,24.24,0,0,0-10.18,9.9c-1.24,2.09.35,4.06,3.13,3.94C485.38,385.35,494,376.37,494.11,374.2Z" transform="translate(-41.99 -207.39)"/><path class="cls-31" d="M749.69,805.48q0-34.69,0-69.4l33.6-.23,46-.33,2.19.1,58.47,0,.12,1.35c-2,1.93-1.14,4.4-1.15,6.63-.06,23.29-.17,46.58,0,69.87a41.17,41.17,0,0,1-4.55,18.9c-6,12.21-15.36,20.94-28.6,25.33a19.4,19.4,0,0,0,4.67.4l57.81-.07c1.27,0,2.55,0,3.48-1.08l3,1.07c0,.3-.08.61-.14.91l-132.44-.05c1.37-2.08,1.12-4.44,1.12-6.75q0-14.25,0-28.5c15.13,2.6,30.39,1,45.58,1.12,6.86.05,10.41-4.49,10.44-11.68q.11-18.12,0-36.22c0-7.35-4.3-11.71-11.86-11.81q-18.1-.24-36.22,0c-7.18.09-11.74,4.86-11.82,12-.11,10.38-.14,20.76-.2,31.13-3.09-2-6.5-2.48-10.16-2.46C769.34,805.78,759.52,805.58,749.69,805.48Z" transform="translate(-41.99 -207.39)"/><path class="cls-31" d="M102.93,859.13l-22.43.1c0-17.18-.24-34.37.07-51.55.1-5.21-1.73-8.77-5.29-12.22-5.58-5.4-10.79-11.18-17-17.7,13.36,0,25.93,0,38.49,0,2.17,0,3.26,1.88,4.58,3.17,5.61,5.48,11.19,11,16.66,16.64,1.84,1.9,3.78,3.34,6.45,3.63-2.22,1-2.5,2.87-2.56,5.13-.22,9.59-.64,19.17-1,28.75C117.62,845.14,111.21,852.83,102.93,859.13Z" transform="translate(-41.99 -207.39)"/><path class="cls-31" d="M373,859.22c-27.2.36-54.39.67-81.59-.21-6-1.84-12.39-1-18.49-3.37-15.35-6.06-27.24-22.17-27.27-38.62,0-23.3.06-46.61.1-69.91,17.38-.39,34.8,1.06,52.15-1.12l2.47,0q28.88,0,57.74.08c5.09,0,10.18.15,15.26.23q0,37.41-.11,74.81Q373.14,840.15,373,859.22ZM276.77,770v0c5.06,0,10.12,0,15.18,0,3.42,0,5.83-1.6,5.76-5.23s-2.87-3.64-5.53-3.64q-15.49,0-31,0c-3,0-5.94.69-6,4.11,0,3.2,2.75,4.62,5.73,4.71C266.22,770.15,271.49,770,276.77,770ZM267.94,774v.1c-2.95,0-5.92-.16-8.86.06a4,4,0,0,0-.9,7.86,40.56,40.56,0,0,0,18.11.11,4.09,4.09,0,0,0,3.23-4.81c-.35-2.38-2.12-3.45-4.6-3.34C272.6,774,270.27,774,267.94,774Z" transform="translate(-41.99 -207.39)"/><path class="cls-32" d="M405.74,472.1l10.22,0c20.75,3.34,29.91,14,30,34.88,0,5.72.31,11.51-.44,17.14a26.37,26.37,0,0,1-12.53,19.74c-4.17,2.55-5.75,5.53-5.25,10.27.4,3.71.08,7.49.08,12.38l-11.5-9.22c-3.42-2.45-5.38-7-10.37-7.18a1.77,1.77,0,0,0-1,0c-9.73-.14-19.46-.31-29.19-.4-18-.18-31.44-13.23-31.63-31.15-.08-7-.7-14,.61-20.92a30.73,30.73,0,0,1,29.94-25.32C385,472.23,395.36,472.19,405.74,472.1Zm-25.36,27v-.05c-4,0-8,0-12,0-2.8,0-5.27.76-5.41,4s2.44,4.27,5.14,4.31c8.22.11,16.44.08,24.66,0,2.54,0,4.73-1,4.73-4,0-3.21-2.16-4.26-5.08-4.24C388.39,499.12,384.39,499.1,380.38,499.1Zm34.56,0v0c-2.1,0-4.2,0-6.3,0-2.65,0-4.65,1.33-4.81,4s1.93,4.12,4.49,4.22c4.41.15,8.83.15,13.23,0,2.59-.07,4.6-1.34,4.46-4.21s-2.16-3.91-4.77-4C419.14,499.05,417,499.1,414.94,499.1Zm-.87,24.18c2.74,0,5.48.05,8.22,0a3.59,3.59,0,0,0,3.71-3.57,3.47,3.47,0,0,0-3.25-4c-5.46-.25-10.94-.22-16.41,0-2.16.07-3.4,1.8-3.37,3.9a3.45,3.45,0,0,0,3.52,3.69C409,523.37,411.55,523.28,414.07,523.28Zm-34,.09c2.81.1,5.39-.66,5.27-3.92-.13-3.57-3-4.07-6-4-2.75.07-5.29.57-5.21,4C374.23,523.34,377.21,523.37,380.07,523.37Zm16.07,0c1.49,0,4.3-.33,4.43-3.62.14-3.57-2.6-4.34-5.66-4.33s-5.72.51-5.52,4.32C389.58,523.18,392.28,523.4,396.14,523.38Z" transform="translate(-41.99 -207.39)"/><path class="cls-10" d="M404.88,550.19a1.77,1.77,0,0,1,1,0q-.09,76.76-.17,153.51l-36.46,0q0-41,0-82c0-16,7.35-23.28,23.37-23.31,12.21,0,12.21,0,12.21-12.48Z" transform="translate(-41.99 -207.39)"/><path class="cls-1" d="M342.4,304.52q0-6.7,0-13.4c-1.25-1.67,7-3.22.06-5q0-4.28-.05-8.55l109.58,0c-2.22,2.41-3.15,5.4-3.86,8.5l-7.76.73,5.29,5.75c0,3.49,0,7,0,10.45-1.11,2.19-4,3-4.54,6l7.06.33c-.36,3.58,2.1,5.92,3.75,8.62l-7.59.47L425.33,318c2.28-3.71.92-7-1.06-10.3-5.08-5.29-5.08-5.29-10.39,1.44l-1.28.15c-4.73-.61-9.66.89-14.25-1.34-4.08-5.75-7.61-4-10.92.81-1.75,3-.82,6.16-.38,9.28l-44.6-.05c0-2.86,0-5.73,0-8.59C349.74,307.72,340.84,306.16,342.4,304.52ZM361,298.16c-.12-1.66-7-8.28-7.66-7.81a23.68,23.68,0,0,0-7.39,7.42c-.62,1.07,6.69,7.94,7.79,7.34C356.86,303.37,359,300.5,361,298.16Zm26.65-.42c-2.5-2.92-4.7-7.07-7.88-7s-7.1,4-7,7.07,3.85,7,7.15,7S385.26,300.73,387.61,297.74Zm26.84.13c-3.1-2.94-5.09-7.42-8.39-7.09-3,.3-7.12,4-6.81,7.24.28,3,4,7.17,7.24,6.79C409.31,304.47,411.68,300.46,414.45,297.87Zm26.27,0c-2.34-2.95-4.68-6.93-7.74-7.07s-7,3.77-7.1,6.88,3.77,7,6.89,7.16S438.09,300.65,440.72,297.84Zm-79.88-11.32c6.35,7.31,7.27,7.24,10.24,0Zm26.61.19c6,7,6,7,10.56,0Zm37.34.06H414.37C419.6,293.36,419.6,293.36,424.79,286.77Zm-53,22.07c-5.4-6.29-5.4-6.29-9.88,0Z" transform="translate(-41.99 -207.39)"/><path class="cls-11" d="M448.14,286.13c.71-3.1,1.64-6.09,3.86-8.5l10.12-.11c-4.06,6.15-7.38,12.58-8.94,19.91-.43,2-.47,3.19,1.38,4.1.12,6.63,5.47,10.82,7.68,16.48L452,318c-1.65-2.7-4.11-5-3.75-8.62l3.75-.62-6.27-5.68c0-3.48,0-7,0-10.45a17.19,17.19,0,0,0,5.72-5.78Z" transform="translate(-41.99 -207.39)"/><path class="cls-1" d="M387.05,318.05c-.44-3.12-1.37-6.25.38-9.28,3.67.08,7.45,1.66,10.92-.81,4.59,2.23,9.52.73,14.25,1.33-2,2.69-1.2,5.81-1.33,8.79Z" transform="translate(-41.99 -207.39)"/><path class="cls-1" d="M411.27,318.08c.13-3-.67-6.1,1.33-8.79l1.28-.14c3.44-.64,7.26,1.43,10.39-1.44,2,3.26,3.34,6.59,1.06,10.3Z" transform="translate(-41.99 -207.39)"/><path class="cls-10" d="M373.27,821.07q.06-37.41.11-74.81l32.14-31.33q.14,57.24.3,114.48C405.87,844,413,854,426.05,858.33c-3.47,2.42-7.27,1-11,.95-1.82-7.39-7.23-10.08-14.13-10.82.22-5.89.53-11.69-2.83-17.11C392.24,821.85,383,820.92,373.27,821.07Z" transform="translate(-41.99 -207.39)"/><path class="cls-21" d="M405.73,703.67q.09-76.75.17-153.51c5,.19,7,4.73,10.37,7.18-.1,15.45-.22,30.9-.27,46.34q-.17,50.18-.28,100.35Z" transform="translate(-41.99 -207.39)"/><path class="cls-17" d="M416,704.86c.1,24.36.26,48.73.3,73.09,0,17.37-.1,34.74-.16,52.12-1.76-2.26-1-4.89-1-7.35Q415,764.1,415,705.48A2.67,2.67,0,0,1,416,704.86Z" transform="translate(-41.99 -207.39)"/><path class="cls-24" d="M765.57,827.91c-7,4.85-3.82,10.69-.26,16.9,1,1.73-.87,4.1-2.95,5.06-2.74,1.28-5.55,1.09-7.47-1.43-2.94-3.89-5.33-3.57-8.43,0-2.56,2.93-6.09,3.33-8.91.29s-2.22-6.44.77-9c3.48-2.93,3.2-5.15-.11-8-3-2.58-3.43-6.06-.55-8.92,3.14-3.12,6.73-2.44,9.38.84s4.75,3.29,7.33,0a6.07,6.07,0,0,1,7.37-2.2C764.14,822.34,765.37,824.23,765.57,827.91Z" transform="translate(-41.99 -207.39)"/><path class="cls-28" d="M658.19,645.26c2.47,4.92,6.63,6.68,11.94,6.59,4.42-.07,8.85.14,13.28.23q0,86.51,0,173c0,15.12-9.16,24.16-24.15,24.19q-45.16.11-90.33,0c-1.09-4-2.84-7.7-7.65-7.62-4.66.07-6.85,3.28-7.55,7.62l-23.75.08c-.72-4.57-4-7.27-7.29-10,2.12-.08,4.23-.23,6.33-.23q62.87,0,125.71,0c7.31,0,13.34-1.85,16.46-9.16,2.39-3.12,2-6.81,2-10.37q0-49,0-98c0-2.54.23-5.12-.93-7.51-1.69-6.87-6.25-10.56-13-11.79-9.55-1.28-19.1-.91-28.66-.21h-2.76c0-2.25,2.06-3,3.3-4.37A37.42,37.42,0,0,0,641.75,672c.12-5.48-.07-11,.07-16.46.17-6.67,3.61-10.22,10-10.52C654,645,656.08,645.19,658.19,645.26Z" transform="translate(-41.99 -207.39)"/><path class="cls-6" d="M553.75,849.3c.7-4.34,2.89-7.55,7.55-7.62,4.81-.08,6.56,3.61,7.65,7.62-.57,5.94-2.76,10.26-9.76,9.75A9.7,9.7,0,0,1,553.75,849.3Z" transform="translate(-41.99 -207.39)"/><path class="cls-6" d="M522.71,839.4c3.27,2.71,6.57,5.41,7.29,10-.15,1.87,0,3.85-2.84,3.84q-15.12-.09-30.23,0c-3.66,0-2-2.08-1.65-3.71,1.05-.66,2.28-2.07,3.14-1.87,7.61,1.77,10.57-4.79,15.25-8.23Z" transform="translate(-41.99 -207.39)"/><path class="cls-6" d="M373.27,821.07c9.76-.15,19,.78,24.86,10.28,3.36,5.42,3.05,11.22,2.83,17.11-6.79.73-11.74,3.79-13.61,10.74l-14.34,0Q373.15,840.14,373.27,821.07Z" transform="translate(-41.99 -207.39)"/><path class="cls-16" d="M387.35,859.2c1.87-7,6.82-10,13.61-10.74,6.9.74,12.31,3.43,14.13,10.82Z" transform="translate(-41.99 -207.39)"/><path class="cls-24" d="M342.47,286.16c7,1.74-1.31,3.29-.06,5-4.83,2.94-4.77-2.5-7-4.46Z" transform="translate(-41.99 -207.39)"/><path class="cls-24" d="M342.4,304.52c-1.56,1.64,7.34,3.2,0,4.89L334.8,309C337.12,306.37,337.76,302.32,342.4,304.52Z" transform="translate(-41.99 -207.39)"/><path class="cls-24" d="M272.71,311.79c-2.31-.08-5,.09-5.14-3.11-.14-2.7,1.89-3.41,4.23-3.37,2.51,0,5.49-.21,5.47,3.39C277.27,311.36,274.93,311.76,272.71,311.79Z" transform="translate(-41.99 -207.39)"/><path class="cls-31" d="M658.19,645.26c-2.11-.07-4.22-.3-6.32-.2-6.44.3-9.88,3.85-10,10.52-.14,5.48,0,11-.07,16.46a37.42,37.42,0,0,1-10.59,25.71c-1.24,1.32-3.26,2.12-3.3,4.37-9.78,4.39-19.54,8.91-30.76,6.33,2.35-3.06,4.66-6.3,4-10.32-.62-3.76,1.34-4.34,4.23-5.23a24,24,0,0,0,17.19-23.25,24.58,24.58,0,0,0-18-22.74c-10.32-2.66-20.44,1.67-26.49,11.33-1.81,1.69-2.23,4-2.66,6.27-1.79,9.21-.79,18.51-.67,27.79l-.25,7.76c-.12.77-.25,1.55-.37,2.32l-2.53-.12c-.16-2.27-2.26-2.26-3.64-3-13.2-6.87-25.24-15.44-36.93-24.56-2.36-1.85-3.06-3-.25-5.16,15.73-12.26,31.88-23.8,50.92-30.5a70,70,0,0,1,21.09-4c11.69-.37,21.38,4,30,12.74,4.92-11.63,14.52-13.6,25.28-13.17,1,.06,2.06.21,3.09.19,3.47-.06,6.43.81,6.44,4.91,0,3.92-2.7,5.23-6.27,5.26C660.24,645,659.21,645.16,658.19,645.26Z" transform="translate(-41.99 -207.39)"/><path class="cls-11" d="M694.39,636.4c-3.57,0-7.14.05-10.72,0-1.54,0-3.06-.56-3.12-2.4s1.44-2.52,3-2.53q11-.11,22.07,0c1.55,0,3.13.58,3.12,2.4,0,2.22-1.86,2.56-3.59,2.59-3.58.07-7.15,0-10.73,0Z" transform="translate(-41.99 -207.39)"/><path class="cls-22" d="M805.8,782.13c-1.31-2.51-.28-4.67,3.13-6.71,3.74-2.24,5.56.28,7.61,2.13,3,2.67,5,.62,7.24-.89,2-1.33,3.66-3.38,6.61-1,2.29,1.87,4.14,2.95,3,6.56-1.11,3.43.76,6.15,4.41,7.16,2.87.79,4,2.46,4,5.52s-1.16,4.65-3.86,5.73c-3.72,1.5-6,3.83-4.3,8.34,1.1,2.89-1.14,4.22-3.13,5.47s-4.33,2.17-6.23-.23c-3.37-4.25-6.5-3.8-9.77.14-1.7,2.05-3.66,1.66-5.54,0-1.61-1.4-4.58-1.72-3.43-5.12,1.5-4.48.71-7.79-4.69-8.95-2.48-.54-3.6-2.68-3.61-5.35a5.25,5.25,0,0,1,4.17-5.61C804.72,788.52,806.8,786.92,805.8,782.13Zm5.27,12.43c0,5.35,4.44,10.08,9.27,9.89s8.83-4.8,8.73-9.79a9.29,9.29,0,0,0-9.16-9.24C814.25,785.46,811.07,788.75,811.07,794.56Z" transform="translate(-41.99 -207.39)"/><path class="cls-13" d="M803.14,544.92c-3,0-5.94,0-8.9,0-1.9,0-3.36-.76-3.48-2.88a3,3,0,0,1,3-3.42q9.53-.23,19.07,0a3.16,3.16,0,1,1-.12,6.32C809.5,545,806.32,544.92,803.14,544.92Z" transform="translate(-41.99 -207.39)"/><path class="cls-13" d="M798,556a27.25,27.25,0,0,1-4.43-.05c-1.88-.3-3.25-1.59-2.78-3.54,1-4.28,4.7-2.62,7.36-2.71,2.5-.09,5.93-1.25,6.59,2.86.32,2-1.08,3.15-3,3.44a24,24,0,0,1-3.79,0Z" transform="translate(-41.99 -207.39)"/><path class="cls-21" d="M571.58,702.26l2.53.12.71,4c-.1,6.13-.48,12.26-.19,18.37.2,4-.91,5.75-4.92,7-11.59,3.65-18.05,13.65-17.39,25.69.6,11,7.15,17.62,16.22,22.46-5.5.09-11,.09-16.5.3-6.82.26-11.83,5.17-12,11.51-.12,6.1,4.48,11.72,10.94,11.78,24.57.21,49.16.42,73.72-.27,12-.33,21.42-11.77,22.29-23.82,1-14.29-12.33-32.29-35.09-25.87-2.75-14.45-10.6-21.81-24.75-23.23-.21-.72-.41-1.44-.62-2.16,0-.9,0-1.8,0-2.69L587,712a21.25,21.25,0,0,0,10.13-3.5c11.22,2.58,21-1.94,30.76-6.33h2.75c9.55.85,19.11.46,28.67.21,6.78,1.23,11.34,4.92,13,11.79-1.42,1.35-1.13,3.11-1.13,4.78q0,55.56,0,111.14c-3.12,7.31-9.15,9.17-16.46,9.16q-62.85-.11-125.71,0c-2.1,0-4.21.15-6.33.23h-9q-33.66-.13-67.33-.25c-14.92,0-20-5.19-20-20.32q0-49.56,0-99.11c0-10.37,4.39-15.51,14.53-17.5,2.1.11,4.21.31,6.31.32q57.16,0,114.32,0c2.1,0,4.19-.28,6.28-.43Zm-39.58,70c-.09-2.48-1.13-4.69-4.29-4.68-2.73,0-4.06,1.88-4.19,4.5-.14,3,1.39,5,4.27,5.1C530.41,777.25,531.77,775.23,532,772.26Zm82-41.44c-2.56.32-4.08,1.71-4.24,4.43s.73,5.14,3.86,5.37c2.75.2,4.1-1.65,4.3-4.3C618.08,733.49,617.08,731.44,614,730.82ZM543.33,749.6c-2.89.24-4.12,2-4.26,4.55-.14,2.91,1.24,5.08,4.21,5.08s4.21-2.25,4.14-5.13A4.23,4.23,0,0,0,543.33,749.6Zm5.55-15.71c-2.64.28-4.12,1.71-4.15,4.53,0,2.58.69,4.76,3.64,5,3.26.29,4.5-1.7,4.56-4.7C553,736,551.76,734.33,548.88,733.89ZM599.8,720.3c-2.77.13-3.92,1.77-4,4.49-.06,3,1.1,5,4.28,4.89,2.82-.12,3.83-2.17,3.78-4.8S602.82,720.44,599.8,720.3Z" transform="translate(-41.99 -207.39)"/><path class="cls-3" d="M485.12,644.94c.23,7.82-.59,16.32,3,24.67,2.57,6-1.5,10.86-6.5,13.53-4.36,2.34-9.51,1.49-13.35-1.94-4.08-3.66-7.23-8.64-4-13.9s3-10.33,3-15.77c0-7.61,0-15.23,0-22.84.05-5.6,4.2-10,9.26-9.91,3.91,0,8.32,4.78,8.49,9.57C485.27,633.63,485.12,638.92,485.12,644.94Zm-4.2,13c0-1.7,0-2.55,0-3.39-.11-3.73.75-8.71-4.62-8.8s-4.72,4.87-4.8,8.62c-.11,5,.4,9.82-2.79,14.5-2.16,3.18-.63,7,2.69,9.43a7.72,7.72,0,0,0,10-.25c3.13-2.51,4.38-6.27,2.19-9.61A16,16,0,0,1,480.92,658Z" transform="translate(-41.99 -207.39)"/><path class="cls-21" d="M549.44,398.6c-8.48,0-17,0-25.44,0-3.31,0-6.9.06-7-4.4-.09-4.29,3.2-4.81,6.68-4.8q25.75,0,51.51,0c3.37,0,6.81.18,7,4.53s-3.26,4.7-6.66,4.69C566.82,398.58,558.13,398.6,549.44,398.6Z" transform="translate(-41.99 -207.39)"/><path class="cls-3" d="M458.38,390.73c0,12.88-2,14.69-14.71,12.71-3.24-.51-7.72,1.89-9.34-3a35.16,35.16,0,0,1-.55-18.4c.47-2.21,3-4.1,5.88-4.09l5.71,0C458.38,377.91,458.38,377.91,458.38,390.73Zm-11.84-6.29v0c-1.48,0-3-.09-4.44,0-1.7.14-3,1.19-2.64,2.87.62,2.84,3.19,2.4,5.2,2.19,2.74-.29,6.25,1.63,8-1.92.7-1.43-.62-2.83-2.29-3.09A24.2,24.2,0,0,0,446.54,384.44Z" transform="translate(-41.99 -207.39)"/><path class="cls-33" d="M503.57,421.4c1,8.27-2.31,13.86-9.23,15.66-6.15,1.61-12.26-1.78-14.74-7.92-1.14-2.84-1.11-5.31,1-7.61l3,.1c1.41,1.12,1.71,2.76,2.16,4.39.76,2.69,2.53,4.32,5.43,4.37,2.53.05,4.55-.91,5.41-3.44,1-2.92.59-5.37-2.67-6.63a10.09,10.09,0,0,1-5.74-13.61,3.1,3.1,0,0,1,2.75-2.24c1.38-.07,3.19.43,3.06,1.6-.64,6.25,5.08,8.08,7.83,11.94A25.65,25.65,0,0,1,503.57,421.4Z" transform="translate(-41.99 -207.39)"/><path class="cls-34" d="M653.29,394.42c-1.69-.58-2.71.85-4,1.38-5,2.06-9.26.82-12.39-3.32s-2.9-8.84.47-12.83,8-4.87,12.58-2.35,6.5,6.45,5.18,11.74c-.35,1.36-1.49,2.63-.65,4.19l.1-.07c-1.31-.4-1.66.16-1.36,1.36Zm-2.63-7.75c-.13-3.78-2.26-5.78-5.55-5.86a5.18,5.18,0,0,0-5.5,5.08c-.21,3.38,1.73,5.73,5.21,5.93S650.22,389.93,650.66,386.67Z" transform="translate(-41.99 -207.39)"/><path class="cls-13" d="M567.76,702.11c-2.09.15-4.18.43-6.28.43q-57.15,0-114.32,0c-2.1,0-4.21-.21-6.31-.32a22.37,22.37,0,0,1,3.68-.59q59.75,0,119.5,0A27.78,27.78,0,0,1,567.76,702.11Z" transform="translate(-41.99 -207.39)"/><path class="cls-3" d="M494,420.32c3.26,1.26,3.65,3.71,2.67,6.63-.86,2.53-2.88,3.49-5.41,3.44-2.9-.05-4.67-1.68-5.43-4.37-.45-1.63-.75-3.27-2.16-4.39C486.79,419.05,490.8,423.05,494,420.32Z" transform="translate(-41.99 -207.39)"/><path class="cls-35" d="M654.47,393.23c3.39.39,5.66,2.52,7.75,4.94a2.47,2.47,0,0,1-.17,3.86,2.39,2.39,0,0,1-3.4.28c-2.52-2.11-5.71-3.82-5.36-7.89l-.08.1c1,.05,1.47-.35,1.36-1.36Z" transform="translate(-41.99 -207.39)"/><path class="cls-10" d="M553.16,441.47c5.51,0,11-.12,16.54,0,7.18.19,10.86,3.89,10.94,11.16q.2,16.54,0,33.08c-.1,6.94-3.78,10.68-10.62,10.77-11.24.16-22.48.13-33.72,0-6.88-.08-10.51-3.11-10.75-9.85-.42-11.64-.47-23.32-.15-35,.19-6.87,4.15-10,11.23-10.22h16.54Zm-13.09,39c-.92,3.17.41,5,3.14,6.72,3,1.87,4.74.45,6.5-1.47,2.92-3.19,5.33-1.46,7.47.81s3.81,1.72,6.07.29,3.88-2.61,2.87-5.47c-1.37-3.87.28-6.11,4-7.11,2.81-.77,3.26-2.71,3.3-5.29s-.76-4.4-3.48-5.16c-3.37-.93-5.15-3.17-3.93-6.64,1.14-3.25-.57-4.46-2.9-6s-4.1-1.42-6.06.57c-2.46,2.5-5.25,2.71-7.8.14-2.16-2.17-4.05-2-6.68-.59-2.93,1.61-3,3.74-2.44,6.38.66,3.18-.18,5.35-3.68,6.08-2.78.59-4.14,2.08-4.11,5.31s1.24,4.72,4.08,5.36C539.73,475.15,541,477.12,540.07,480.44Z" transform="translate(-41.99 -207.39)"/><path class="cls-10" d="M504.76,568.9h23.49c3.84,0,6.89,1.16,6.87,5.59s-3,5.74-6.81,5.74h-47c-4.07,0-7.43-1.39-7.25-6,.17-4.16,3.3-5.41,7.2-5.35C489.1,569,496.93,568.91,504.76,568.9Z" transform="translate(-41.99 -207.39)"/><path class="cls-36" d="M483.59,515.29c.47.14,2.19.17,3.21,1,2.56,2.15,4.46,1.63,7.18,0a7.34,7.34,0,0,1,10.23,2c2.56,3.39,2.41,7.11-.39,10.51a11.36,11.36,0,0,1-1.29,1.39c-4.24,3.73-8,11.51-12.34,10.66-5-1-9-7.67-13.28-12.08a7.47,7.47,0,0,1-1.35-8.85C476.94,517,479.23,515.26,483.59,515.29Z" transform="translate(-41.99 -207.39)"/><path class="cls-10" d="M604.27,577.9q-7,0-14,0c-3.39,0-6-1.22-5.92-5s2.6-5.06,6-5.07q14.31,0,28.6,0c3.61,0,6.46,1.31,6.25,5.43-.19,3.76-3,4.71-6.3,4.68C614,577.87,609.15,577.9,604.27,577.9Z" transform="translate(-41.99 -207.39)"/><path class="cls-10" d="M488.81,561.24c-3.18,0-6.36.13-9.53,0a5.27,5.27,0,0,1-5.29-5.33,5.08,5.08,0,0,1,4.91-5.65c7-.32,14-.34,21,0,3,.16,4.77,2.55,4.56,5.85a4.92,4.92,0,0,1-4.8,5c-3.57.29-7.19.07-10.8.07Z" transform="translate(-41.99 -207.39)"/><path class="cls-10" d="M612.6,559.43a72.2,72.2,0,0,1-8.83-.08,4.67,4.67,0,0,1-4.33-5.31,4.46,4.46,0,0,1,4.48-4.5c5.47-.21,11-.24,16.44-.09,2.87.07,4.8,1.75,4.89,4.77.11,3.34-1.92,5-5.06,5.29-2.51.21-5.05,0-7.59,0Z" transform="translate(-41.99 -207.39)"/><path class="cls-10" d="M570.78,577.86c-3-.17-4.77-1.88-4.77-4.82s1.41-5,4.51-5.09,4.74,1.88,4.81,4.8S573.81,577.48,570.78,577.86Z" transform="translate(-41.99 -207.39)"/><path class="cls-37" d="M501.39,380.91c0,2.21-9.33,11.59-11.42,11.53-3.06-.09-4.6-2.29-2.92-4.58a46.87,46.87,0,0,1,9.34-9.32C498.65,376.82,500.73,378.32,501.39,380.91Z" transform="translate(-41.99 -207.39)"/><path class="cls-38" d="M494.11,374.2c-.1,2.17-8.73,11.15-10.72,11.24-2.78.12-4.37-1.85-3.13-3.94a24.24,24.24,0,0,1,10.18-9.9C492.46,370.64,494,372,494.11,374.2Z" transform="translate(-41.99 -207.39)"/><path class="cls-22" d="M276.77,770c-5.28,0-10.55.11-15.82,0-3-.09-5.76-1.51-5.73-4.71,0-3.42,3-4.11,6-4.11q15.51,0,31,0c2.66,0,5.45.16,5.53,3.64s-2.34,5.19-5.76,5.23c-5.06.05-10.12,0-15.18,0Z" transform="translate(-41.99 -207.39)"/><path class="cls-22" d="M267.94,774c2.33,0,4.66.08,7,0,2.48-.11,4.25,1,4.6,3.34a4.09,4.09,0,0,1-3.23,4.81,40.56,40.56,0,0,1-18.11-.11,4,4,0,0,1,.9-7.86c2.94-.22,5.91-.06,8.86-.06Z" transform="translate(-41.99 -207.39)"/><path class="cls-24" d="M380.38,499.1c4,0,8,0,12,0,2.92,0,5.09,1,5.08,4.24,0,2.95-2.19,3.95-4.73,4-8.22.09-16.44.12-24.66,0-2.7,0-5.28-1-5.14-4.31s2.61-4,5.41-4c4,0,8,0,12,0Z" transform="translate(-41.99 -207.39)"/><path class="cls-24" d="M414.94,499.1c2.1,0,4.2-.05,6.3,0,2.61.07,4.63,1.19,4.77,4s-1.87,4.14-4.46,4.21c-4.4.12-8.82.12-13.23,0-2.56-.1-4.66-1.43-4.49-4.22s2.16-3.93,4.81-4c2.1,0,4.2,0,6.3,0Z" transform="translate(-41.99 -207.39)"/><path class="cls-24" d="M414.07,523.28c-2.52,0-5.06.09-7.58,0a3.45,3.45,0,0,1-3.52-3.69c0-2.1,1.21-3.83,3.37-3.9,5.47-.18,11-.21,16.41,0a3.47,3.47,0,0,1,3.25,4,3.59,3.59,0,0,1-3.71,3.57C419.55,523.33,416.81,523.28,414.07,523.28Z" transform="translate(-41.99 -207.39)"/><path class="cls-24" d="M380.07,523.37c-2.86,0-5.84,0-5.92-3.92-.08-3.43,2.46-3.93,5.21-4,3-.07,5.85.43,6,4C385.46,522.71,382.88,523.47,380.07,523.37Z" transform="translate(-41.99 -207.39)"/><path class="cls-24" d="M396.14,523.38c-3.86,0-6.56-.2-6.75-3.63-.2-3.81,2.52-4.31,5.52-4.32s5.8.76,5.66,4.33C400.44,523.05,397.63,523.4,396.14,523.38Z" transform="translate(-41.99 -207.39)"/><path class="cls-24" d="M361,298.16c-2,2.34-4.1,5.21-7.26,6.95-1.1.6-8.41-6.27-7.79-7.34a23.68,23.68,0,0,1,7.39-7.42C354,289.88,360.84,296.5,361,298.16Z" transform="translate(-41.99 -207.39)"/><path class="cls-24" d="M387.61,297.74c-2.35,3-4.38,7.14-7.7,7.12s-7-4-7.15-7,3.86-7,7-7.07S385.11,294.82,387.61,297.74Z" transform="translate(-41.99 -207.39)"/><path class="cls-24" d="M414.45,297.87c-2.77,2.59-5.14,6.6-8,6.94-3.21.38-7-3.83-7.24-6.79-.31-3.23,3.82-6.94,6.81-7.24C409.36,290.45,411.35,294.93,414.45,297.87Z" transform="translate(-41.99 -207.39)"/><path class="cls-24" d="M440.72,297.84c-2.63,2.81-4.7,7.11-8,7s-7-3.95-6.89-7.16,3.93-7,7.1-6.88S438.38,294.89,440.72,297.84Z" transform="translate(-41.99 -207.39)"/><path class="cls-24" d="M360.84,286.52h10.24C368.11,293.76,367.19,293.83,360.84,286.52Z" transform="translate(-41.99 -207.39)"/><path class="cls-24" d="M387.45,286.71H398C393.42,293.69,393.42,293.69,387.45,286.71Z" transform="translate(-41.99 -207.39)"/><path class="cls-24" d="M448.14,286.13l3.25.7a17.19,17.19,0,0,1-5.72,5.78l-5.29-5.75Z" transform="translate(-41.99 -207.39)"/><path class="cls-24" d="M445.71,303.06l6.27,5.68-3.75.62-7.06-.33C441.69,306.09,444.6,305.25,445.71,303.06Z" transform="translate(-41.99 -207.39)"/><path class="cls-24" d="M398.35,308c-3.47,2.47-7.25.89-10.92.81C390.74,304,394.27,302.21,398.35,308Z" transform="translate(-41.99 -207.39)"/><path class="cls-24" d="M424.79,286.77c-5.19,6.59-5.19,6.59-10.42,0Z" transform="translate(-41.99 -207.39)"/><path class="cls-24" d="M424.27,307.71c-3.13,2.87-6.95.8-10.39,1.44C419.19,302.42,419.19,302.42,424.27,307.71Z" transform="translate(-41.99 -207.39)"/><path class="cls-24" d="M371.8,308.84h-9.88C366.4,302.55,366.4,302.55,371.8,308.84Z" transform="translate(-41.99 -207.39)"/><path class="cls-29" d="M671.21,830q0-55.57,0-111.14c0-1.67-.29-3.43,1.13-4.78,1.16,2.39.93,5,.93,7.51q0,49,0,98C673.21,823.23,673.6,826.92,671.21,830Z" transform="translate(-41.99 -207.39)"/><path class="cls-13" d="M659.28,702.33c-9.56.25-19.12.64-28.67-.21C640.18,701.42,649.73,701.05,659.28,702.33Z" transform="translate(-41.99 -207.39)"/><path class="cls-39" d="M597.1,708.45A21.25,21.25,0,0,1,587,712c-1.86,4.46-1.27,9-.4,13.54,0,.89,0,1.79,0,2.69-.14.7-.27,1.41-.41,2.11,1.85,4.59,7.2,4.75,10.25,8.32,5.16,6,5.54,13.13,7.07,20.09-2.56,2-2.47,7.38-8.21,5.32-10.63-3.81-19.72,1.38-22.41,12.36-.61,2.47-1,4.65-4.32,3.56-9.07-4.84-15.62-11.5-16.22-22.46-.66-12,5.8-22,17.39-25.69,4-1.26,5.12-3,4.92-7-.29-6.11.09-12.24.19-18.36,2.1,2.48,4.47,3.12,6.73.42,1.73-2.07,2.12-4.34-.12-6.63-2.38-2.45-4.64-.19-6.95-.15q.13-3.88.25-7.76c7.39,2.57,8.47,1.87,8.42-6,0-4.27-.21-7.7,5.87-8.11,5.43-.36,8.65-5.9,8.17-11.69s-4.6-9.71-10.47-9.6c-2.89,0-5.77.89-8.66,1.37,6.05-9.66,16.17-14,26.49-11.33a24.58,24.58,0,0,1,18,22.74,24,24,0,0,1-17.19,23.25c-2.89.89-4.85,1.47-4.23,5.23C601.76,702.15,599.45,705.39,597.1,708.45Zm-26,34.95c-6.13,0-10.58,3.82-10.76,9.29-.17,5.13,4.78,10.78,9.55,10.88a10.37,10.37,0,0,0,10.77-10.66A9.37,9.37,0,0,0,571.1,743.4Z" transform="translate(-41.99 -207.39)"/><path class="cls-27" d="M578.06,658.24c2.89-.48,5.77-1.32,8.66-1.37,5.87-.11,10,3.87,10.47,9.6s-2.74,11.33-8.17,11.69c-6.08.41-5.9,3.84-5.87,8.11.05,7.9-1,8.6-8.42,6-.12-9.28-1.12-18.58.67-27.79C575.83,662.28,576.25,659.93,578.06,658.24Zm8,15.18c3.5-.16,5.78-1.67,6-5.22.25-3.75-1.55-6.05-5.42-6.23-3.47-.16-5.62,1.64-5.91,5.12C580.38,670.88,582.41,672.92,586,673.42Z" transform="translate(-41.99 -207.39)"/><path class="cls-27" d="M574.48,700.06c2.31,0,4.57-2.3,6.95.15,2.24,2.29,1.85,4.56.12,6.63-2.26,2.7-4.63,2.06-6.73-.42-.24-1.35-.48-2.69-.71-4C574.23,701.61,574.36,700.83,574.48,700.06Z" transform="translate(-41.99 -207.39)"/><path class="cls-19" d="M811.07,794.56c0-5.81,3.18-9.1,8.84-9.14a9.29,9.29,0,0,1,9.16,9.24c.1,5-4,9.6-8.73,9.79S811.07,799.91,811.07,794.56Z" transform="translate(-41.99 -207.39)"/><path class="cls-40" d="M568.54,779.94c3.34,1.09,3.71-1.09,4.32-3.56,2.69-11,11.78-16.17,22.41-12.36,5.74,2.06,5.65-3.32,8.21-5.32l8.46-5.13c22.76-6.42,36.12,11.58,35.09,25.87-.87,12-10.24,23.49-22.29,23.82-24.56.69-49.15.48-73.72.27-6.46-.06-11.06-5.68-10.94-11.78.13-6.34,5.14-11.25,12-11.51C557.54,780,563,780,568.54,779.94Z" transform="translate(-41.99 -207.39)"/><path class="cls-11" d="M611.94,753.57l-8.46,5.13c-1.53-7-1.91-14.06-7.07-20.09-3-3.57-8.4-3.73-10.25-8.32l.51.11.52-.06C601.34,731.76,609.19,739.12,611.94,753.57Z" transform="translate(-41.99 -207.39)"/><path class="cls-6" d="M532,772.26c-.23,3-1.59,5-4.21,4.92-2.88-.07-4.41-2.14-4.27-5.1.13-2.62,1.46-4.49,4.19-4.5C530.87,767.57,531.91,769.78,532,772.26Z" transform="translate(-41.99 -207.39)"/><path class="cls-6" d="M614,730.82c3.12.62,4.12,2.67,3.92,5.5-.2,2.65-1.55,4.5-4.3,4.3-3.13-.23-4-2.54-3.86-5.37S611.4,731.14,614,730.82Z" transform="translate(-41.99 -207.39)"/><path class="cls-6" d="M543.33,749.6a4.23,4.23,0,0,1,4.09,4.5c.07,2.88-1.12,5.13-4.14,5.13s-4.35-2.17-4.21-5.08C539.21,751.59,540.44,749.84,543.33,749.6Z" transform="translate(-41.99 -207.39)"/><path class="cls-6" d="M548.88,733.89c2.88.44,4.09,2.12,4,4.86-.06,3-1.3,5-4.56,4.7-3-.27-3.66-2.45-3.64-5C544.76,735.6,546.24,734.17,548.88,733.89Z" transform="translate(-41.99 -207.39)"/><path class="cls-6" d="M599.8,720.3c3,.14,4,2,4.08,4.58s-1,4.68-3.78,4.8c-3.18.13-4.34-1.92-4.28-4.89C595.88,722.07,597,720.43,599.8,720.3Z" transform="translate(-41.99 -207.39)"/><path class="cls-30" d="M586.58,725.49c-.87-4.55-1.46-9.08.4-13.54Q586.77,718.72,586.58,725.49Z" transform="translate(-41.99 -207.39)"/><path class="cls-30" d="M587.19,730.34l-.52.06-.51-.11c.14-.7.27-1.41.41-2.11C586.78,728.9,587,729.62,587.19,730.34Z" transform="translate(-41.99 -207.39)"/><path class="cls-41" d="M480.92,658a16,16,0,0,0,2.63,10.5c2.19,3.34.94,7.1-2.19,9.61a7.72,7.72,0,0,1-10,.25c-3.32-2.39-4.85-6.25-2.69-9.43,3.19-4.68,2.68-9.52,2.79-14.5.08-3.75-.59-8.71,4.8-8.62s4.51,5.07,4.62,8.8C480.94,655.42,480.92,656.27,480.92,658Z" transform="translate(-41.99 -207.39)"/><path class="cls-21" d="M446.54,384.44a24.2,24.2,0,0,1,3.81,0c1.67.26,3,1.66,2.29,3.09-1.73,3.55-5.24,1.63-8,1.92-2,.21-4.58.65-5.2-2.19-.37-1.68.94-2.73,2.64-2.87,1.47-.11,3,0,4.44,0Z" transform="translate(-41.99 -207.39)"/><path class="cls-28" d="M650.66,386.67c-.44,3.26-2.35,5.35-5.84,5.15s-5.42-2.55-5.21-5.93a5.18,5.18,0,0,1,5.5-5.08C648.4,380.89,650.53,382.89,650.66,386.67Z" transform="translate(-41.99 -207.39)"/><path class="cls-28" d="M654.57,393.16c.11,1-.4,1.41-1.36,1.36C652.91,393.32,653.26,392.76,654.57,393.16Z" transform="translate(-41.99 -207.39)"/><path class="cls-24" d="M540.07,480.44c.91-3.32-.34-5.29-3.69-6.05-2.84-.64-4-2.2-4.08-5.36s1.33-4.72,4.11-5.31c3.5-.73,4.34-2.9,3.68-6.08-.55-2.64-.49-4.77,2.44-6.38,2.63-1.44,4.52-1.58,6.68.59,2.55,2.57,5.34,2.36,7.8-.14,2-2,3.66-2.13,6.06-.57s4,2.73,2.9,6c-1.22,3.47.56,5.71,3.93,6.64,2.72.76,3.53,2.46,3.48,5.16s-.49,4.52-3.3,5.29c-3.68,1-5.33,3.24-4,7.11,1,2.86-.71,4.11-2.87,5.47s-4,1.9-6.07-.29-4.55-4-7.47-.81c-1.76,1.92-3.52,3.34-6.5,1.47C540.48,485.45,539.15,483.61,540.07,480.44Zm13-20.06a8.15,8.15,0,0,0-8.25,8.52,8.49,8.49,0,1,0,17-.47A8.16,8.16,0,0,0,553.08,460.38Z" transform="translate(-41.99 -207.39)"/><path class="cls-27" d="M571.1,743.4a9.37,9.37,0,0,1,9.56,9.51,10.37,10.37,0,0,1-10.77,10.66c-4.77-.1-9.72-5.75-9.55-10.88C560.52,747.22,565,743.38,571.1,743.4Zm4.49,10.06c-.43-3.05-1.81-5.56-4.92-5.71s-5.13,2.28-5,5.24c.09,2.68,1.26,5.55,4.77,5.56C573.65,758.56,575.2,756.47,575.59,753.46Z" transform="translate(-41.99 -207.39)"/><path class="cls-9" d="M586,673.42c-3.6-.5-5.63-2.54-5.31-6.33.29-3.48,2.44-5.28,5.91-5.12,3.87.18,5.67,2.48,5.42,6.23C591.79,671.75,589.51,673.26,586,673.42Z" transform="translate(-41.99 -207.39)"/><path class="cls-10" d="M553.08,460.38a8.16,8.16,0,0,1,8.71,8.05,8.49,8.49,0,1,1-17,.47A8.15,8.15,0,0,1,553.08,460.38Z" transform="translate(-41.99 -207.39)"/><path class="cls-9" d="M575.59,753.46c-.39,3-1.94,5.1-5.18,5.09-3.51,0-4.68-2.88-4.77-5.56-.1-3,1.86-5.4,5-5.24S575.16,750.41,575.59,753.46Z" transform="translate(-41.99 -207.39)"/><path class="cls-3" d="M614.53,424.5a80.42,80.42,0,0,1-1.29,25.75c-.68,3.13,4.13,4.47,4.82,1.33a84.41,84.41,0,0,0,1.47-27.08A2.57,2.57,0,0,0,617,422a2.51,2.51,0,0,0-2.5,2.5Z" transform="translate(-41.99 -207.39)"/><path class="cls-3" d="M613.29,445.52c3.22,0,3.22-5,0-5s-3.22,5,0,5Z" transform="translate(-41.99 -207.39)"/><path class="cls-3" d="M617,437l-.54.25L617,437a11.35,11.35,0,0,1-2.76.73l.67-.09a11,11,0,0,1-2.86,0l.67.09c-.24,0-.47-.07-.71-.12a2.7,2.7,0,0,0-1.93.25,2.56,2.56,0,0,0-1.14,1.5,2.52,2.52,0,0,0,1.74,3.07,13.36,13.36,0,0,0,4.23.22,14.3,14.3,0,0,0,4.56-1.32,2.52,2.52,0,0,0,1.15-1.49,2.5,2.5,0,0,0-1.74-3.08A2.82,2.82,0,0,0,617,437Z" transform="translate(-41.99 -207.39)"/><path class="cls-3" d="M601.27,437.55a11.15,11.15,0,0,0,19-10.71,2.5,2.5,0,1,0-4.82,1.33,7.06,7.06,0,0,1,.21.79c0,.14.09.75,0,.14a11.64,11.64,0,0,1,0,1.32c0,.14-.11.88,0,.25,0,.2-.06.4-.11.6a9.42,9.42,0,0,1-.42,1.37c.15-.4,0,0-.08.16s-.19.36-.29.54-.25.4-.39.6c-.35.51.16-.13-.17.22s-.57.58-.86.87-.21.17,0,0l-.33.23a5.84,5.84,0,0,1-.53.33c-.18.1-.36.18-.55.27.53-.26-.13,0-.25.08a10.07,10.07,0,0,1-1.29.31c.6-.11,0,0-.15,0s-.54,0-.82,0l-.61,0c-.66-.05.5.11-.15,0a10.79,10.79,0,0,1-1.38-.37c-.1,0-.68-.3-.17,0-.18-.09-.37-.17-.55-.27a7.1,7.1,0,0,1-.7-.41c-.11-.08-.57-.46-.15-.1a10.69,10.69,0,0,1-1-1,2.5,2.5,0,0,0-3.53,0,2.56,2.56,0,0,0,0,3.54Z" transform="translate(-41.99 -207.39)"/></svg>